<svg id="branding" xmlns="http://www.w3.org/2000/svg" xmlns:xlink="http://www.w3.org/1999/xlink" width="600" height="600" viewBox="0 0 600 600">
  <defs>
    <style>
		
		 #fondo { #visibility: hidden; }
		
		/* Animations */
		#d1 {
			transform-origin: center;
			animation: go 6s 0s infinite linear;
		}
		#d9, #d11 {
			transform-origin: center;
			animation: go 30s 0s infinite linear;
		}
		#d3 {
			transform-origin: center;
			animation: go 40s 0s reverse infinite linear;
		}
		#d12 {
			transform-origin: center;
			animation: go 90s 0s infinite linear;
		}
		@keyframes go {
		100%	{
			transform:rotate(360deg);
  			}
  		}
		
		#d2 {
			transform-origin: center;
			animation: go2 48s 0s infinite steps(48, end);
		}
		#d14 {
			transform-origin: center;
			animation: go2 96s 0s infinite reverse steps(48, end);
		}
		@keyframes go2 {
		100%	{
			transform:rotate(360deg);
  			}
  		}
		#d4, #d5 {
			transform-origin: center;
			animation: go3 6s 0s infinite;
		}
		@keyframes go3 {
		0%	{
			transform:rotate(-20deg);
  			}
		50%	{
			transform:rotate(20deg);
  			}
		100%	{
			transform:rotate(-20deg);
  			}
		}
		
		#d7 {
			transform-origin: center;
			animation: go4 2s 0s infinite steps(1, end);
		}
		@keyframes go4 {
		0%	{
			transform:rotate(-2deg);
  			}
		50%	{
			transform:rotate(2deg);
  			}
		100%	{
			transform:rotate(-2deg);
  			}
  		}
		
		#d15, #d13 {
			transform-origin: center;
			animation: go3 10s 0s infinite;
		}
		@keyframes go3 {
		0%	{
			transform:rotate(-20deg);
  			}
		50%	{
			transform:rotate(20deg);
  			}
		100%	{
			transform:rotate(-20deg);
  			}
		}
		
				
		
		/* Style */
      .cls-1 {
        fill: #666;
      }

      .cls-2 {
        fill: #fff;
      }

      .cls-10, .cls-3, .cls-4, .cls-5, .cls-6, .cls-7, .cls-8, .cls-9 {
        fill: none;
        stroke: #fff;
        stroke-miterlimit: 10;
      }

      .cls-3 {
        stroke-width: 24px;
      }

      .cls-4 {
        stroke-width: 3px;
      }

      .cls-6 {
        stroke-width: 13px;
      }

      .cls-7 {
        stroke-width: 0.95px;
      }

      .cls-8 {
        stroke-width: 6px;
      }

      .cls-9 {
        stroke-width: 5px;
      }

      .cls-10 {
        stroke-width: 2px;
      }

      .cls-11 {
        fill: #f59c26;
      }

      .cls-12 {
        fill: #909390;
      }

      .cls-13 {
        fill: #f28923;
      }

      .cls-14 {
        fill: #c77020;
      }

      .cls-15 {
        fill: #575554;
      }

      .cls-16 {
        fill: #1d1d1d;
      }

      .cls-17 {
        fill: #f49a25;
      }

      .cls-18 {
        fill: #f4922c;
      }

      .cls-19 {
        fill: #8b8b8b;
      }

      .cls-20 {
        fill: #1e1e1e;
      }

      .cls-21 {
        fill: #575455;
      }

      .cls-22 {
        fill: #f38823;
      }

      .cls-23 {
        fill: #c4651b;
      }
    </style>
  </defs>
	
	
  <rect id="fondo" class="cls-1" x="-0.02" y="0.38" width="600" height="600" transform="translate(599.97 600.75) rotate(180)"></rect>
 
	
	<g id="dischi">
	  
    <path id="d1" class="cls-2" d="M300,247a53,53,0,1,0,53,53A53,53,0,0,0,300,247Zm-13.4,3.79a51.08,51.08,0,0,1,26.77,0l1.55.42-.8,2.3-1.77,5-1.28,3.63-1.33-.34a39.62,39.62,0,0,0-20.14.18l-1.45.4-.6-2.21c-.6-2.19-1.19-4.39-1.75-6.59l-.63-2.41Zm-33.87,30,.57-1.31a51.16,51.16,0,0,1,8.93-13.77l1-1.09,1.86,1.62c1.74,1.51,3.43,3,5,4.57l1.69,1.62-1,1.09a39.24,39.24,0,0,0-7.12,11.14l-.65,1.54-2-1.12c-2-1.08-4-2.15-6.06-3.18ZM294,341.29c-.61,2.27-1.23,4.49-1.85,6.61l-.7,2.4-1.35-.27a51,51,0,0,1-30.41-18.81l-.87-1.13,1.86-1.6,5.17-4.46,1.77-1.54,1,1.28a39.3,39.3,0,0,0,24.41,15l1.61.29Zm6-3.88A37.41,37.41,0,1,1,337.41,300,37.45,37.45,0,0,1,300,337.41ZM344.45,325a51.26,51.26,0,0,1-8.68,11.35l-1.08,1.06-1.7-1.76c-1.17-1.23-2.35-2.45-3.53-3.68l-2.8-2.91,1-1a39.69,39.69,0,0,0,7.06-9.48l.81-1.5,3.56,2.55c1.31.94,2.62,1.88,3.94,2.8l2,1.42Zm6.4-20.77-2.49,0c-2,0-4.26-.07-6.8-.17l-2.33-.09.09-1.53c.05-.88.08-1.66.08-2.37a39.05,39.05,0,0,0-1.7-11.42l-.39-1.29,2.13-.91c1.87-.8,3.9-1.55,6.4-2.35l2.36-.76.46,1.44A51,51,0,0,1,351,300c0,.89,0,1.79-.08,2.75Z"></path>
    
	  
	  <path id="d2" class="cls-2" d="M368.55,334.5l1.41,1.15,4.76,3.9a82.83,82.83,0,0,0,9.78-34.87h-7.93l.06-1.57c0-1,.08-2.05.08-3.09a76.72,76.72,0,0,0-76.63-76.63c-1,0-2.07,0-3.1.08l-1.56.06v-7.94a84.31,84.31,0,0,0-40.14,12.75c1.23,1.73,2.44,3.46,3.65,5.2l.89,1.27-1.31.84a76.74,76.74,0,0,0-28.12,32.49l-.65,1.42-1.4-.72L222.7,266A83.48,83.48,0,0,0,215.5,300a84.52,84.52,0,0,0,19.1,53.44l5.6-5.6,1.05,1.26a76.57,76.57,0,0,0,62.84,27.43l1.57-.09v8a83.57,83.57,0,0,0,21.45-4.27q-1-3-2.08-6.07l-.49-1.4,1.4-.51a76.57,76.57,0,0,0,41.75-36.06Zm-68.47,40.38A74.86,74.86,0,1,1,374.94,300,75,75,0,0,1,300.08,374.88Z"></path>
   
	  <path id="d3" class="cls-2" d="M287.31,395.2c-1-.13-1.94-.27-2.91-.43L285,391c.92.15,1.85.29,2.79.41Zm29.65-.66-.67-3.78c.93-.17,1.85-.35,2.77-.54l.79,3.76C318.89,394.18,317.93,394.37,317,394.54Zm-40.36-1.38c-1-.24-1.89-.49-2.84-.76l1.05-3.69c.91.25,1.81.5,2.73.72Zm51-1.14-1.1-3.68c.9-.27,1.8-.56,2.69-.85l1.21,3.64C329.44,391.44,328.51,391.73,327.57,392Zm-61.37-2.11c-.92-.34-1.84-.7-2.75-1.08l1.47-3.55c.87.36,1.75.71,2.63,1Zm-10-4.42c-.88-.45-1.74-.91-2.6-1.38l1.86-3.36q1.23.67,2.49,1.32Zm116.47-22.73-2.91-2.51c.62-.71,1.22-1.44,1.82-2.17l3,2.43Q373.65,361.65,372.69,362.76Zm-149.54-5.17c-.59-.78-1.16-1.57-1.73-2.37l3.14-2.21c.55.77,1.1,1.53,1.66,2.28Zm156.19-3.47L376.17,352c.53-.78,1.05-1.56,1.56-2.35l3.23,2.07C380.44,352.49,379.89,353.31,379.34,354.12Zm-162.23-5.6q-.74-1.26-1.44-2.55l3.37-1.84c.45.82.91,1.64,1.39,2.45ZM385,344.78l-3.4-1.79c.44-.84.87-1.68,1.28-2.52l3.45,1.68C385.88,343,385.43,343.91,385,344.78Zm-172.84-5.95q-.58-1.33-1.14-2.7l3.56-1.44c.35.87.72,1.73,1.1,2.58Zm177.37-4-3.58-1.39c.34-.88.67-1.76,1-2.65l3.62,1.28C390.21,333,389.87,333.94,389.51,334.85Zm-181.2-6.22c-.29-.93-.57-1.87-.83-2.82l3.7-1c.25.9.52,1.8.8,2.7Zm184.57-4.15-3.71-1c.24-.91.46-1.82.67-2.74l3.75.86C393.37,322.58,393.13,323.53,392.88,324.48Zm-187.21-6.42c-.19-1-.36-1.93-.51-2.9l3.79-.6c.15.93.31,1.86.49,2.78Zm189.38-4.26-3.8-.55c.13-.93.25-1.86.36-2.8l3.81.43C395.31,311.86,395.19,312.83,395.05,313.8Zm-190.81-6.55c-.07-1-.13-1.95-.18-2.93l3.84-.17c0,.94.1,1.88.17,2.82Zm3.64-10.75-3.84-.14c0-1,.09-2,.15-2.94l3.83.26C208,294.62,207.91,295.56,207.88,296.5Zm1-10.42-3.79-.57c.14-1,.31-1.94.48-2.9l3.78.69C209.15,284.22,209,285.15,208.85,286.08Zm180.85-7.47c-.22-.92-.45-1.83-.7-2.73l3.71-1c.26.95.5,1.9.73,2.85ZM211,275.84l-3.71-1c.26-.95.53-1.89.81-2.83l3.68,1.12C211.51,274,211.25,274.93,211,275.84Zm175.69-7.25c-.32-.89-.65-1.77-1-2.64l3.57-1.42c.36.91.71,1.83,1,2.75Zm-172.38-2.68-3.57-1.42c.36-.91.74-1.82,1.13-2.72l3.53,1.53C215,264.16,214.67,265,214.32,265.91ZM382.58,259c-.42-.84-.85-1.67-1.29-2.5l3.39-1.81c.46.86.9,1.73,1.34,2.6Zm-5.18-9.08c-.51-.79-1-1.57-1.57-2.34l3.16-2.19c.55.81,1.1,1.62,1.63,2.44Zm-6.18-8.44c-.6-.72-1.21-1.44-1.83-2.15l2.89-2.53c.65.74,1.28,1.49,1.9,2.24Zm-7.1-7.69c-.67-.65-1.36-1.3-2.05-1.93l2.58-2.84c.73.66,1.44,1.33,2.14,2Zm-7.92-6.84c-.74-.58-1.5-1.14-2.26-1.69l2.25-3.12c.79.58,1.58,1.16,2.36,1.76ZM347.56,221c-.81-.49-1.62-1-2.44-1.43l1.88-3.34c.86.48,1.7,1,2.54,1.48Zm-92.62-1.46-1.88-3.35c.85-.48,1.71-.94,2.58-1.39l1.78,3.4C256.59,218.65,255.76,219.09,254.94,219.55Zm9.39-4.59-1.48-3.54c.9-.38,1.8-.74,2.72-1.09l1.37,3.58Q265.64,214.42,264.33,215Zm9.86-3.49-1.08-3.69c.94-.27,1.89-.53,2.84-.77l1,3.72C276,211,275.09,211.21,274.19,211.47Zm10.19-2.34-.64-3.79c1-.16,1.93-.31,2.9-.45l.53,3.81C286.24,208.83,285.31,209,284.38,209.13Z"></path>
   
	  
	  <path id="d4" class="cls-2" d="M301.46,429.49l-.21-18h.92l.37,18Zm11.79-.66-1.84-17.91.94-.1,1.95,17.9Zm11.67-1.73-3.43-17.67.9-.18L326,426.89Zm11.49-2.79L331.36,407l.9-.27L337.43,424Zm11.17-3.83L341,403.73l.84-.34,6.76,16.68Zm10.77-4.84-8.09-16.08.8-.41,8.27,16Zm10.31-5.82-9.58-15.24.8-.5,9.68,15.17Zm9.69-6.7-10.87-14.35.7-.54,11.05,14.22Zm9.09-7.6-12.19-13.24.71-.66,12.24,13.2ZM191.53,274.07,174,269.91l.25-1.05,17.47,4.32Zm2.81-9.77-17.06-5.75c.11-.34.23-.69.35-1l17,5.91Zm3.69-9.47-16.45-7.31.44-1L198.41,254Zm4.55-9.1-15.71-8.79.52-.93,15.65,8.9Zm33.9-37.38-10.25-14.8.88-.6,10.14,14.87Zm8.62-5.42-8.88-15.66.94-.53,8.74,15.74Zm9.06-4.61-7.41-16.4,1-.43L255,198Z"></path>
    
	  
	  <path id="d5" class="cls-3" d="M217.13,377.56a113.51,113.51,0,0,1-3.43-151.28m175,144.49a113.52,113.52,0,0,0-1.16-143"></path>
    
	  <path id="d6" class="cls-4" d="M390.06,211.88a126,126,0,0,1,0,176.21M375.62,199.2A125.49,125.49,0,0,0,300,174m-46,8.66a126.05,126.05,0,0,0,0,234.68"></path>
   
	  <path id="d7" class="cls-2" d="M303,447a4,4,0,0,1,3.81-4.18h0a4,4,0,0,1,4.18,3.81h0a4,4,0,0,1-3.81,4.18H307A4,4,0,0,1,303,447Zm-28.55,1.83a4,4,0,0,1-3.27-4.62h0a4,4,0,0,1,4.62-3.27h0a4,4,0,0,1,3.27,4.61h0a4,4,0,0,1-3.94,3.33h0A4,4,0,0,1,274.44,448.85Zm60.23-5.91a4,4,0,0,1,2.81-4.9h0a4,4,0,0,1,4.91,2.81h0a4,4,0,0,1-2.82,4.91h0a4.21,4.21,0,0,1-1.05.14h0A4,4,0,0,1,334.67,442.94Zm-76.24,2.26a4,4,0,0,1-2.75-4.94h0a4,4,0,0,1,4.95-2.75h0a4,4,0,0,1,2.75,4.95h0a4,4,0,0,1-3.85,2.9h0A3.85,3.85,0,0,1,258.43,445.2ZM364.7,432.09a4,4,0,0,1,1.69-5.4h0a4,4,0,0,1,5.4,1.68h0a4,4,0,0,1-1.68,5.4h0a4,4,0,0,1-1.86.46h0A4,4,0,0,1,364.7,432.09Zm13.95-7.82a4,4,0,0,1,1.09-5.55h0a4,4,0,0,1,5.55,1.08h0a4,4,0,0,1-1.08,5.56h0A4,4,0,0,1,382,426h0A4,4,0,0,1,378.65,424.27ZM201.1,414.1a4,4,0,0,1-.4-5.64h0a4,4,0,0,1,5.64-.4h0a4,4,0,0,1,.4,5.64h0a4,4,0,0,1-3,1.38h0A4,4,0,0,1,201.1,414.1Zm213.24-21.62a4,4,0,0,1-.74-5.61h0a4,4,0,0,1,5.6-.74h0a4,4,0,0,1,.75,5.61h0a4,4,0,0,1-3.18,1.56h0A4,4,0,0,1,414.34,392.48Zm9.38-13a4,4,0,0,1-1.35-5.5h0a4,4,0,0,1,5.5-1.35h0a4,4,0,0,1,1.34,5.49h0a4,4,0,0,1-3.42,1.93h0A4,4,0,0,1,423.72,379.52Zm-254-3.14a4,4,0,0,1,1.42-5.48h0a4,4,0,0,1,5.47,1.43h0a4,4,0,0,1-1.42,5.48h0a4,4,0,0,1-2,.55h0A4,4,0,0,1,169.72,376.38Zm261.92-10.76a4,4,0,0,1-1.94-5.32h0a4,4,0,0,1,5.31-1.94h0a4,4,0,0,1,1.94,5.31h0a4,4,0,0,1-3.63,2.31h0A4,4,0,0,1,431.64,365.62Zm-279.54-35h0a4,4,0,0,1,3.11-4.72h0a4,4,0,0,1,4.72,3.11h0a4,4,0,0,1-3.11,4.72h0a3.71,3.71,0,0,1-.81.08h0A4,4,0,0,1,152.1,330.58Zm293.61-10.64a4,4,0,0,1-3.54-4.41h0a4,4,0,0,1,4.4-3.55h0a4,4,0,0,1,3.55,4.41h0a4,4,0,0,1-4,3.57h0A3.24,3.24,0,0,1,445.71,319.94ZM443,300h0a4,4,0,0,1,4-4h0a4,4,0,0,1,4,4h0a4,4,0,0,1-4,4h0A4,4,0,0,1,443,300Zm-290,2a4,4,0,0,1-4-4.05h0a4,4,0,0,1,4.06-3.95h0A4,4,0,0,1,157,298h0a4,4,0,0,1-4,3.95h0Zm289.57-13.64a4,4,0,0,1,3.67-4.3h0a4,4,0,0,1,4.31,3.66h0a4,4,0,0,1-3.67,4.31h-.32A4,4,0,0,1,442.53,288.35ZM153.6,286a4,4,0,0,1-3.48-4.45h0a4,4,0,0,1,4.45-3.49h0a4,4,0,0,1,3.49,4.45h0a4,4,0,0,1-4,3.52h0Zm277.7-42.74a4,4,0,0,1,2.09-5.26h0a4,4,0,0,1,5.26,2.08h0a4,4,0,0,1-2.09,5.26h0a4,4,0,0,1-1.58.33h0A4,4,0,0,1,431.3,243.27Zm-265.5-3.48a4,4,0,0,1-1.87-5.34h0a4,4,0,0,1,5.34-1.86h0a4,4,0,0,1,1.87,5.34h0a4,4,0,0,1-3.61,2.26h0A4,4,0,0,1,165.8,239.79Zm258.56-10.43a4,4,0,0,1,1.5-5.46h0a4,4,0,0,1,5.45,1.5h0a4,4,0,0,1-1.49,5.45h0a4,4,0,0,1-2,.53h0A4,4,0,0,1,424.36,229.36Zm-251.22-3.78a4,4,0,0,1-1.27-5.51h0a4,4,0,0,1,5.51-1.27h0a4,4,0,0,1,1.27,5.51h0a4,4,0,0,1-3.39,1.88h0A4,4,0,0,1,173.14,225.58ZM182,212.25a4,4,0,0,1-.66-5.62h0a4,4,0,0,1,5.62-.66h0a4,4,0,0,1,.66,5.61h0a4,4,0,0,1-3.14,1.53h0A4,4,0,0,1,182,212.25Zm224.18-8.06h0a4,4,0,0,1,.29-5.65h0a4,4,0,0,1,5.65.29h0a4,4,0,0,1-.29,5.65h0a4,4,0,0,1-2.68,1h0A4,4,0,0,1,406.16,204.19ZM192.22,200a4,4,0,0,1-.06-5.66h0a4,4,0,0,1,5.66-.06h0a4,4,0,0,1,.06,5.66h0a4,4,0,0,1-2.86,1.2h0A4,4,0,0,1,192.22,200Zm177.61-24.78h0a4,4,0,0,1-1.54-5.44h0a4,4,0,0,1,5.45-1.54h0a4,4,0,0,1,1.53,5.45h0a4,4,0,0,1-3.49,2h0A4,4,0,0,1,369.83,175.18Zm-14-6.85a4,4,0,0,1-2.12-5.25h0A4,4,0,0,1,359,161h0a4,4,0,0,1,2.12,5.25h0a4,4,0,0,1-3.69,2.43h0A4.09,4.09,0,0,1,355.87,168.33ZM341.24,163a4,4,0,0,1-2.68-5h0a4,4,0,0,1,5-2.67h0a4,4,0,0,1,2.68,5h0a4,4,0,0,1-3.83,2.85h0A4.23,4.23,0,0,1,341.24,163Z"></path>
    
	  
	  <circle id="d8" class="cls-5" cx="300" cy="300" r="164"></circle>
    
	  <path id="d9" class="cls-2" d="M304.6,481a4,4,0,0,1,3.82-4.19h0a4,4,0,0,1,4.19,3.81h0a4,4,0,0,1-3.81,4.18h-.19A4,4,0,0,1,304.6,481Zm19.63-1.55a4,4,0,0,1,3.34-4.57h0a4,4,0,0,1,4.57,3.33h0a4,4,0,0,1-3.34,4.57h0a4.21,4.21,0,0,1-.62.05h0A4,4,0,0,1,324.23,479.44Zm-55.54,2.92a4,4,0,0,1-3.27-4.62h0a4,4,0,0,1,4.61-3.26h0a4,4,0,0,1,3.27,4.62h0a4,4,0,0,1-3.93,3.33h0A3.91,3.91,0,0,1,268.69,482.36ZM362.41,470a4,4,0,0,1,2.26-5.18h0a4,4,0,0,1,5.18,2.26h0a4,4,0,0,1-2.26,5.18h0a3.94,3.94,0,0,1-1.46.28h0A4,4,0,0,1,362.41,470Zm-132.36,1.31h0a4,4,0,0,1-2.19-5.22h0a4,4,0,0,1,5.22-2.19h0a4,4,0,0,1,2.19,5.22h0a4,4,0,0,1-3.7,2.48h0A3.8,3.8,0,0,1,230.05,471.31Zm-18.19-8.62h0a4,4,0,0,1-1.61-5.42h0a4,4,0,0,1,5.42-1.61h0a4,4,0,0,1,1.61,5.42h0a4,4,0,0,1-3.52,2.1h0A4,4,0,0,1,211.86,462.69ZM397.61,452.5A4,4,0,0,1,398.7,447h0a4,4,0,0,1,5.55,1.08h0a4,4,0,0,1-1.08,5.55h0a4,4,0,0,1-2.23.69h0A4,4,0,0,1,397.61,452.5Zm-202.89-.36h0a4,4,0,0,1-1-5.57h0a4,4,0,0,1,5.57-1h0a4,4,0,0,1,1,5.56h0a4,4,0,0,1-3.29,1.72h0A4,4,0,0,1,194.72,452.14ZM413.59,441a4,4,0,0,1,.47-5.64h0a4,4,0,0,1,5.64.48h0a4,4,0,0,1-.48,5.63h0a3.94,3.94,0,0,1-2.57,1h0A4,4,0,0,1,413.59,441ZM178.83,439.8a4,4,0,0,1-.4-5.65h0a4,4,0,0,1,5.64-.4h0a4,4,0,0,1,.4,5.65h0a4,4,0,0,1-3,1.37h0A4,4,0,0,1,178.83,439.8Zm249.39-12a4,4,0,0,1-.13-5.65h0a4,4,0,0,1,5.65-.14h0a4,4,0,0,1,.14,5.66h0a4,4,0,0,1-2.9,1.24h0A4,4,0,0,1,428.22,427.81Zm13.13-14.68a4,4,0,0,1-.74-5.6h0a4,4,0,0,1,5.6-.75h0a4,4,0,0,1,.75,5.61h0a4,4,0,0,1-3.18,1.57h0A4,4,0,0,1,441.35,413.13Zm-301-19.55a4,4,0,0,1,1.42-5.48h0a4,4,0,0,1,5.48,1.43h0a4,4,0,0,1-1.43,5.47h0a3.89,3.89,0,0,1-2,.55h0A4,4,0,0,1,140.38,393.58ZM462.47,380a4,4,0,0,1-1.93-5.32h0a4,4,0,0,1,5.31-1.93h0a4,4,0,0,1,1.94,5.31h0a4,4,0,0,1-3.63,2.31h0A4.06,4.06,0,0,1,462.47,380Zm-331.32-4.25a4,4,0,0,1,2-5.29h0a4,4,0,0,1,5.29,2h0a4,4,0,0,1-2,5.29h0a4,4,0,0,1-1.64.35h0A4,4,0,0,1,131.15,375.71Zm-7.22-18.78h0a4,4,0,0,1,2.58-5h0a4,4,0,0,1,5,2.58h0a4,4,0,0,1-2.58,5h0a4.06,4.06,0,0,1-1.23.2h0A4,4,0,0,1,123.93,356.93Zm352-13.94a4,4,0,0,1-3.05-4.77h0a4,4,0,0,1,4.77-3h0a4,4,0,0,1,3.05,4.76h0a4,4,0,0,1-3.91,3.14h0A4.26,4.26,0,0,1,475.91,343ZM118.8,337.47a4,4,0,0,1,3.11-4.73h0a4,4,0,0,1,4.72,3.11h0a4,4,0,0,1-3.11,4.73h0a4.45,4.45,0,0,1-.81.08h0A4,4,0,0,1,118.8,337.47Zm357.62-51.89a4,4,0,0,1,3.67-4.3h0a4,4,0,0,1,4.31,3.66h0a4,4,0,0,1-3.67,4.31h-.33A4,4,0,0,1,476.42,285.58Zm-2.58-19.07a4,4,0,0,1,3.17-4.68h0a4,4,0,0,1,4.68,3.18h0a4,4,0,0,1-3.17,4.68h0a4,4,0,0,1-.76.07h0A4,4,0,0,1,473.84,266.51Zm-291.67-104a4,4,0,0,1,.55-5.63h0a4,4,0,0,1,5.63.55h0a4,4,0,0,1-.55,5.63h0a4,4,0,0,1-2.54.91h0A4,4,0,0,1,182.17,162.55Zm187-25.53a4,4,0,0,1-2.12-5.25h0a4,4,0,0,1,5.24-2.11h0a4,4,0,0,1,2.12,5.24h0a4,4,0,0,1-3.68,2.44h0A3.93,3.93,0,0,1,369.16,137Zm-136.72-5a4,4,0,0,1,2.33-5.15h0a4,4,0,0,1,5.15,2.33h0a4,4,0,0,1-2.33,5.16h0a4.07,4.07,0,0,1-1.41.25h0A4,4,0,0,1,232.44,132Zm118.61-1.51h0a4,4,0,0,1-2.68-5h0a4,4,0,0,1,5-2.68h0a4,4,0,0,1,2.68,5h0a4,4,0,0,1-3.83,2.85h0A3.82,3.82,0,0,1,351.05,130.47Zm-100-4.83a4,4,0,0,1,2.88-4.87h0a4,4,0,0,1,4.87,2.89h0a4,4,0,0,1-2.88,4.86h0a3.87,3.87,0,0,1-1,.13h0A4,4,0,0,1,251.08,125.64Zm19.22-4.26a4,4,0,0,1,3.4-4.52h0a4,4,0,0,1,4.52,3.39h0a4,4,0,0,1-3.4,4.53h0a5.46,5.46,0,0,1-.56,0h0A4,4,0,0,1,270.3,121.38Zm42.95,2.11a4,4,0,0,1-3.69-4.29h0a4,4,0,0,1,4.28-3.69h0a4,4,0,0,1,3.69,4.28h0a4,4,0,0,1-4,3.71h-.3Zm-23.38-4.25a4,4,0,0,1,3.86-4.14h0a4,4,0,0,1,4.13,3.87h0A4,4,0,0,1,294,123.1h-.14A4,4,0,0,1,289.87,119.24Z"></path>
    
	 
	  <path id="d10" class="cls-6" d="M126.71,359A183,183,0,0,1,117,300m81.69,152.42a182,182,0,0,0,25.57,14.22M300,483a182.27,182.27,0,0,0,85.94-21.39m88.92-107.49A182.86,182.86,0,0,0,483,300m-4.62-41A183.07,183.07,0,0,0,300,117"></path>
    
	  
<path id="d11" class="cls-7" d="M124,370.26A189,189,0,0,1,110.5,300m51.15,129.5a189.77,189.77,0,0,0,75.46,49.32M300,489.5a188.57,188.57,0,0,0,99-27.89M457.13,406A188.6,188.6,0,0,0,489.5,300M480,240.52a189.59,189.59,0,0,0-180-130"></path>
    
	  
	  <path id="d12" class="cls-8" d="M376.17,493.07A207.75,207.75,0,0,1,161.71,454.7m301-25.87a207.54,207.54,0,0,0-49.89-303M314.3,93q-7.08-.49-14.3-.49a206.68,206.68,0,0,0-130.84,46.44"></path>
    
	  <path id="d13" class="cls-9" d="M61,268.86a239.39,239.39,0,0,1,21.84-73.48M124,464.58a240.93,240.93,0,0,0,113.3,68.17M540.76,289.26a240.32,240.32,0,0,0-77.59-166.62"></path>
    
	  <path id="d14" class="cls-2" d="M255,517.22l-1-.21,3.19-15.23,1,.2Zm96.58-1.48L348,500.6l.93-.22,3.69,15.12ZM236,512.39l-1-.3,4.54-14.88.94.28Zm134.61-2.07-5-14.75.92-.31,5,14.73Zm-153.2-4.45-1-.39,5.87-14.41.9.36Zm171.54-2.63L382.66,489l.88-.38,6.31,14.23Zm50.29-30.57-9.76-12.12.74-.6L440,472Zm14.76-13-10.8-11.21.68-.66,10.87,11.14Zm13.54-14.27-11.74-10.22.63-.72,11.79,10.15ZM479.74,430l-12.62-9.11.57-.78,12.65,9.05ZM94.84,384.4l-.38-.95,14.41-5.88.37.91Zm412.81-6.34-14.58-5.45.35-.92L508,377.1ZM88.17,365.88l-.3-1,14.88-4.55.28.93Zm425.58-6.53-15-4.15.26-.94,15,4.11ZM83.18,346.84l-.22-1,15.23-3.2.2.95Zm435-6.67-15.31-2.79.17-1,15.32,2.74ZM79.9,327.44l-.12-1,15.45-1.83.12.95Zm19.31-74.65-15.15-3.55.23-1,15.14,3.62Zm5-17.61L89.39,230.3l.33-1,14.76,4.95Zm6.52-17.1-14.28-6.19.42-.95,14.25,6.25Zm308.7-86.24-.8-.57,9-12.71.83.59ZM404,121.9l-.84-.49,7.8-13.47.89.52Zm-16.2-8.54-.88-.41,6.58-14.11.93.44Zm-161.17-6.15-5.54-14.55,1-.36,5.48,14.57Zm144.29-.9L370,106l5.3-14.64,1,.35ZM244,101.47l-4.22-15,1-.28,4.17,15Zm109.46-.69-.93-.25,4-15,1,.27Zm-91.65-3.47L259,82l1-.19,2.78,15.31Zm73.79-.46-.95-.17,2.6-15.34,1,.17ZM280,94.74l-1.51-15.49,1-.09,1.42,15.49Zm37.51-.23-.95-.08,1.23-15.51,1.05.08Zm-19.24-.72-.13-15.56h1l.05,15.56Z"></path>
    
	  
	  <path id="d15" class="cls-10" d="M113.91,146.85A240.63,240.63,0,0,1,275.36,60.24M60,322.49A239.56,239.56,0,0,0,92.94,423.4M331.36,539C415.51,528,486,473.7,519.72,399.15"></path>
  
	</g>
  
	
	<g id="caption">
		
    <g id="br3">
		
		<line id="l3" class="cls-10" x1="107.8" y1="422.65" x2="70" y2="470">
			<animate attributeName="x2" dur="6s" fill="freeze" repeatCount="indefinite" calcMode="spline" keyTimes="0; 0.5; 1;" keySplines="0.5 0 0.5 1; 0.5 0 0.5 1" values="70; 90; 70; "></animate>
		</line>
		
      	<circle id="dot3" class="cls-2" cx="70" cy="470" r="4">
			<animate attributeName="cx" dur="6s" fill="freeze" repeatCount="indefinite" calcMode="spline" keyTimes="0; 0.5; 1;" keySplines="0.5 0 0.5 1; 0.5 0 0.5 1" values="70; 90; 70; "></animate>
		</circle>
		
		
      <g id="c3">
        <circle class="cls-2" cx="107.8" cy="422.65" r="15.59"></circle>
        <circle class="cls-11" cx="107.8" cy="422.65" r="9.25"></circle>
      </g>
		
      <g id="b3">
		  <animateTransform attributeName="transform" type="translate" dur="6s" fill="freeze" repeatCount="indefinite" calcMode="spline" keyTimes="0; 0.5; 1;" keySplines="0.5 0 0.5 1; 0.5 0 0.5 1" values="0 0; 20 0; 0 0; "></animateTransform>
		  
        <path class="cls-2" d="M111.48,554.63,72.73,577a4.66,4.66,0,0,1-4.63,0L29.35,554.63a4.64,4.64,0,0,1-2.31-4V505.88a4.64,4.64,0,0,1,2.31-4L68.1,479.5a4.62,4.62,0,0,1,4.63,0l38.75,22.37a4.64,4.64,0,0,1,2.31,4v44.74A4.64,4.64,0,0,1,111.48,554.63Z"></path>
        <g>
          <polygon class="cls-12" points="70.41 486.48 63.15 490.67 70.41 494.87 77.68 490.67 70.41 486.48"></polygon>
          <polygon class="cls-13" points="63.15 490.67 63.15 499.06 70.41 503.25 70.41 494.87 63.15 490.67"></polygon>
          <polygon class="cls-14" points="77.68 490.67 77.68 499.06 70.41 503.25 70.41 494.87 77.68 490.67"></polygon>
        </g>
        <g>
          <polygon class="cls-12" points="84.82 494.86 77.56 499.05 84.82 503.25 92.09 499.05 84.82 494.86"></polygon>
          <polygon class="cls-13" points="77.56 499.05 77.56 507.44 84.82 511.64 84.82 503.25 77.56 499.05"></polygon>
          <polygon class="cls-14" points="92.09 499.05 92.09 507.44 84.82 511.64 84.82 503.25 92.09 499.05"></polygon>
        </g>
        <g>
          <polygon class="cls-12" points="70.37 503.12 63.1 507.32 70.37 511.51 77.63 507.32 70.37 503.12"></polygon>
          <polygon class="cls-13" points="63.1 507.32 63.1 515.71 70.37 519.9 70.37 511.51 63.1 507.32"></polygon>
          <polygon class="cls-14" points="77.63 507.32 77.63 515.71 70.37 519.9 70.37 511.51 77.63 507.32"></polygon>
        </g>
        <g>
          <polygon class="cls-12" points="55.91 511.51 48.64 515.71 55.91 519.9 63.17 515.71 55.91 511.51"></polygon>
          <polygon class="cls-15" points="48.64 515.71 48.64 524.1 55.91 528.29 55.91 519.9 48.64 515.71"></polygon>
          <polygon class="cls-14" points="63.17 515.71 63.17 524.1 55.91 528.29 55.91 519.9 63.17 515.71"></polygon>
        </g>
        <g>
          <polygon class="cls-12" points="84.83 511.43 77.56 515.63 84.83 519.82 92.09 515.63 84.83 511.43"></polygon>
          <polygon class="cls-13" points="77.56 515.63 77.56 524.02 84.83 528.21 84.83 519.82 77.56 515.63"></polygon>
          <polygon class="cls-16" points="92.09 515.63 92.09 524.02 84.83 528.21 84.83 519.82 92.09 515.63"></polygon>
        </g>
        <g>
          <polygon class="cls-12" points="99.29 503.12 92.03 507.32 99.29 511.51 106.56 507.32 99.29 503.12"></polygon>
          <polygon class="cls-13" points="92.03 507.32 92.03 515.71 99.29 519.9 99.29 511.51 92.03 507.32"></polygon>
          <polygon class="cls-16" points="106.56 507.32 106.56 515.71 99.29 519.9 99.29 511.51 106.56 507.32"></polygon>
        </g>
        <g>
          <polygon class="cls-12" points="70.37 519.82 63.1 524.02 70.37 528.21 77.63 524.02 70.37 519.82"></polygon>
          <polygon class="cls-15" points="63.1 524.02 63.1 532.4 70.37 536.6 70.37 528.21 63.1 524.02"></polygon>
          <polygon class="cls-16" points="77.63 524.02 77.63 532.4 70.37 536.6 70.37 528.21 77.63 524.02"></polygon>
        </g>
        <g>
          <polygon class="cls-17" points="84.83 528.13 77.56 532.33 84.83 536.52 92.09 532.33 84.83 528.13"></polygon>
          <polygon class="cls-13" points="77.56 532.33 77.56 540.72 84.83 544.91 84.83 536.52 77.56 532.33"></polygon>
          <polygon class="cls-16" points="92.09 532.33 92.09 540.72 84.83 544.91 84.83 536.52 92.09 532.33"></polygon>
        </g>
        <g>
          <polygon class="cls-17" points="99.29 519.82 92.03 524.02 99.29 528.21 106.56 524.02 99.29 519.82"></polygon>
          <polygon class="cls-13" points="92.03 524.02 92.03 532.4 99.29 536.6 99.29 528.21 92.03 524.02"></polygon>
          <polygon class="cls-16" points="106.56 524.02 106.56 532.4 99.29 536.6 99.29 528.21 106.56 524.02"></polygon>
        </g>
        <g>
          <polygon class="cls-17" points="84.72 544.89 77.45 549.09 84.72 553.28 91.98 549.09 84.72 544.89"></polygon>
          <polygon class="cls-13" points="77.45 549.09 77.45 557.48 84.72 561.67 84.72 553.28 77.45 549.09"></polygon>
          <polygon class="cls-16" points="91.98 549.09 91.98 557.48 84.72 561.67 84.72 553.28 91.98 549.09"></polygon>
        </g>
        <g>
          <polygon class="cls-17" points="99.18 536.59 91.91 540.78 99.18 544.97 106.44 540.78 99.18 536.59"></polygon>
          <polygon class="cls-13" points="91.91 540.78 91.91 549.17 99.18 553.36 99.18 544.97 91.91 540.78"></polygon>
          <polygon class="cls-16" points="106.44 540.78 106.44 549.17 99.18 553.36 99.18 544.97 106.44 540.78"></polygon>
        </g>
        <g>
          <polygon class="cls-17" points="70.37 536.52 63.1 540.72 70.37 544.91 77.63 540.72 70.37 536.52"></polygon>
          <polygon class="cls-15" points="63.1 540.72 63.1 549.1 70.37 553.3 70.37 544.91 63.1 540.72"></polygon>
          <polygon class="cls-16" points="77.63 540.72 77.63 549.1 70.37 553.3 70.37 544.91 77.63 540.72"></polygon>
        </g>
        <polygon class="cls-12" points="55.91 494.73 48.64 498.93 55.91 503.12 63.17 498.93 55.91 494.73"></polygon>
        <polygon class="cls-13" points="48.64 498.93 48.64 507.32 55.91 511.51 55.91 503.12 48.64 498.93"></polygon>
        <polygon class="cls-14" points="63.17 498.93 63.17 507.32 55.91 511.51 55.91 503.12 63.17 498.93"></polygon>
        <g>
          <polygon class="cls-12" points="41.44 503.12 34.18 507.32 41.44 511.51 48.71 507.32 41.44 503.12"></polygon>
          <polygon class="cls-15" points="34.18 507.32 34.18 515.71 41.44 519.9 41.44 511.51 34.18 507.32"></polygon>
          <polygon class="cls-14" points="48.71 507.32 48.71 515.71 41.44 519.9 41.44 511.51 48.71 507.32"></polygon>
        </g>
        <g>
          <polygon class="cls-17" points="55.91 528.29 48.64 532.48 55.91 536.68 63.17 532.48 55.91 528.29"></polygon>
          <polygon class="cls-15" points="48.64 532.48 48.64 540.87 55.91 545.07 55.91 536.68 48.64 532.48"></polygon>
          <polygon class="cls-14" points="63.17 532.48 63.17 540.87 55.91 545.07 55.91 536.68 63.17 532.48"></polygon>
        </g>
        <g>
          <polygon class="cls-17" points="41.44 519.9 34.18 524.1 41.44 528.29 48.71 524.1 41.44 519.9"></polygon>
          <polygon class="cls-15" points="34.18 524.1 34.18 532.48 41.44 536.68 41.44 528.29 34.18 524.1"></polygon>
          <polygon class="cls-14" points="48.71 524.1 48.71 532.48 41.44 536.68 41.44 528.29 48.71 524.1"></polygon>
        </g>
        <g>
          <polygon class="cls-17" points="55.91 545.07 48.64 549.26 55.91 553.46 63.17 549.26 55.91 545.07"></polygon>
          <polygon class="cls-15" points="48.64 549.26 48.64 557.65 55.91 561.85 55.91 553.46 48.64 549.26"></polygon>
          <polygon class="cls-14" points="63.17 549.26 63.17 557.65 55.91 561.85 55.91 553.46 63.17 549.26"></polygon>
        </g>
        <g>
          <polygon class="cls-17" points="70.37 553.38 63.1 557.57 70.37 561.77 77.63 557.57 70.37 553.38"></polygon>
          <polygon class="cls-15" points="63.1 557.57 63.1 565.96 70.37 570.15 70.37 561.77 63.1 557.57"></polygon>
          <polygon class="cls-16" points="77.63 557.57 77.63 565.96 70.37 570.15 70.37 561.77 77.63 557.57"></polygon>
        </g>
        <g>
          <polygon class="cls-17" points="41.44 536.68 34.18 540.87 41.44 545.07 48.71 540.87 41.44 536.68"></polygon>
          <polygon class="cls-15" points="34.18 540.87 34.18 549.26 41.44 553.46 41.44 545.07 34.18 540.87"></polygon>
          <polygon class="cls-14" points="48.71 540.87 48.71 549.26 41.44 553.46 41.44 545.07 48.71 540.87"></polygon>
        </g>
      </g>
    </g>
    
	<g id="br2">
		
		<line id="l2" class="cls-10" x1="271.9" y1="168.83" x2="332" y2="92">
			<animate attributeName="x2" dur="9s" fill="freeze" repeatCount="indefinite" calcMode="spline" keyTimes="0; 0.5; 1;" keySplines="0.5 0 0.5 1; 0.5 0 0.5 1" values="359; 332; 359;"></animate>
		</line>
		
      	<circle id="dot2" class="cls-2" cx="332" cy="92" r="4">
			<animate attributeName="cx" dur="9s" fill="freeze" repeatCount="indefinite" calcMode="spline" keyTimes="0; 0.5; 1;" keySplines="0.5 0 0.5 1; 0.5 0 0.5 1" values="359; 332; 359;"></animate>
		</circle>
		
      <g id="c2">
        <circle class="cls-2" cx="271.9" cy="168.82" r="15.59"></circle>
        <circle class="cls-11" cx="271.9" cy="168.82" r="9.25"></circle>
      </g>
      <g id="b2">
		  
		  <animateTransform attributeName="transform" type="translate" dur="9s" fill="freeze" repeatCount="indefinite" calcMode="spline" keyTimes="0; 0.5; 1;" keySplines="0.5 0 0.5 1; 0.5 0 0.5 1" values="27 0; 0 0; 27 0; "></animateTransform>
		  
        <path class="cls-2" d="M424.39,89.59l-38.09,22a5,5,0,0,1-5,0l-38.09-22a5,5,0,0,1-2.5-4.33v-44a5,5,0,0,1,2.5-4.33L381.3,15a5,5,0,0,1,5,0l38.09,22a5,5,0,0,1,2.5,4.33v44A5,5,0,0,1,424.39,89.59Z"></path>
        <g>
          <polygon class="cls-17" points="405.51 59.2 391.15 67.49 405.51 75.79 419.88 67.49 405.51 59.2"></polygon>
          <polygon class="cls-18" points="391.15 67.49 391.15 84.08 405.51 92.38 405.51 75.79 391.15 67.49"></polygon>
          <polygon class="cls-16" points="419.88 67.49 419.88 84.08 405.51 92.38 405.51 75.79 419.88 67.49"></polygon>
          <polygon class="cls-17" points="362.41 59.2 348.05 67.49 362.41 75.79 376.78 67.49 362.41 59.2"></polygon>
          <polygon class="cls-15" points="348.05 67.49 348.05 84.08 362.41 92.38 362.41 75.79 348.05 67.49"></polygon>
          <polygon class="cls-14" points="376.78 67.49 376.78 84.08 362.41 92.38 362.41 75.79 376.78 67.49"></polygon>
          <polygon class="cls-17" points="383.96 71.64 369.6 79.94 383.96 88.23 398.33 79.94 383.96 71.64"></polygon>
          <polygon class="cls-15" points="369.6 79.94 369.6 96.52 383.96 104.82 383.96 88.23 369.6 79.94"></polygon>
          <polygon class="cls-16" points="398.33 79.94 398.33 96.52 383.96 104.82 383.96 88.23 398.33 79.94"></polygon>
          <polygon class="cls-12" points="383.96 21.93 369.6 30.23 383.96 38.52 398.33 30.23 383.96 21.93"></polygon>
          <polygon class="cls-18" points="369.6 30.23 369.6 46.82 383.96 55.11 383.96 38.52 369.6 30.23"></polygon>
          <polygon class="cls-14" points="398.33 30.23 398.33 46.82 383.96 55.11 383.96 38.52 398.33 30.23"></polygon>
          <polygon class="cls-12" points="405.51 34.38 391.15 42.67 405.51 50.97 419.88 42.67 405.51 34.38"></polygon>
          <polygon class="cls-18" points="391.15 42.67 391.15 59.26 405.51 67.56 405.51 50.97 391.15 42.67"></polygon>
          <polygon class="cls-16" points="419.88 42.67 419.88 59.26 405.51 67.56 405.51 50.97 419.88 42.67"></polygon>
          <polygon class="cls-12" points="362.41 34.38 348.05 42.67 362.41 50.97 376.78 42.67 362.41 34.38"></polygon>
          <polygon class="cls-15" points="348.05 42.67 348.05 59.26 362.41 67.56 362.41 50.97 348.05 42.67"></polygon>
          <polygon class="cls-14" points="376.78 42.67 376.78 59.26 362.41 67.56 362.41 50.97 376.78 42.67"></polygon>
          <polygon class="cls-12" points="383.96 46.82 369.6 55.11 383.96 63.41 398.33 55.11 383.96 46.82"></polygon>
          <polygon class="cls-16" points="398.33 55.11 398.33 71.7 383.96 80 383.96 63.41 398.33 55.11"></polygon>
          <polygon class="cls-15" points="369.6 55.11 369.6 71.7 383.96 80 383.96 63.41 369.6 55.11"></polygon>
        </g>
      </g>
    </g>
    
	<g id="br1">
		
		<line id="l1" class="cls-10" x1="300" y1="300" x2="385" y2="336">
			<animate attributeName="y2" dur="5s" fill="freeze" repeatCount="indefinite" calcMode="spline" keyTimes="0; 0.5; 1;" keySplines="0.5 0 0.5 1; 0.5 0 0.5 1" values="336; 351; 336;"></animate>
		</line>
		
      	<circle id="dot1" class="cls-2" cx="385" cy="336" r="4">
			<animate attributeName="cy" dur="5s" fill="freeze" repeatCount="indefinite" calcMode="spline" keyTimes="0; 0.5; 1;" keySplines="0.5 0 0.5 1; 0.5 0 0.5 1" values="336; 351; 336;"></animate>
		</circle>
		
		
      <g id="c1">
        <circle class="cls-2" cx="300" cy="300" r="15.59"></circle>
        <circle class="cls-11" cx="300" cy="300" r="9.25"></circle>
      </g>
      <g id="b1">
		  
		  <animateTransform attributeName="transform" type="translate" dur="5s" fill="freeze" repeatCount="indefinite" calcMode="spline" keyTimes="0; 0.5; 1;" keySplines="0.5 0 0.5 1; 0.5 0 0.5 1" values="0 0; 0 15; 0 0; "></animateTransform>
		  
        <path class="cls-2" d="M476.68,390.28l-38.09,22a5,5,0,0,1-5,0l-38.08-22A5,5,0,0,1,393,386V342a5,5,0,0,1,2.5-4.33l38.08-22a5,5,0,0,1,5,0l38.09,22a5,5,0,0,1,2.5,4.33v44A5,5,0,0,1,476.68,390.28Z"></path>
        <polygon class="cls-15" points="436.25 405.54 436.25 397.24 407.52 380.65 407.52 347.48 400.34 343.33 400.34 384.8 436.25 405.54"></polygon>
        <polygon class="cls-19" points="407.52 347.48 436.25 330.89 464.99 347.48 472.17 343.33 436.25 322.59 400.34 343.33 407.52 347.48"></polygon>
        <polygon class="cls-20" points="464.99 380.65 436.25 397.24 436.25 405.54 472.17 384.8 472.17 343.33 464.99 347.48 464.99 380.65"></polygon>
        <polygon class="cls-19" points="436.25 397.24 464.99 380.65 436.25 364.07 407.52 380.65 436.25 397.24"></polygon>
        <polygon class="cls-21" points="464.99 380.65 464.99 347.48 436.25 330.89 436.25 364.07 464.99 380.65"></polygon>
        <polygon class="cls-16" points="407.52 380.65 407.52 347.48 436.25 330.89 436.25 364.07 407.52 380.65"></polygon>
        <polygon class="cls-11" points="436.25 347.48 421.89 355.77 436.25 364.07 450.62 355.77 436.25 347.48"></polygon>
        <polygon class="cls-22" points="421.89 355.77 421.89 372.36 436.25 380.65 436.25 364.07 421.89 355.77"></polygon>
        <polygon class="cls-23" points="450.62 355.77 450.62 372.36 436.25 380.65 436.25 364.07 450.62 355.77"></polygon>
      </g>
    </g>
  
	</g>
</svg>
