<svg id="Layer_1" data-name="Layer 1" xmlns="http://www.w3.org/2000/svg" width="697" height="600" viewBox="0 0 697 600">
  <defs>
    <style>
		
		#fondo {#visibility:hidden;}
		
		/* Animazioni */
		#cuore {
  		animation: aniPoly 5s infinite alternate;
		}
	@keyframes aniPoly{
  		to	{
    		transform: translateY(30px);
  			}
		}
		
		#eleOr {
  		animation: aniEleO 5s infinite alternate;
		}
	@keyframes aniEleO{
  		to	{
    		transform: translateX(80px);
  			}
		}
	#eleVer {
  		animation: aniEleV 5s infinite alternate;
		}
	@keyframes aniEleV{
  		to	{
    		transform: translateY(80px);
  			}
		}
		
		#q1  {
  		animation: aniLuce 5s infinite alternate;
		}
		#q3  {
  		animation: aniLuce 8s infinite alternate;
		}
		#q4  {
  		animation: aniLuce 5s 2s infinite alternate;
		}
	@keyframes aniLuce{
  		0%	{
		stroke: #fff;
		stroke-width: 0.5;
  			}
		70%	{
		stroke: #fff;
		stroke-width: 0.5;
  			}
		100%	{
		stroke: #fff;
		stroke-width: 1.5;
  			}
		}
		
		
		
		
		
		
		
		
	.eleL1  {
  		animation: aniLuce2 7s 3s infinite alternate;
		}
	@keyframes aniLuce2{
  		0%	{
		stroke: #fff;
		stroke-width: 1;
		stroke-miterlimit: 10;
  			}
		80%	{
		stroke: #fff;
		stroke-width: 1;
		stroke-miterlimit: 10;
  			}
		100%	{
		stroke: #fff;
		stroke-width: 2;
		stroke-miterlimit: 10;
  			}
		}
		.eleL2  {
  		animation: aniLuce3 7s infinite alternate;
		}
	@keyframes aniLuce3{
  		0%	{
		stroke: #fff;
		stroke-width: 1;
		stroke-miterlimit: 10;
  			}
		80%	{
		stroke: #fff;
		stroke-width: 1;
		stroke-miterlimit: 10;
  			}
		100%	{
		stroke: #fff;
		stroke-width: 2;
		stroke-miterlimit: 10;
  			}
		}	
		
		#pun1 {opacity:0.5;}
		#pun2 {opacity:0.8;}
	
		#pun1 {
		transform-origin: 50% 50%;
  animation: zoom 4s infinite alternate;
}
@keyframes zoom{
  to{
    transform-origin: 50% 50%;
    transform: scale(1.6);
  }
}
		#pun2 {
		transform-origin: 50% 50%;
  animation: zoom2 4s infinite alternate;
}
@keyframes zoom2{
  to{
    transform-origin: 50% 50%;
    transform: scale(1.3);
  }
}
			 
		
		#punSt  {
  		animation: aniLuce4 7s 2s infinite alternate;
		}
	@keyframes aniLuce4{
  		0%	{
		/*opacity:0.5;*/
		stroke-width: 1;
  			}
		80%	{
		/*opacity:0.5;*/
		stroke-width: 1;
  			}
		100%	{
		/*opacity:0.9;*/
		stroke-width: 2;
  			}
		}
		
		.cubo {
			animation: su 6s 0s infinite;
		}
		.cubo2 {
			animation: su 6s -1.5s infinite;
		}
		@keyframes su {
		0%	{
			transform: translateY(-3px);
  				}
  		50%	{
			transform: translateY(3px);
  				}
		100%	{
			transform: translateY(-3px);
  				}
		}
		
		#molecola {
			animation: su 8s 0s infinite;
		}
		@keyframes su {
		0%	{
			transform: translateY(-5px);
  				}
  		50%	{
			transform: translateY(5px);
  				}
		100%	{
			transform: translateY(-5px);
  				}
		}
		
		#invo {
		transform-origin: 45% 50%;
			animation: gi 150s 0s infinite linear;
		}
		@keyframes gi {
		to	{
			transform: rotate(360deg);
  				}
		}
		
					

		
		
		
		
		
		/* Style */
		
		.bia-fill {
		fill: #fff;
		}
		
		.bia-stroke {
		fill: none;
		stroke: #fff;
		stroke-width: 0.5;
		}
		
		#sfere {
		opacity: 0.7;
		}
		
		
      .cls-1 {
        fill: #4d4d4d;
      }
		.cls-2, .cls-3 {
        fill: #fff;
      }

      .cls-2 {
        opacity: 0.15;
      }

      .cls-3 {
        opacity: 0.5;
      }

      .cls-4 {
        fill: none;
        stroke: #fff;
        stroke-miterlimit: 10;
      }
	
		 .cls-7 {
        fill: #fff;
      }

      .cls-8 {
        fill: #f59c26;
      }

      .cls-9 {
        fill: #f38823;
      }

      .cls-10 {
        fill: #c4651b;
      }

      .cls-11 {
        fill: none;
        stroke: #fff;
        stroke-linecap: square;
        stroke-miterlimit: 10;
        stroke-width: 1.7;
      }
		
		.cls-19 {
        fill: #c98034;
      }

      .cls-20 {
        fill: #bf5f32;

      }

      .cls-21 {
        fill: #b5332b;
      }

      .cls-16 {
        fill: #b5332b;
      }

      .cls-17 {
        fill: #a02327;
      }

      .cls-18 {
        fill: #711821;
      }
		
		
		
		
		
		#dotsSx, #dotsDx {
		opacity: 0.15;
		fill: #fff;	
		} 
	 #eletr {
		fill: none;
		stroke: #fff;
		stroke-width: 1;
		stroke-miterlimit: 10;
		}
	#poly {
		opacity: 1;
		fill: #fff;	
		}
	#eleSt {
		opacity: 0.5;
		}	
		
		.st0 {
		/* fill:#FFFFFF; */
		fill: none;
		stroke: #fff;
		stroke-width: 1;
		stroke-miterlimit: 10;
		}
		
		#pun1, #pun2 { 
			transform-origin: 50% 50%;
  			transform-box: fill-box;
		}	
		
		#pun1 {opacity:0.5;}
		#pun2 {opacity:0.8;}

    </style>
  </defs>

	<rect id="fondo" class="cls-1" width="697" height="600"></rect>
	
		
  <path id="dotsDx" class="cls-2" d="M249.7,102.2a3.8,3.8,0,0,1,0,7.6,3.8,3.8,0,1,1,0-7.6Zm22.9,0a3.8,3.8,0,0,1,0,7.6,3.8,3.8,0,0,1,0-7.6Zm22.9,0a3.8,3.8,0,1,1,0,7.6,3.8,3.8,0,0,1,0-7.6Zm23,0a3.8,3.8,0,0,1,0,7.6,3.8,3.8,0,0,1,0-7.6Zm22.9,0a3.8,3.8,0,1,1,0,7.6,3.8,3.8,0,0,1,0-7.6Zm23,0a3.8,3.8,0,1,1-3.8,3.8A3.8,3.8,0,0,1,364.4,102.2Zm22.9,0a3.8,3.8,0,1,1,0,7.6,3.8,3.8,0,0,1,0-7.6Zm22.9,0a3.8,3.8,0,1,1,0,7.6,3.8,3.8,0,0,1,0-7.6Zm23,0a3.8,3.8,0,1,1-3.8,3.8A3.8,3.8,0,0,1,433.2,102.2Zm22.9,0a3.8,3.8,0,0,1,0,7.6,3.8,3.8,0,0,1,0-7.6Zm23,0a3.8,3.8,0,1,1-3.8,3.8A3.8,3.8,0,0,1,479.1,102.2Zm22.9,0a3.8,3.8,0,1,1,0,7.6,3.8,3.8,0,0,1,0-7.6Zm23,0a3.8,3.8,0,1,1-3.8,3.8A3.8,3.8,0,0,1,525,102.2Zm22.9,0a3.8,3.8,0,1,1-3.8,3.8A3.8,3.8,0,0,1,547.9,102.2Zm22.9,0a3.8,3.8,0,1,1,0,7.6,3.8,3.8,0,0,1,0-7.6Zm23,0A3.8,3.8,0,1,1,590,106,3.8,3.8,0,0,1,593.8,102.2Zm22.9,0a3.8,3.8,0,0,1,0,7.6,3.8,3.8,0,0,1,0-7.6Zm23,0a3.8,3.8,0,1,1-3.8,3.8A3.8,3.8,0,0,1,639.7,102.2Zm22.9,0a3.8,3.8,0,0,1,0,7.6,3.8,3.8,0,0,1,0-7.6Zm-412.9,23a3.8,3.8,0,0,1,0,7.5,3.8,3.8,0,1,1,0-7.5Zm22.9,0a3.8,3.8,0,0,1,0,7.5,3.8,3.8,0,1,1,0-7.5Zm22.9,0a3.8,3.8,0,1,1,0,7.5,3.8,3.8,0,0,1,0-7.5Zm23,0a3.8,3.8,0,0,1,0,7.5,3.8,3.8,0,1,1,0-7.5Zm22.9,0a3.8,3.8,0,1,1,0,7.5,3.8,3.8,0,0,1,0-7.5Zm23,0a3.8,3.8,0,0,1,0,7.5,3.8,3.8,0,1,1,0-7.5Zm22.9,0a3.8,3.8,0,1,1,0,7.5,3.8,3.8,0,0,1,0-7.5Zm22.9,0a3.8,3.8,0,1,1,0,7.5,3.8,3.8,0,0,1,0-7.5Zm23,0a3.8,3.8,0,0,1,0,7.5,3.8,3.8,0,1,1,0-7.5Zm22.9,0a3.8,3.8,0,1,1,0,7.5,3.8,3.8,0,0,1,0-7.5Zm23,0a3.8,3.8,0,0,1,0,7.5,3.8,3.8,0,1,1,0-7.5Zm22.9,0a3.8,3.8,0,1,1,0,7.5,3.8,3.8,0,0,1,0-7.5Zm23,0a3.8,3.8,0,0,1,0,7.5,3.8,3.8,0,1,1,0-7.5Zm22.9,0a3.8,3.8,0,0,1,0,7.5,3.8,3.8,0,1,1,0-7.5Zm22.9,0a3.8,3.8,0,1,1,0,7.5,3.8,3.8,0,0,1,0-7.5Zm23,0a3.8,3.8,0,0,1,0,7.5,3.8,3.8,0,1,1,0-7.5Zm22.9,0a3.8,3.8,0,1,1,0,7.5,3.8,3.8,0,0,1,0-7.5Zm23,0a3.8,3.8,0,0,1,0,7.5,3.8,3.8,0,1,1,0-7.5Zm22.9,0a3.8,3.8,0,1,1,0,7.5,3.8,3.8,0,0,1,0-7.5ZM249.7,148.1a3.8,3.8,0,0,1,0,7.6,3.8,3.8,0,0,1,0-7.6Zm22.9,0a3.8,3.8,0,0,1,0,7.6,3.8,3.8,0,0,1,0-7.6Zm22.9,0a3.8,3.8,0,1,1,0,7.6,3.8,3.8,0,0,1,0-7.6Zm23,0a3.8,3.8,0,0,1,0,7.6,3.8,3.8,0,0,1,0-7.6Zm22.9,0a3.8,3.8,0,1,1,0,7.6,3.8,3.8,0,0,1,0-7.6Zm23,0a3.8,3.8,0,1,1-3.8,3.8A3.8,3.8,0,0,1,364.4,148.1Zm22.9,0a3.8,3.8,0,1,1,0,7.6,3.8,3.8,0,0,1,0-7.6Zm22.9,0a3.8,3.8,0,1,1,0,7.6,3.8,3.8,0,0,1,0-7.6Zm23,0a3.8,3.8,0,1,1-3.8,3.8A3.8,3.8,0,0,1,433.2,148.1Zm22.9,0a3.8,3.8,0,0,1,0,7.6,3.8,3.8,0,0,1,0-7.6Zm23,0a3.8,3.8,0,1,1-3.8,3.8A3.8,3.8,0,0,1,479.1,148.1Zm22.9,0a3.8,3.8,0,1,1,0,7.6,3.8,3.8,0,0,1,0-7.6Zm23,0a3.8,3.8,0,1,1-3.8,3.8A3.8,3.8,0,0,1,525,148.1Zm22.9,0a3.8,3.8,0,1,1-3.8,3.8A3.8,3.8,0,0,1,547.9,148.1Zm22.9,0a3.8,3.8,0,1,1,0,7.6,3.8,3.8,0,0,1,0-7.6Zm23,0a3.8,3.8,0,1,1-3.8,3.8A3.8,3.8,0,0,1,593.8,148.1Zm22.9,0a3.8,3.8,0,0,1,0,7.6,3.8,3.8,0,0,1,0-7.6Zm23,0a3.8,3.8,0,1,1-3.8,3.8A3.8,3.8,0,0,1,639.7,148.1Zm22.9,0a3.8,3.8,0,0,1,0,7.6,3.8,3.8,0,0,1,0-7.6Zm-412.9,23a3.8,3.8,0,0,1,0,7.5,3.8,3.8,0,1,1,0-7.5Zm22.9,0a3.8,3.8,0,0,1,0,7.5,3.8,3.8,0,1,1,0-7.5Zm22.9,0a3.8,3.8,0,1,1,0,7.5,3.8,3.8,0,0,1,0-7.5Zm23,0a3.8,3.8,0,0,1,0,7.5,3.8,3.8,0,1,1,0-7.5Zm22.9,0a3.8,3.8,0,1,1,0,7.5,3.8,3.8,0,0,1,0-7.5Zm23,0a3.8,3.8,0,0,1,0,7.5,3.8,3.8,0,1,1,0-7.5Zm22.9,0a3.8,3.8,0,1,1,0,7.5,3.8,3.8,0,0,1,0-7.5Zm22.9,0a3.8,3.8,0,1,1,0,7.5,3.8,3.8,0,0,1,0-7.5Zm23,0a3.8,3.8,0,0,1,0,7.5,3.8,3.8,0,1,1,0-7.5Zm22.9,0a3.8,3.8,0,1,1,0,7.5,3.8,3.8,0,0,1,0-7.5Zm23,0a3.8,3.8,0,0,1,0,7.5,3.8,3.8,0,1,1,0-7.5Zm22.9,0a3.8,3.8,0,1,1,0,7.5,3.8,3.8,0,0,1,0-7.5Zm23,0a3.8,3.8,0,0,1,0,7.5,3.8,3.8,0,1,1,0-7.5Zm22.9,0a3.8,3.8,0,0,1,0,7.5,3.8,3.8,0,1,1,0-7.5Zm22.9,0a3.8,3.8,0,1,1,0,7.5,3.8,3.8,0,0,1,0-7.5Zm23,0a3.8,3.8,0,0,1,0,7.5,3.8,3.8,0,1,1,0-7.5Zm22.9,0a3.8,3.8,0,1,1,0,7.5,3.8,3.8,0,0,1,0-7.5Zm23,0a3.8,3.8,0,0,1,0,7.5,3.8,3.8,0,1,1,0-7.5Zm22.9,0a3.8,3.8,0,1,1,0,7.5,3.8,3.8,0,0,1,0-7.5ZM249.7,194a3.8,3.8,0,0,1,0,7.5,3.8,3.8,0,1,1,0-7.5Zm22.9,0a3.8,3.8,0,0,1,0,7.5,3.8,3.8,0,1,1,0-7.5Zm22.9,0a3.8,3.8,0,1,1,0,7.5,3.8,3.8,0,0,1,0-7.5Zm23,0a3.8,3.8,0,0,1,0,7.5,3.8,3.8,0,1,1,0-7.5Zm22.9,0a3.8,3.8,0,1,1,0,7.5,3.8,3.8,0,0,1,0-7.5Zm23,0a3.8,3.8,0,0,1,0,7.5,3.8,3.8,0,1,1,0-7.5Zm22.9,0a3.8,3.8,0,1,1,0,7.5,3.8,3.8,0,0,1,0-7.5Zm22.9,0a3.8,3.8,0,1,1,0,7.5,3.8,3.8,0,0,1,0-7.5Zm23,0a3.8,3.8,0,0,1,0,7.5,3.8,3.8,0,1,1,0-7.5Zm22.9,0a3.8,3.8,0,1,1,0,7.5,3.8,3.8,0,0,1,0-7.5Zm23,0a3.8,3.8,0,0,1,0,7.5,3.8,3.8,0,1,1,0-7.5Zm22.9,0a3.8,3.8,0,1,1,0,7.5,3.8,3.8,0,0,1,0-7.5Zm23,0a3.8,3.8,0,0,1,0,7.5,3.8,3.8,0,1,1,0-7.5Zm22.9,0a3.8,3.8,0,0,1,0,7.5,3.8,3.8,0,1,1,0-7.5Zm22.9,0a3.8,3.8,0,1,1,0,7.5,3.8,3.8,0,0,1,0-7.5Zm23,0a3.8,3.8,0,0,1,0,7.5,3.8,3.8,0,1,1,0-7.5Zm22.9,0a3.8,3.8,0,1,1,0,7.5,3.8,3.8,0,0,1,0-7.5Zm23,0a3.8,3.8,0,0,1,0,7.5,3.8,3.8,0,1,1,0-7.5Zm22.9,0a3.8,3.8,0,1,1,0,7.5,3.8,3.8,0,0,1,0-7.5ZM249.7,216.9a3.7,3.7,0,0,1,3.7,3.8,3.6,3.6,0,0,1-3.7,3.7,3.7,3.7,0,0,1-3.8-3.7A3.8,3.8,0,0,1,249.7,216.9Zm22.9,0a3.7,3.7,0,0,1,3.7,3.8,3.6,3.6,0,0,1-3.7,3.7,3.7,3.7,0,0,1-3.8-3.7A3.8,3.8,0,0,1,272.6,216.9Zm22.9,0a3.8,3.8,0,0,1,3.8,3.8,3.7,3.7,0,0,1-3.8,3.7,3.6,3.6,0,0,1-3.7-3.7A3.7,3.7,0,0,1,295.5,216.9Zm23,0a3.7,3.7,0,0,1,3.7,3.8,3.6,3.6,0,0,1-3.7,3.7,3.7,3.7,0,0,1-3.8-3.7A3.8,3.8,0,0,1,318.5,216.9Zm22.9,0a3.8,3.8,0,0,1,3.8,3.8,3.7,3.7,0,0,1-3.8,3.7,3.6,3.6,0,0,1-3.7-3.7A3.7,3.7,0,0,1,341.4,216.9Zm23,0a3.8,3.8,0,0,1,3.7,3.8,3.8,3.8,0,0,1-7.5,0A3.8,3.8,0,0,1,364.4,216.9Zm22.9,0a3.8,3.8,0,0,1,3.8,3.8,3.7,3.7,0,0,1-3.8,3.7,3.6,3.6,0,0,1-3.7-3.7A3.7,3.7,0,0,1,387.3,216.9Zm22.9,0a3.8,3.8,0,0,1,3.8,3.8,3.7,3.7,0,0,1-3.8,3.7,3.6,3.6,0,0,1-3.7-3.7A3.7,3.7,0,0,1,410.2,216.9Zm23,0a3.8,3.8,0,0,1,3.7,3.8,3.8,3.8,0,0,1-7.5,0A3.8,3.8,0,0,1,433.2,216.9Zm22.9,0a3.8,3.8,0,0,1,3.8,3.8,3.7,3.7,0,0,1-3.8,3.7,3.6,3.6,0,0,1-3.7-3.7A3.7,3.7,0,0,1,456.1,216.9Zm23,0a3.8,3.8,0,0,1,3.7,3.8,3.8,3.8,0,0,1-7.5,0A3.8,3.8,0,0,1,479.1,216.9Zm22.9,0a3.8,3.8,0,0,1,3.8,3.8,3.7,3.7,0,0,1-3.8,3.7,3.6,3.6,0,0,1-3.7-3.7A3.7,3.7,0,0,1,502,216.9Zm23,0a3.8,3.8,0,0,1,3.7,3.8,3.8,3.8,0,0,1-7.5,0A3.8,3.8,0,0,1,525,216.9Zm22.9,0a3.8,3.8,0,0,1,3.7,3.8,3.8,3.8,0,0,1-7.5,0A3.8,3.8,0,0,1,547.9,216.9Zm22.9,0a3.8,3.8,0,0,1,3.8,3.8,3.7,3.7,0,0,1-3.8,3.7,3.6,3.6,0,0,1-3.7-3.7A3.7,3.7,0,0,1,570.8,216.9Zm23,0a3.8,3.8,0,0,1,3.7,3.8,3.8,3.8,0,0,1-7.5,0A3.8,3.8,0,0,1,593.8,216.9Zm22.9,0a3.8,3.8,0,0,1,3.8,3.8,3.7,3.7,0,0,1-3.8,3.7,3.6,3.6,0,0,1-3.7-3.7A3.7,3.7,0,0,1,616.7,216.9Zm23,0a3.8,3.8,0,0,1,3.7,3.8,3.8,3.8,0,0,1-7.5,0A3.8,3.8,0,0,1,639.7,216.9Zm22.9,0a3.8,3.8,0,0,1,3.8,3.8,3.7,3.7,0,0,1-3.8,3.7,3.6,3.6,0,0,1-3.7-3.7A3.7,3.7,0,0,1,662.6,216.9Zm-412.9,23a3.8,3.8,0,0,1,0,7.5,3.8,3.8,0,1,1,0-7.5Zm22.9,0a3.8,3.8,0,0,1,0,7.5,3.8,3.8,0,1,1,0-7.5Zm22.9,0a3.8,3.8,0,1,1,0,7.5,3.8,3.8,0,0,1,0-7.5Zm23,0a3.8,3.8,0,0,1,0,7.5,3.8,3.8,0,1,1,0-7.5Zm22.9,0a3.8,3.8,0,1,1,0,7.5,3.8,3.8,0,0,1,0-7.5Zm23,0a3.8,3.8,0,0,1,0,7.5,3.8,3.8,0,1,1,0-7.5Zm22.9,0a3.8,3.8,0,1,1,0,7.5,3.8,3.8,0,0,1,0-7.5Zm22.9,0a3.8,3.8,0,1,1,0,7.5,3.8,3.8,0,0,1,0-7.5Zm23,0a3.8,3.8,0,0,1,0,7.5,3.8,3.8,0,1,1,0-7.5Zm22.9,0a3.8,3.8,0,1,1,0,7.5,3.8,3.8,0,0,1,0-7.5Zm23,0a3.8,3.8,0,0,1,0,7.5,3.8,3.8,0,1,1,0-7.5Zm22.9,0a3.8,3.8,0,1,1,0,7.5,3.8,3.8,0,0,1,0-7.5Zm23,0a3.8,3.8,0,0,1,0,7.5,3.8,3.8,0,1,1,0-7.5Zm22.9,0a3.8,3.8,0,0,1,0,7.5,3.8,3.8,0,1,1,0-7.5Zm22.9,0a3.8,3.8,0,1,1,0,7.5,3.8,3.8,0,0,1,0-7.5Zm23,0a3.8,3.8,0,0,1,0,7.5,3.8,3.8,0,1,1,0-7.5Zm22.9,0a3.8,3.8,0,1,1,0,7.5,3.8,3.8,0,0,1,0-7.5Zm23,0a3.8,3.8,0,0,1,0,7.5,3.8,3.8,0,1,1,0-7.5Zm22.9,0a3.8,3.8,0,1,1,0,7.5,3.8,3.8,0,0,1,0-7.5ZM249.7,262.8a3.7,3.7,0,0,1,3.7,3.8,3.6,3.6,0,0,1-3.7,3.7,3.7,3.7,0,0,1-3.8-3.7A3.8,3.8,0,0,1,249.7,262.8Zm22.9,0a3.7,3.7,0,0,1,3.7,3.8,3.6,3.6,0,0,1-3.7,3.7,3.7,3.7,0,0,1-3.8-3.7A3.8,3.8,0,0,1,272.6,262.8Zm22.9,0a3.8,3.8,0,0,1,3.8,3.8,3.7,3.7,0,0,1-3.8,3.7,3.6,3.6,0,0,1-3.7-3.7A3.7,3.7,0,0,1,295.5,262.8Zm23,0a3.7,3.7,0,0,1,3.7,3.8,3.6,3.6,0,0,1-3.7,3.7,3.7,3.7,0,0,1-3.8-3.7A3.8,3.8,0,0,1,318.5,262.8Zm22.9,0a3.8,3.8,0,0,1,3.8,3.8,3.7,3.7,0,0,1-3.8,3.7,3.6,3.6,0,0,1-3.7-3.7A3.7,3.7,0,0,1,341.4,262.8Zm23,0a3.8,3.8,0,0,1,3.7,3.8,3.8,3.8,0,0,1-7.5,0A3.8,3.8,0,0,1,364.4,262.8Zm22.9,0a3.8,3.8,0,0,1,3.8,3.8,3.7,3.7,0,0,1-3.8,3.7,3.6,3.6,0,0,1-3.7-3.7A3.7,3.7,0,0,1,387.3,262.8Zm22.9,0a3.8,3.8,0,0,1,3.8,3.8,3.7,3.7,0,0,1-3.8,3.7,3.6,3.6,0,0,1-3.7-3.7A3.7,3.7,0,0,1,410.2,262.8Zm23,0a3.8,3.8,0,0,1,3.7,3.8,3.8,3.8,0,0,1-7.5,0A3.8,3.8,0,0,1,433.2,262.8Zm22.9,0a3.8,3.8,0,0,1,3.8,3.8,3.7,3.7,0,0,1-3.8,3.7,3.6,3.6,0,0,1-3.7-3.7A3.7,3.7,0,0,1,456.1,262.8Zm23,0a3.8,3.8,0,0,1,3.7,3.8,3.8,3.8,0,0,1-7.5,0A3.8,3.8,0,0,1,479.1,262.8Zm22.9,0a3.8,3.8,0,0,1,3.8,3.8,3.7,3.7,0,0,1-3.8,3.7,3.6,3.6,0,0,1-3.7-3.7A3.7,3.7,0,0,1,502,262.8Zm23,0a3.8,3.8,0,0,1,3.7,3.8,3.8,3.8,0,0,1-7.5,0A3.8,3.8,0,0,1,525,262.8Zm22.9,0a3.8,3.8,0,0,1,3.7,3.8,3.8,3.8,0,0,1-7.5,0A3.8,3.8,0,0,1,547.9,262.8Zm22.9,0a3.8,3.8,0,0,1,3.8,3.8,3.7,3.7,0,0,1-3.8,3.7,3.6,3.6,0,0,1-3.7-3.7A3.7,3.7,0,0,1,570.8,262.8Zm23,0a3.8,3.8,0,0,1,3.7,3.8,3.8,3.8,0,0,1-7.5,0A3.8,3.8,0,0,1,593.8,262.8Zm22.9,0a3.8,3.8,0,0,1,3.8,3.8,3.7,3.7,0,0,1-3.8,3.7,3.6,3.6,0,0,1-3.7-3.7A3.7,3.7,0,0,1,616.7,262.8Zm23,0a3.8,3.8,0,0,1,3.7,3.8,3.8,3.8,0,0,1-7.5,0A3.8,3.8,0,0,1,639.7,262.8Zm22.9,0a3.8,3.8,0,0,1,3.8,3.8,3.7,3.7,0,0,1-3.8,3.7,3.6,3.6,0,0,1-3.7-3.7A3.7,3.7,0,0,1,662.6,262.8Z"></path>
  
	
	<path id="dotsSx" class="cls-2" d="M36.8,515.3a3.8,3.8,0,1,1-3.7,3.7A3.8,3.8,0,0,1,36.8,515.3Zm0-23a3.8,3.8,0,0,1,3.8,3.8,3.8,3.8,0,0,1-7.5,0A3.8,3.8,0,0,1,36.8,492.3Zm0-22.9a3.8,3.8,0,1,1-3.7,3.7A3.8,3.8,0,0,1,36.8,469.4Zm0-22.9a3.8,3.8,0,1,1-3.7,3.7A3.8,3.8,0,0,1,36.8,446.5Zm0-23a3.8,3.8,0,0,1,3.8,3.8,3.8,3.8,0,0,1-7.5,0A3.8,3.8,0,0,1,36.8,423.5Zm0-22.9a3.8,3.8,0,1,1-3.7,3.7A3.8,3.8,0,0,1,36.8,400.6Zm0-23a3.8,3.8,0,0,1,3.8,3.8,3.8,3.8,0,0,1-7.5,0A3.8,3.8,0,0,1,36.8,377.6Zm0-22.9a3.8,3.8,0,1,1-3.7,3.7A3.8,3.8,0,0,1,36.8,354.7Zm0-23a3.8,3.8,0,0,1,3.8,3.8,3.8,3.8,0,0,1-7.5,0A3.8,3.8,0,0,1,36.8,331.7Zm0-22.9a3.8,3.8,0,0,1,3.8,3.8,3.8,3.8,0,0,1-7.5,0A3.8,3.8,0,0,1,36.8,308.8Zm0-22.9a3.8,3.8,0,1,1-3.7,3.7A3.8,3.8,0,0,1,36.8,285.9Zm0-23a3.8,3.8,0,0,1,3.8,3.8,3.8,3.8,0,0,1-7.5,0A3.8,3.8,0,0,1,36.8,262.9Zm0-22.9a3.8,3.8,0,1,1-3.7,3.7A3.8,3.8,0,0,1,36.8,240Zm0-23a3.8,3.8,0,1,1-3.7,3.8A3.8,3.8,0,0,1,36.8,217ZM59.7,515.3A3.8,3.8,0,1,1,56,519,3.8,3.8,0,0,1,59.7,515.3Zm0-23a3.8,3.8,0,0,1,3.8,3.8,3.8,3.8,0,0,1-7.5,0A3.8,3.8,0,0,1,59.7,492.3Zm0-22.9a3.8,3.8,0,1,1-3.7,3.7A3.8,3.8,0,0,1,59.7,469.4Zm0-22.9a3.8,3.8,0,1,1-3.7,3.7A3.8,3.8,0,0,1,59.7,446.5Zm0-23a3.8,3.8,0,0,1,3.8,3.8,3.8,3.8,0,0,1-7.5,0A3.8,3.8,0,0,1,59.7,423.5Zm0-22.9a3.8,3.8,0,1,1-3.7,3.7A3.8,3.8,0,0,1,59.7,400.6Zm0-23a3.8,3.8,0,0,1,3.8,3.8,3.8,3.8,0,0,1-7.5,0A3.8,3.8,0,0,1,59.7,377.6Zm0-22.9a3.8,3.8,0,1,1-3.7,3.7A3.8,3.8,0,0,1,59.7,354.7Zm0-23a3.8,3.8,0,0,1,3.8,3.8,3.8,3.8,0,0,1-7.5,0A3.8,3.8,0,0,1,59.7,331.7Zm0-22.9a3.8,3.8,0,0,1,3.8,3.8,3.8,3.8,0,0,1-7.5,0A3.8,3.8,0,0,1,59.7,308.8Zm0-22.9a3.8,3.8,0,1,1-3.7,3.7A3.8,3.8,0,0,1,59.7,285.9Zm0-23a3.8,3.8,0,0,1,3.8,3.8,3.8,3.8,0,0,1-7.5,0A3.8,3.8,0,0,1,59.7,262.9Zm0-22.9a3.8,3.8,0,1,1-3.7,3.7A3.8,3.8,0,0,1,59.7,240Zm0-23a3.8,3.8,0,1,1-3.7,3.8A3.8,3.8,0,0,1,59.7,217Zm23,298.3a3.8,3.8,0,0,1,0,7.5,3.8,3.8,0,1,1,0-7.5Zm0-23a3.7,3.7,0,0,1,3.7,3.8,3.6,3.6,0,0,1-3.7,3.7,3.7,3.7,0,0,1-3.8-3.7A3.8,3.8,0,0,1,82.7,492.3Zm0-22.9a3.8,3.8,0,0,1,0,7.5,3.8,3.8,0,1,1,0-7.5Zm0-22.9a3.8,3.8,0,0,1,0,7.5,3.8,3.8,0,1,1,0-7.5Zm0-23a3.7,3.7,0,0,1,3.7,3.8,3.6,3.6,0,0,1-3.7,3.7,3.7,3.7,0,0,1-3.8-3.7A3.8,3.8,0,0,1,82.7,423.5Zm0-22.9a3.8,3.8,0,0,1,0,7.5,3.8,3.8,0,1,1,0-7.5Zm0-23a3.7,3.7,0,0,1,3.7,3.8,3.6,3.6,0,0,1-3.7,3.7,3.7,3.7,0,0,1-3.8-3.7A3.8,3.8,0,0,1,82.7,377.6Zm0-22.9a3.8,3.8,0,0,1,0,7.5,3.8,3.8,0,1,1,0-7.5Zm0-23a3.7,3.7,0,0,1,3.7,3.8,3.6,3.6,0,0,1-3.7,3.7,3.7,3.7,0,0,1-3.8-3.7A3.8,3.8,0,0,1,82.7,331.7Zm0-22.9a3.7,3.7,0,0,1,3.7,3.8,3.6,3.6,0,0,1-3.7,3.7,3.7,3.7,0,0,1-3.8-3.7A3.8,3.8,0,0,1,82.7,308.8Zm0-22.9a3.8,3.8,0,0,1,0,7.5,3.8,3.8,0,1,1,0-7.5Zm0-23a3.7,3.7,0,0,1,3.7,3.8,3.6,3.6,0,0,1-3.7,3.7,3.7,3.7,0,0,1-3.8-3.7A3.8,3.8,0,0,1,82.7,262.9Zm0-22.9a3.8,3.8,0,0,1,0,7.5,3.8,3.8,0,1,1,0-7.5Zm0-23a3.8,3.8,0,0,1,0,7.6,3.8,3.8,0,1,1,0-7.6Zm22.9,298.3a3.8,3.8,0,1,1,0,7.5,3.8,3.8,0,0,1,0-7.5Zm0-23a3.8,3.8,0,0,1,3.8,3.8,3.7,3.7,0,0,1-3.8,3.7,3.6,3.6,0,0,1-3.7-3.7A3.7,3.7,0,0,1,105.6,492.3Zm0-22.9a3.8,3.8,0,1,1,0,7.5,3.8,3.8,0,0,1,0-7.5Zm0-22.9a3.8,3.8,0,1,1,0,7.5,3.8,3.8,0,0,1,0-7.5Zm0-23a3.8,3.8,0,0,1,3.8,3.8,3.7,3.7,0,0,1-3.8,3.7,3.6,3.6,0,0,1-3.7-3.7A3.7,3.7,0,0,1,105.6,423.5Zm0-22.9a3.8,3.8,0,1,1,0,7.5,3.8,3.8,0,0,1,0-7.5Zm0-23a3.8,3.8,0,0,1,3.8,3.8,3.7,3.7,0,0,1-3.8,3.7,3.6,3.6,0,0,1-3.7-3.7A3.7,3.7,0,0,1,105.6,377.6Zm0-22.9a3.8,3.8,0,1,1,0,7.5,3.8,3.8,0,0,1,0-7.5Zm0-23a3.8,3.8,0,0,1,3.8,3.8,3.7,3.7,0,0,1-3.8,3.7,3.6,3.6,0,0,1-3.7-3.7A3.7,3.7,0,0,1,105.6,331.7Zm0-22.9a3.8,3.8,0,0,1,3.8,3.8,3.7,3.7,0,0,1-3.8,3.7,3.6,3.6,0,0,1-3.7-3.7A3.7,3.7,0,0,1,105.6,308.8Zm0-22.9a3.8,3.8,0,1,1,0,7.5,3.8,3.8,0,0,1,0-7.5Zm0-23a3.8,3.8,0,0,1,3.8,3.8,3.7,3.7,0,0,1-3.8,3.7,3.6,3.6,0,0,1-3.7-3.7A3.7,3.7,0,0,1,105.6,262.9Zm0-22.9a3.8,3.8,0,1,1,0,7.5,3.8,3.8,0,0,1,0-7.5Zm0-23a3.8,3.8,0,0,1,0,7.6,3.8,3.8,0,0,1,0-7.6Zm23,298.3a3.8,3.8,0,0,1,0,7.5,3.8,3.8,0,1,1,0-7.5Zm0-23a3.7,3.7,0,0,1,3.7,3.8,3.6,3.6,0,0,1-3.7,3.7,3.7,3.7,0,0,1-3.8-3.7A3.8,3.8,0,0,1,128.6,492.3Zm0-22.9a3.8,3.8,0,0,1,0,7.5,3.8,3.8,0,1,1,0-7.5Zm0-22.9a3.8,3.8,0,0,1,0,7.5,3.8,3.8,0,1,1,0-7.5Zm0-23a3.7,3.7,0,0,1,3.7,3.8,3.6,3.6,0,0,1-3.7,3.7,3.7,3.7,0,0,1-3.8-3.7A3.8,3.8,0,0,1,128.6,423.5Zm0-22.9a3.8,3.8,0,0,1,0,7.5,3.8,3.8,0,1,1,0-7.5Zm0-23a3.7,3.7,0,0,1,3.7,3.8,3.6,3.6,0,0,1-3.7,3.7,3.7,3.7,0,0,1-3.8-3.7A3.8,3.8,0,0,1,128.6,377.6Zm0-22.9a3.8,3.8,0,0,1,0,7.5,3.8,3.8,0,1,1,0-7.5Zm0-23a3.7,3.7,0,0,1,3.7,3.8,3.6,3.6,0,0,1-3.7,3.7,3.7,3.7,0,0,1-3.8-3.7A3.8,3.8,0,0,1,128.6,331.7Zm0-22.9a3.7,3.7,0,0,1,3.7,3.8,3.6,3.6,0,0,1-3.7,3.7,3.7,3.7,0,0,1-3.8-3.7A3.8,3.8,0,0,1,128.6,308.8Zm0-22.9a3.8,3.8,0,0,1,0,7.5,3.8,3.8,0,1,1,0-7.5Zm0-23a3.7,3.7,0,0,1,3.7,3.8,3.6,3.6,0,0,1-3.7,3.7,3.7,3.7,0,0,1-3.8-3.7A3.8,3.8,0,0,1,128.6,262.9Zm0-22.9a3.8,3.8,0,0,1,0,7.5,3.8,3.8,0,1,1,0-7.5Zm0-23a3.8,3.8,0,0,1,0,7.6,3.8,3.8,0,1,1,0-7.6Zm22.9,298.3a3.8,3.8,0,1,1,0,7.5,3.8,3.8,0,0,1,0-7.5Zm0-23a3.8,3.8,0,0,1,3.8,3.8,3.7,3.7,0,0,1-3.8,3.7,3.6,3.6,0,0,1-3.7-3.7A3.7,3.7,0,0,1,151.5,492.3Zm0-22.9a3.8,3.8,0,1,1,0,7.5,3.8,3.8,0,0,1,0-7.5Zm0-22.9a3.8,3.8,0,1,1,0,7.5,3.8,3.8,0,0,1,0-7.5Zm0-23a3.8,3.8,0,0,1,3.8,3.8,3.7,3.7,0,0,1-3.8,3.7,3.6,3.6,0,0,1-3.7-3.7A3.7,3.7,0,0,1,151.5,423.5Zm0-22.9a3.8,3.8,0,1,1,0,7.5,3.8,3.8,0,0,1,0-7.5Zm0-23a3.8,3.8,0,0,1,3.8,3.8,3.7,3.7,0,0,1-3.8,3.7,3.6,3.6,0,0,1-3.7-3.7A3.7,3.7,0,0,1,151.5,377.6Zm0-22.9a3.8,3.8,0,1,1,0,7.5,3.8,3.8,0,0,1,0-7.5Zm0-23a3.8,3.8,0,0,1,3.8,3.8,3.7,3.7,0,0,1-3.8,3.7,3.6,3.6,0,0,1-3.7-3.7A3.7,3.7,0,0,1,151.5,331.7Zm0-22.9a3.8,3.8,0,0,1,3.8,3.8,3.7,3.7,0,0,1-3.8,3.7,3.6,3.6,0,0,1-3.7-3.7A3.7,3.7,0,0,1,151.5,308.8Zm0-22.9a3.8,3.8,0,1,1,0,7.5,3.8,3.8,0,0,1,0-7.5Zm0-23a3.8,3.8,0,0,1,3.8,3.8,3.7,3.7,0,0,1-3.8,3.7,3.6,3.6,0,0,1-3.7-3.7A3.7,3.7,0,0,1,151.5,262.9Zm0-22.9a3.8,3.8,0,1,1,0,7.5,3.8,3.8,0,0,1,0-7.5Zm0-23a3.8,3.8,0,0,1,0,7.6,3.8,3.8,0,0,1,0-7.6Z"></path>
 

<g id="tutti-punti"></g>	
	
		
	<path id="punSt" class="cls-3" d="M318.6,291.6a1.3,1.3,0,0,1-1.3,1.4,1.4,1.4,0,0,1-1.4-1.4,1.4,1.4,0,0,1,1.4-1.4A1.4,1.4,0,0,1,318.6,291.6Zm-30.9-12.1a1.4,1.4,0,0,0-1.4,1.4,1.4,1.4,0,0,0,2.8,0A1.4,1.4,0,0,0,287.7,279.5Zm-12.3,25.2a1.4,1.4,0,0,0-1.4,1.4,1.4,1.4,0,0,0,2.8,0A1.4,1.4,0,0,0,275.4,304.7Zm-3.3-17.5a1.4,1.4,0,0,0-1.4,1.3,1.4,1.4,0,0,0,1.4,1.4,1.4,1.4,0,0,0,1.4-1.4A1.3,1.3,0,0,0,272.1,287.2Zm-51.6-24.6a1.4,1.4,0,0,0-1.4,1.4,1.4,1.4,0,0,0,1.4,1.4,1.4,1.4,0,0,0,1.4-1.4A1.5,1.5,0,0,0,220.5,262.6ZM233.8,231a1.4,1.4,0,0,0-1.4,1.4,1.4,1.4,0,0,0,1.4,1.4,1.5,1.5,0,0,0,1.4-1.4A1.4,1.4,0,0,0,233.8,231Zm7.5,57.5a1.4,1.4,0,0,0-1.4,1.4,1.4,1.4,0,0,0,2.8,0A1.4,1.4,0,0,0,241.3,288.5Zm13.5,63.2a1.4,1.4,0,0,0-1.3,1.4,1.3,1.3,0,0,0,1.3,1.4,1.4,1.4,0,0,0,1.4-1.4A1.4,1.4,0,0,0,254.8,351.7Zm-66.5-18.4a1.4,1.4,0,0,0-1.4,1.4,1.4,1.4,0,0,0,2.8,0A1.4,1.4,0,0,0,188.3,333.3Zm-18.1-47.2a1.4,1.4,0,0,0-1.4,1.4,1.3,1.3,0,0,0,1.4,1.3,1.4,1.4,0,0,0,1.4-1.3A1.4,1.4,0,0,0,170.2,286.1Zm-47.9,57.5a1.4,1.4,0,0,0,0,2.8,1.4,1.4,0,1,0,0-2.8ZM35.4,439a1.3,1.3,0,0,0-1.4,1.3,1.4,1.4,0,0,0,2.8,0A1.3,1.3,0,0,0,35.4,439Zm249-73a1.4,1.4,0,0,0,0,2.8,1.4,1.4,0,1,0,0-2.8Zm-83.1,89.6a1.4,1.4,0,0,0,0,2.8,1.4,1.4,0,0,0,0-2.8Zm7.8,13.8a1.4,1.4,0,1,0,0,2.8,1.4,1.4,0,1,0,0-2.8Zm60.3-32.5a1.4,1.4,0,0,0-1.4,1.4,1.4,1.4,0,0,0,1.4,1.4,1.4,1.4,0,0,0,1.3-1.4A1.3,1.3,0,0,0,269.4,436.9Zm158,4.8a1.4,1.4,0,0,0-1.4,1.4,1.4,1.4,0,0,0,2.8,0A1.4,1.4,0,0,0,427.4,441.7ZM465,354.8a1.4,1.4,0,0,0-1.4,1.4,1.4,1.4,0,0,0,1.4,1.4,1.4,1.4,0,0,0,1.4-1.4A1.5,1.5,0,0,0,465,354.8Zm24,24a1.4,1.4,0,1,0,0,2.8,1.4,1.4,0,1,0,0-2.8Zm6.4-71.6a1.4,1.4,0,0,0,0,2.8,1.4,1.4,0,1,0,0-2.8Zm-32.3-49.6a1.4,1.4,0,0,0-1.4,1.4,1.5,1.5,0,0,0,1.4,1.4,1.4,1.4,0,0,0,1.4-1.4A1.4,1.4,0,0,0,463.1,257.6Zm40-62.4a1.4,1.4,0,0,0-1.4,1.4,1.4,1.4,0,0,0,1.4,1.4,1.5,1.5,0,0,0,1.4-1.4A1.4,1.4,0,0,0,503.1,195.2Zm3.4-88.8a1.4,1.4,0,0,0-1.4,1.4,1.4,1.4,0,0,0,1.4,1.4,1.3,1.3,0,0,0,1.3-1.4A1.4,1.4,0,0,0,506.5,106.4ZM441.9,140a1.4,1.4,0,0,0-1.4,1.4,1.4,1.4,0,0,0,1.4,1.3,1.3,1.3,0,0,0,1.4-1.3A1.4,1.4,0,0,0,441.9,140Zm-128.5-1.9a1.4,1.4,0,1,0,0,2.8,1.4,1.4,0,1,0,0-2.8ZM289.7,78.5a1.3,1.3,0,0,0-1.3,1.4,1.4,1.4,0,0,0,1.3,1.4,1.4,1.4,0,0,0,1.4-1.4A1.4,1.4,0,0,0,289.7,78.5ZM203,133.9a1.4,1.4,0,0,0-1.3,1.4,1.3,1.3,0,0,0,1.3,1.4,1.4,1.4,0,0,0,1.4-1.4A1.4,1.4,0,0,0,203,133.9Zm-77.3,37.7a1.4,1.4,0,1,0,0,2.8,1.4,1.4,0,0,0,0-2.8Zm227.8,70.9a1.4,1.4,0,1,0,0,2.8,1.4,1.4,0,0,0,0-2.8ZM310,236.6a1.4,1.4,0,0,0,0,2.8,1.4,1.4,0,0,0,0-2.8Zm-74.1,21.1a1.4,1.4,0,0,0-1.4,1.4,1.4,1.4,0,0,0,2.8,0A1.4,1.4,0,0,0,235.9,257.7Zm-9.8,59.7a1.4,1.4,0,0,0-1.4,1.4,1.4,1.4,0,0,0,1.4,1.3,1.3,1.3,0,0,0,1.4-1.3A1.4,1.4,0,0,0,226.1,317.4ZM280.4,359a1.4,1.4,0,0,0-1.3,1.4,1.3,1.3,0,0,0,1.3,1.4,1.4,1.4,0,0,0,1.4-1.4A1.4,1.4,0,0,0,280.4,359Zm23.1-58.7a1.5,1.5,0,0,0-1.4,1.4,1.4,1.4,0,0,0,1.4,1.4,1.4,1.4,0,0,0,1.4-1.4A1.4,1.4,0,0,0,303.5,300.3Zm59.6-75.4a1.4,1.4,0,0,0-1.4,1.4,1.3,1.3,0,0,0,1.4,1.3,1.4,1.4,0,0,0,1.4-1.3A1.4,1.4,0,0,0,363.1,224.9ZM350.3,337.4a1.3,1.3,0,0,0-1.3,1.4,1.3,1.3,0,0,0,1.3,1.3,1.3,1.3,0,0,0,1.4-1.3A1.4,1.4,0,0,0,350.3,337.4Zm-23.6,52.9a1.4,1.4,0,0,0-1.4,1.4,1.4,1.4,0,0,0,2.8,0A1.4,1.4,0,0,0,326.7,390.3Zm66.4-68a1.4,1.4,0,0,0-1.4,1.4,1.4,1.4,0,0,0,1.4,1.4,1.4,1.4,0,0,0,1.3-1.4A1.3,1.3,0,0,0,393.1,322.3Zm34-13a1.4,1.4,0,1,0,1.4,1.4A1.4,1.4,0,0,0,427.1,309.3ZM449,390.4a1.4,1.4,0,0,0,0,2.8,1.4,1.4,0,0,0,0-2.8ZM432,354a1.4,1.4,0,0,0-1.4,1.4,1.4,1.4,0,0,0,1.4,1.4,1.4,1.4,0,0,0,1.4-1.4A1.5,1.5,0,0,0,432,354ZM367.2,194.4a1.4,1.4,0,0,0-1.4,1.4,1.4,1.4,0,0,0,2.8,0A1.4,1.4,0,0,0,367.2,194.4Zm-58,16.1a1.4,1.4,0,0,0-1.4,1.4,1.4,1.4,0,0,0,2.8,0A1.4,1.4,0,0,0,309.2,210.5ZM269,235a1.4,1.4,0,0,0-1.4,1.4,1.3,1.3,0,0,0,1.4,1.3,1.4,1.4,0,0,0,1.4-1.3A1.4,1.4,0,0,0,269,235Zm-60.4,70.8a1.4,1.4,0,0,0-1.4,1.4,1.4,1.4,0,0,0,2.8,0A1.4,1.4,0,0,0,208.6,305.8ZM183,232.5a1.3,1.3,0,0,0-1.3,1.3,1.3,1.3,0,0,0,1.3,1.4,1.4,1.4,0,0,0,1.4-1.4A1.3,1.3,0,0,0,183,232.5Zm52.2,116.1a1.4,1.4,0,0,0-1.4,1.4,1.4,1.4,0,0,0,2.8,0A1.4,1.4,0,0,0,235.2,348.6Zm-1,35.2a1.4,1.4,0,1,0,1.4,1.4A1.4,1.4,0,0,0,234.2,383.8Zm-20.4,9a1.4,1.4,0,1,0,0,2.8,1.4,1.4,0,0,0,0-2.8Zm-30.7,19.1a1.4,1.4,0,0,0-1.4,1.4,1.4,1.4,0,0,0,1.4,1.4,1.5,1.5,0,0,0,1.4-1.4A1.4,1.4,0,0,0,183.1,411.9Zm127.5-28a1.4,1.4,0,0,0-1.4,1.4,1.5,1.5,0,0,0,1.4,1.4,1.4,1.4,0,0,0,1.4-1.4A1.4,1.4,0,0,0,310.6,383.9Zm4-15.7a1.4,1.4,0,0,0-1.4,1.4,1.4,1.4,0,0,0,1.4,1.4,1.4,1.4,0,0,0,1.4-1.4A1.5,1.5,0,0,0,314.6,368.2Zm-93.9,1.6a1.4,1.4,0,0,0-1.4,1.4,1.4,1.4,0,0,0,2.8,0A1.4,1.4,0,0,0,220.7,369.8Zm89.7-6.6a1.4,1.4,0,0,0,0,2.8,1.4,1.4,0,0,0,0-2.8Zm8.1-65a1.4,1.4,0,0,0-1.4,1.4,1.4,1.4,0,0,0,1.4,1.4,1.4,1.4,0,0,0,1.4-1.4A1.5,1.5,0,0,0,318.5,298.2Zm11.1,34.5a1.4,1.4,0,0,0,0,2.8,1.4,1.4,0,0,0,0-2.8Zm12.8-114.1A1.5,1.5,0,0,0,341,220a1.4,1.4,0,0,0,1.4,1.4,1.4,1.4,0,0,0,1.4-1.4A1.4,1.4,0,0,0,342.4,218.6ZM264.9,333.3a1.4,1.4,0,0,0-1.4,1.4,1.3,1.3,0,0,0,1.4,1.3,1.3,1.3,0,0,0,1.3-1.3A1.3,1.3,0,0,0,264.9,333.3Zm18.4-34a1.3,1.3,0,0,0-1.4,1.3,1.4,1.4,0,1,0,2.8,0A1.3,1.3,0,0,0,283.3,299.3Zm133.9-4.2a1.4,1.4,0,0,0,0,2.8,1.4,1.4,0,1,0,0-2.8Zm-33.3,61.4a1.4,1.4,0,0,0-1.4,1.3,1.4,1.4,0,0,0,1.4,1.4,1.4,1.4,0,0,0,1.4-1.4A1.3,1.3,0,0,0,383.9,356.5Zm36.4-30.1a1.4,1.4,0,0,0-1.4,1.4,1.4,1.4,0,0,0,1.4,1.4,1.4,1.4,0,0,0,1.4-1.4A1.5,1.5,0,0,0,420.3,326.4ZM403.8,455a1.4,1.4,0,1,0,0,2.8,1.4,1.4,0,1,0,0-2.8Zm9.7-68.6a1.4,1.4,0,0,0-1.4,1.4,1.5,1.5,0,0,0,1.4,1.4,1.4,1.4,0,0,0,1.4-1.4A1.4,1.4,0,0,0,413.5,386.4Zm10.2-52.5a1.4,1.4,0,0,0-1.4,1.4,1.4,1.4,0,0,0,1.4,1.4,1.4,1.4,0,0,0,1.3-1.4A1.3,1.3,0,0,0,423.7,333.9Zm-37.9,39.9a1.4,1.4,0,1,0,1.4,1.4A1.4,1.4,0,0,0,385.8,373.8Zm33.8,27.7a1.4,1.4,0,0,0-1.4,1.4,1.4,1.4,0,0,0,2.8,0A1.4,1.4,0,0,0,419.6,401.5ZM328.4,279.8a1.5,1.5,0,0,0-1.4,1.4,1.4,1.4,0,0,0,1.4,1.4,1.4,1.4,0,0,0,1.4-1.4A1.4,1.4,0,0,0,328.4,279.8Zm67.8-7.5a1.4,1.4,0,1,0,0,2.8,1.4,1.4,0,1,0,0-2.8Z"></path>
 
	<path id="pun1" class="cls-3" d="M333.5,285a1.4,1.4,0,1,1-2.8,0,1.4,1.4,0,0,1,2.8,0Zm-2,2.7a1.4,1.4,0,0,0-1.4,1.4,1.4,1.4,0,0,0,2.8,0A1.4,1.4,0,0,0,331.5,287.7ZM321.1,282a1.4,1.4,0,0,0-1.4,1.4,1.3,1.3,0,0,0,1.4,1.3,1.4,1.4,0,0,0,1.4-1.3A1.4,1.4,0,0,0,321.1,282Zm-47.4-2.5a1.4,1.4,0,0,0-1.3,1.4,1.3,1.3,0,0,0,1.3,1.4,1.4,1.4,0,0,0,1.4-1.4A1.4,1.4,0,0,0,273.7,279.5ZM303,260.4a1.4,1.4,0,0,0-1.4,1.4,1.5,1.5,0,0,0,1.4,1.4,1.4,1.4,0,0,0,1.4-1.4A1.4,1.4,0,0,0,303,260.4ZM220.7,389.9a1.4,1.4,0,0,0-1.4,1.4,1.4,1.4,0,0,0,1.4,1.4,1.3,1.3,0,0,0,1.3-1.4A1.4,1.4,0,0,0,220.7,389.9Zm92.3-7.1a1.3,1.3,0,0,0-1.4,1.3,1.4,1.4,0,0,0,1.4,1.4,1.3,1.3,0,0,0,1.3-1.4A1.3,1.3,0,0,0,313,382.8Zm3.9-38.1a1.4,1.4,0,0,0-1.4,1.4,1.4,1.4,0,0,0,2.8,0A1.4,1.4,0,0,0,316.9,344.7Zm-14.4,23.6a1.4,1.4,0,0,0-1.4,1.4,1.4,1.4,0,0,0,2.8,0A1.4,1.4,0,0,0,302.5,368.3Zm63.5-59a1.4,1.4,0,1,0,1.4,1.4A1.4,1.4,0,0,0,366,309.3Zm-8.9-22.5a1.4,1.4,0,0,0-1.4,1.4,1.4,1.4,0,0,0,2.8,0A1.4,1.4,0,0,0,357.1,286.8Zm-68.8-58.5a1.4,1.4,0,0,0-1.4,1.4,1.4,1.4,0,1,0,2.8,0A1.4,1.4,0,0,0,288.3,228.3Zm-1.9,21a1.4,1.4,0,1,0,0,2.8,1.4,1.4,0,1,0,0-2.8Zm113,15a1.4,1.4,0,0,0-1.4,1.4,1.4,1.4,0,0,0,2.8,0A1.4,1.4,0,0,0,399.4,264.3ZM385,271.7a1.4,1.4,0,0,0-1.4,1.4,1.4,1.4,0,0,0,2.8,0A1.4,1.4,0,0,0,385,271.7Zm-60,2.2a1.4,1.4,0,0,0,0,2.8,1.4,1.4,0,0,0,0-2.8Zm-10.8,19.3a1.4,1.4,0,0,0-1.4,1.4,1.4,1.4,0,0,0,2.8,0A1.4,1.4,0,0,0,314.2,293.2Zm-59.1,82.6a1.4,1.4,0,1,0,0,2.8,1.4,1.4,0,1,0,0-2.8Zm-55.9,7.4a1.4,1.4,0,0,0-1.4,1.4,1.5,1.5,0,0,0,1.4,1.4,1.4,1.4,0,0,0,1.4-1.4A1.4,1.4,0,0,0,199.2,383.2Zm65.1-57a1.4,1.4,0,0,0-1.4,1.4,1.4,1.4,0,0,0,1.4,1.3,1.3,1.3,0,0,0,1.4-1.3A1.4,1.4,0,0,0,264.3,326.2Zm-65,6.5a1.4,1.4,0,0,0-1.4,1.4,1.4,1.4,0,0,0,1.4,1.4,1.5,1.5,0,0,0,1.4-1.4A1.4,1.4,0,0,0,199.3,332.7Zm2.8-45.3a1.4,1.4,0,0,0-1.4,1.4,1.4,1.4,0,1,0,2.8,0A1.4,1.4,0,0,0,202.1,287.4Zm49.1,2.3a1.4,1.4,0,1,0,1.4,1.4A1.4,1.4,0,0,0,251.2,289.7Zm-7.7-20.8a1.4,1.4,0,0,0,0,2.8,1.4,1.4,0,0,0,0-2.8Zm-12.3,2.8a1.4,1.4,0,0,0-1.4,1.4,1.4,1.4,0,1,0,2.8,0A1.4,1.4,0,0,0,231.2,271.7Zm-7.7-91.1a1.4,1.4,0,0,0-1.4,1.4,1.4,1.4,0,0,0,1.4,1.4,1.5,1.5,0,0,0,1.4-1.4A1.4,1.4,0,0,0,223.5,180.6Zm2-20.4a1.4,1.4,0,0,0-1.4,1.4,1.3,1.3,0,0,0,1.4,1.3,1.3,1.3,0,0,0,1.3-1.3A1.3,1.3,0,0,0,225.5,160.2Zm6.6,102a1.4,1.4,0,0,0-1.4,1.4,1.4,1.4,0,1,0,2.8,0A1.4,1.4,0,0,0,232.1,262.2Zm-64.7,20.7a1.4,1.4,0,0,0,0,2.8,1.4,1.4,0,0,0,0-2.8Zm-51.9-20.3a1.3,1.3,0,0,0-1.4,1.3,1.4,1.4,0,0,0,2.8,0A1.3,1.3,0,0,0,115.5,262.6Zm-2.3,19.7a1.4,1.4,0,1,0,1.4,1.4A1.4,1.4,0,0,0,113.2,282.3Zm46.1,83a1.3,1.3,0,0,0-1.4,1.3,1.4,1.4,0,0,0,1.4,1.4,1.4,1.4,0,0,0,1.4-1.4A1.4,1.4,0,0,0,159.3,365.3Zm47.2-.4a1.4,1.4,0,0,0-1.4,1.4,1.4,1.4,0,0,0,1.4,1.4,1.5,1.5,0,0,0,1.4-1.4A1.4,1.4,0,0,0,206.5,364.9Zm24.9,39.5a1.4,1.4,0,1,0,1.4,1.4A1.4,1.4,0,0,0,231.4,404.4Zm32.6-12a1.3,1.3,0,0,0-1.3,1.4,1.4,1.4,0,0,0,1.3,1.4,1.4,1.4,0,0,0,1.4-1.4A1.4,1.4,0,0,0,264,392.4ZM322.9,524a1.4,1.4,0,0,0-1.4,1.4,1.4,1.4,0,0,0,1.4,1.4,1.4,1.4,0,0,0,1.4-1.4A1.5,1.5,0,0,0,322.9,524Zm-46.6,23.7a1.4,1.4,0,0,0-1.4,1.4,1.4,1.4,0,0,0,1.4,1.4,1.5,1.5,0,0,0,1.4-1.4A1.4,1.4,0,0,0,276.3,547.7Zm52.8-21.6a1.3,1.3,0,0,0-1.4,1.3,1.4,1.4,0,1,0,2.8,0A1.3,1.3,0,0,0,329.1,526.1Zm-35.3-92.3a1.4,1.4,0,0,0-1.4,1.4,1.4,1.4,0,0,0,2.8,0A1.4,1.4,0,0,0,293.8,433.8Zm55,20.9a1.4,1.4,0,1,0,1.4,1.4A1.4,1.4,0,0,0,348.8,454.7ZM410,485.8a1.4,1.4,0,0,0-1.4,1.4,1.4,1.4,0,0,0,2.8,0A1.4,1.4,0,0,0,410,485.8Zm33.6-83.7a1.4,1.4,0,1,0,1.4,1.4A1.4,1.4,0,0,0,443.6,402.1ZM506,419.5a1.3,1.3,0,0,0-1.3,1.4,1.3,1.3,0,0,0,1.3,1.3,1.3,1.3,0,0,0,1.4-1.3A1.4,1.4,0,0,0,506,419.5Zm14.2-25.6a1.4,1.4,0,1,0,0,2.8,1.4,1.4,0,0,0,0-2.8Zm25.5-58.2a1.4,1.4,0,1,0,0,2.8,1.4,1.4,0,0,0,0-2.8Zm24-66.4a1.3,1.3,0,0,0-1.3,1.4,1.4,1.4,0,0,0,1.3,1.4,1.4,1.4,0,0,0,1.4-1.4A1.4,1.4,0,0,0,569.7,269.3Zm23.5-72.9a1.4,1.4,0,1,0,0,2.8,1.4,1.4,0,0,0,0-2.8ZM580.4,153a1.3,1.3,0,0,0-1.3,1.3,1.3,1.3,0,0,0,1.3,1.4,1.4,1.4,0,0,0,1.4-1.4A1.3,1.3,0,0,0,580.4,153ZM566.6,259.9a1.4,1.4,0,1,0,1.4,1.4A1.4,1.4,0,0,0,566.6,259.9Zm4.8,146.2a1.5,1.5,0,0,0-1.4,1.4,1.4,1.4,0,0,0,1.4,1.4,1.4,1.4,0,0,0,1.4-1.4A1.4,1.4,0,0,0,571.4,406.1Zm10.1,43.6a1.3,1.3,0,0,0-1.4,1.3,1.4,1.4,0,0,0,1.4,1.4,1.4,1.4,0,0,0,1.4-1.4A1.4,1.4,0,0,0,581.5,449.7Zm-73.9,15.1a1.4,1.4,0,1,0,1.4,1.4A1.4,1.4,0,0,0,507.6,464.8ZM489.4,341.1a1.4,1.4,0,0,0,0,2.8,1.4,1.4,0,1,0,0-2.8ZM431.8,179.8a1.4,1.4,0,0,0,0,2.8,1.4,1.4,0,1,0,0-2.8Zm-.6-52.9a1.4,1.4,0,0,0-1.4,1.4,1.4,1.4,0,0,0,1.4,1.4,1.4,1.4,0,0,0,1.4-1.4A1.5,1.5,0,0,0,431.2,126.9ZM399.7,71.4a1.4,1.4,0,0,0-1.3,1.4,1.3,1.3,0,0,0,1.3,1.4,1.4,1.4,0,0,0,1.4-1.4A1.4,1.4,0,0,0,399.7,71.4ZM366,134.7a1.4,1.4,0,1,0,1.4,1.4A1.4,1.4,0,0,0,366,134.7ZM305.6,89.8a1.4,1.4,0,0,0-1.4,1.4,1.3,1.3,0,0,0,1.4,1.3,1.4,1.4,0,0,0,1.4-1.3A1.4,1.4,0,0,0,305.6,89.8Zm-11.1,66.7a1.4,1.4,0,1,0,1.4,1.4A1.4,1.4,0,0,0,294.5,156.5Zm-41.4,63.3a1.4,1.4,0,0,0-1.4,1.4,1.4,1.4,0,0,0,2.8,0A1.4,1.4,0,0,0,253.1,219.8Zm-92-93a1.4,1.4,0,0,0-1.4,1.4,1.4,1.4,0,0,0,2.8,0A1.4,1.4,0,0,0,161.1,126.8Zm-39.9,49.4a1.4,1.4,0,0,0-1.4,1.4,1.4,1.4,0,0,0,2.8,0A1.4,1.4,0,0,0,121.2,176.2Zm-88,9.4a1.5,1.5,0,0,0-1.4,1.4,1.4,1.4,0,0,0,1.4,1.4,1.4,1.4,0,0,0,1.4-1.4A1.4,1.4,0,0,0,33.2,185.6Zm26.6,25.6a1.4,1.4,0,0,0-1.4,1.4,1.4,1.4,0,0,0,1.4,1.4,1.3,1.3,0,0,0,1.3-1.4A1.4,1.4,0,0,0,59.8,211.2Zm10.3,76.7a1.5,1.5,0,0,0-1.4,1.4,1.4,1.4,0,0,0,1.4,1.4,1.4,1.4,0,0,0,1.4-1.4A1.4,1.4,0,0,0,70.1,287.9ZM35.5,334.8a1.4,1.4,0,0,0-1.4,1.4,1.4,1.4,0,0,0,1.4,1.4,1.5,1.5,0,0,0,1.4-1.4A1.4,1.4,0,0,0,35.5,334.8Zm55,82.4a1.4,1.4,0,0,0-1.4,1.4,1.4,1.4,0,0,0,2.8,0A1.4,1.4,0,0,0,90.5,417.2ZM71.4,455.9a1.4,1.4,0,1,0,0,2.8,1.4,1.4,0,0,0,0-2.8Zm67.9-41.8a1.4,1.4,0,0,0-1.4,1.4,1.4,1.4,0,1,0,2.8,0A1.4,1.4,0,0,0,139.3,414.1Zm72-74.4a1.4,1.4,0,0,0,0,2.8,1.4,1.4,0,0,0,0-2.8Zm49.3-20a1.3,1.3,0,0,0-1.4,1.3,1.4,1.4,0,1,0,2.8,0A1.3,1.3,0,0,0,260.6,319.7Zm63.5,21.6a1.4,1.4,0,0,0-1.4,1.4,1.4,1.4,0,1,0,2.8,0A1.4,1.4,0,0,0,324.1,341.3Zm59.8-24.4a1.4,1.4,0,0,0-1.4,1.4,1.4,1.4,0,0,0,1.4,1.4,1.4,1.4,0,0,0,1.3-1.4A1.3,1.3,0,0,0,383.9,316.9Zm-26.6-72.1a1.4,1.4,0,0,0-1.4,1.4,1.4,1.4,0,1,0,2.8,0A1.4,1.4,0,0,0,357.3,244.8Zm-36.6,13.4a1.4,1.4,0,1,0,1.4,1.4A1.4,1.4,0,0,0,320.7,258.2Zm26.5-52.4a1.4,1.4,0,1,0,1.4,1.4A1.4,1.4,0,0,0,347.2,205.8Zm45,30.7a1.4,1.4,0,0,0-1.4,1.4,1.4,1.4,0,0,0,2.8,0A1.4,1.4,0,0,0,392.2,236.5Zm-5.3,23.7a1.4,1.4,0,0,0-1.4,1.4,1.4,1.4,0,1,0,2.8,0A1.4,1.4,0,0,0,386.9,260.2Zm-10.2,83.9a1.4,1.4,0,0,0,0,2.8,1.4,1.4,0,1,0,0-2.8Zm8.9-14.2a1.4,1.4,0,0,0-1.4,1.4,1.4,1.4,0,0,0,1.4,1.4,1.4,1.4,0,0,0,1.3-1.4A1.3,1.3,0,0,0,385.6,329.9Zm-41.2-7.8a1.4,1.4,0,1,0,1.4,1.4A1.4,1.4,0,0,0,344.4,322.1Zm-38.9,2.6a1.4,1.4,0,1,0,0,2.8,1.4,1.4,0,0,0,0-2.8Zm7.7,50.5a1.4,1.4,0,1,0,1.4,1.4A1.4,1.4,0,0,0,313.2,375.2Zm-.9-11.6a1.4,1.4,0,0,0-1.4,1.4,1.4,1.4,0,1,0,2.8,0A1.4,1.4,0,0,0,312.3,363.6Zm-8.6-70.7a1.4,1.4,0,0,0,0,2.8,1.4,1.4,0,0,0,0-2.8Zm16.2,2.5a1.4,1.4,0,0,0-1.4,1.4,1.4,1.4,0,0,0,1.4,1.3,1.3,1.3,0,0,0,1.4-1.3A1.4,1.4,0,0,0,319.9,295.4Zm-9.1,2.8a1.4,1.4,0,1,0,1.4,1.4A1.4,1.4,0,0,0,310.8,298.2Zm-15.2,30.3a1.4,1.4,0,0,0-1.4,1.4,1.4,1.4,0,0,0,1.4,1.4,1.4,1.4,0,0,0,1.4-1.4A1.5,1.5,0,0,0,295.6,328.5Zm-60.9.9a1.4,1.4,0,0,0-1.4,1.4,1.4,1.4,0,0,0,1.4,1.4,1.3,1.3,0,0,0,1.3-1.4A1.4,1.4,0,0,0,234.7,329.4Zm18.1,7.6a1.4,1.4,0,1,0,1.4,1.4A1.4,1.4,0,0,0,252.8,337Zm-24.9-93.9a1.4,1.4,0,1,0,0,2.8,1.4,1.4,0,0,0,0-2.8ZM247,204.2a1.4,1.4,0,0,0-1.4,1.4A1.4,1.4,0,0,0,247,207a1.4,1.4,0,0,0,1.3-1.4A1.3,1.3,0,0,0,247,204.2Zm-14.9,42.4a1.4,1.4,0,0,0-1.4,1.4,1.4,1.4,0,0,0,1.4,1.4,1.4,1.4,0,0,0,1.4-1.4A1.5,1.5,0,0,0,232.1,246.6Zm-49.4,68.5a1.4,1.4,0,0,0-1.4,1.4,1.3,1.3,0,0,0,1.4,1.3,1.3,1.3,0,0,0,1.3-1.3A1.3,1.3,0,0,0,182.7,315.1Zm-8.2-6.7a1.4,1.4,0,1,0,1.4,1.4A1.4,1.4,0,0,0,174.5,308.4ZM184.9,390a1.4,1.4,0,0,0-1.4,1.4,1.4,1.4,0,0,0,2.8,0A1.4,1.4,0,0,0,184.9,390Zm66.5,39.4a1.4,1.4,0,0,0,0,2.8,1.4,1.4,0,0,0,0-2.8Zm72.5-10.6a1.4,1.4,0,1,0,0,2.8,1.4,1.4,0,0,0,0-2.8Zm10-57.7a1.4,1.4,0,0,0,0,2.8,1.4,1.4,0,1,0,0-2.8Zm24.3-.8a1.4,1.4,0,1,0,1.4,1.4A1.4,1.4,0,0,0,358.2,360.3Zm16.9,12.8a1.4,1.4,0,0,0-1.4,1.4,1.4,1.4,0,1,0,2.8,0A1.4,1.4,0,0,0,375.1,373.1ZM356.5,427a1.4,1.4,0,1,0,0,2.8,1.4,1.4,0,1,0,0-2.8ZM300,419.9a1.4,1.4,0,0,0,0,2.8,1.4,1.4,0,0,0,0-2.8Zm84.6-12.1a1.4,1.4,0,0,0-1.4,1.4,1.4,1.4,0,0,0,1.4,1.4,1.5,1.5,0,0,0,1.4-1.4A1.4,1.4,0,0,0,384.6,407.8Zm40.2-75.5a1.4,1.4,0,0,0-1.4,1.4,1.4,1.4,0,0,0,2.8,0A1.4,1.4,0,0,0,424.8,332.3ZM432,264a1.3,1.3,0,0,0-1.3,1.4,1.4,1.4,0,0,0,1.3,1.4,1.4,1.4,0,0,0,1.4-1.4A1.4,1.4,0,0,0,432,264Zm-49.8-37.2a1.4,1.4,0,1,0,0,2.8,1.4,1.4,0,1,0,0-2.8Zm-9.5-14.2a1.4,1.4,0,1,0,0,2.8,1.4,1.4,0,0,0,0-2.8Zm-40.6-25.1a1.4,1.4,0,1,0,1.4,1.4A1.4,1.4,0,0,0,332.1,187.5Zm-6.3,1.2a1.4,1.4,0,0,0-1.4,1.4,1.4,1.4,0,0,0,1.4,1.4,1.5,1.5,0,0,0,1.4-1.4A1.4,1.4,0,0,0,325.8,188.7Zm-40.3-32.9a1.3,1.3,0,0,0-1.3,1.3,1.3,1.3,0,0,0,1.3,1.4,1.4,1.4,0,0,0,1.4-1.4A1.3,1.3,0,0,0,285.5,155.8Zm-76.3,23.5a1.4,1.4,0,0,0-1.4,1.4,1.4,1.4,0,0,0,2.8,0A1.4,1.4,0,0,0,209.2,179.3Zm-67.7,36.6a1.5,1.5,0,0,0-1.4,1.4,1.4,1.4,0,0,0,1.4,1.4,1.4,1.4,0,0,0,1.4-1.4A1.4,1.4,0,0,0,141.5,215.9Zm-11.9,63.4a1.4,1.4,0,1,0,1.4,1.4A1.4,1.4,0,0,0,129.6,279.3Zm28.6,1.5a1.4,1.4,0,0,0-1.4,1.4,1.3,1.3,0,0,0,1.4,1.3,1.4,1.4,0,0,0,1.4-1.3A1.4,1.4,0,0,0,158.2,280.8Zm5.8-38.4a1.3,1.3,0,0,0-1.3,1.4,1.4,1.4,0,0,0,1.3,1.4,1.4,1.4,0,0,0,1.4-1.4A1.4,1.4,0,0,0,164,242.4Zm-2-10.5a1.4,1.4,0,0,0-1.4,1.4,1.4,1.4,0,0,0,2.8,0A1.4,1.4,0,0,0,162,231.9Zm61.9,52.8a1.4,1.4,0,1,0,1.4,1.4A1.4,1.4,0,0,0,223.9,284.7Zm150.8,51.1a1.4,1.4,0,1,0,0,2.8,1.4,1.4,0,1,0,0-2.8Zm85.1-80.7a1.4,1.4,0,0,0-1.4,1.4,1.4,1.4,0,1,0,2.8,0A1.4,1.4,0,0,0,459.8,255.1Zm-29.1,106a1.3,1.3,0,0,0-1.4,1.3,1.4,1.4,0,0,0,1.4,1.4,1.3,1.3,0,0,0,1.3-1.4A1.3,1.3,0,0,0,430.7,361.1Zm-1.9,8.3a1.4,1.4,0,0,0,0,2.8,1.4,1.4,0,0,0,0-2.8Zm9.6-93.7a1.4,1.4,0,0,0-1.4,1.4,1.4,1.4,0,0,0,2.8,0A1.4,1.4,0,0,0,438.4,275.7Zm-.6,44.7a1.4,1.4,0,0,0-1.4,1.4,1.4,1.4,0,1,0,2.8,0A1.4,1.4,0,0,0,437.8,320.4Zm18.3,63.1a1.4,1.4,0,1,0,0,2.8,1.4,1.4,0,1,0,0-2.8Z"></path>
  
	<path id="pun2" class="cls-3" d="M322.9,257.7a1.5,1.5,0,0,1-1.4,1.4,1.4,1.4,0,0,1-1.4-1.4,1.4,1.4,0,0,1,1.4-1.4A1.4,1.4,0,0,1,322.9,257.7Zm10.7,44.4a1.4,1.4,0,0,0,0,2.8,1.4,1.4,0,0,0,0-2.8ZM332,286a1.4,1.4,0,0,0-1.4,1.4,1.4,1.4,0,0,0,2.8,0A1.4,1.4,0,0,0,332,286Zm4.1-20.6a1.4,1.4,0,0,0-1.4,1.3,1.4,1.4,0,0,0,1.4,1.4,1.4,1.4,0,0,0,1.4-1.4A1.3,1.3,0,0,0,336.1,265.4ZM347,279.2a1.3,1.3,0,0,0-1.4,1.3,1.4,1.4,0,0,0,1.4,1.4,1.4,1.4,0,0,0,1.4-1.4A1.4,1.4,0,0,0,347,279.2Zm21.2,4.9a1.4,1.4,0,0,0,0,2.8,1.4,1.4,0,1,0,0-2.8Zm12.5,4.9a1.4,1.4,0,1,0,0,2.8,1.4,1.4,0,1,0,0-2.8Zm-61.5,10.9a1.4,1.4,0,0,0-1.4,1.4,1.4,1.4,0,0,0,1.4,1.4,1.4,1.4,0,0,0,1.4-1.4A1.5,1.5,0,0,0,319.2,299.9Zm48.4,27.9a1.4,1.4,0,0,0-1.4,1.4,1.4,1.4,0,0,0,1.4,1.4,1.4,1.4,0,0,0,1.4-1.4A1.5,1.5,0,0,0,367.6,327.8Zm-2.3-51a1.4,1.4,0,1,0,0,2.8,1.4,1.4,0,1,0,0-2.8Zm-36.7-15.2a1.4,1.4,0,0,0,0,2.8,1.4,1.4,0,0,0,0-2.8Zm-60.5,57a1.4,1.4,0,0,0,0,2.8,1.4,1.4,0,0,0,0-2.8Zm62,1.4a1.4,1.4,0,1,0,0,2.8,1.4,1.4,0,1,0,0-2.8Zm-9.4-1.3a1.4,1.4,0,0,0-1.4,1.4,1.5,1.5,0,0,0,1.4,1.4,1.4,1.4,0,0,0,1.4-1.4A1.4,1.4,0,0,0,320.7,318.7ZM318.4,290a1.4,1.4,0,0,0-1.4,1.4,1.4,1.4,0,0,0,2.8,0A1.4,1.4,0,0,0,318.4,290ZM298,266.8a1.4,1.4,0,1,0,1.4,1.4A1.4,1.4,0,0,0,298,266.8Zm-23.9,23a1.3,1.3,0,0,0-1.3,1.4,1.4,1.4,0,0,0,1.3,1.4,1.4,1.4,0,0,0,1.4-1.4A1.4,1.4,0,0,0,274.1,289.8Zm-40,.2a1.4,1.4,0,0,0-1.3,1.4,1.3,1.3,0,0,0,1.3,1.4,1.4,1.4,0,0,0,1.4-1.4A1.4,1.4,0,0,0,234.1,290Zm23.4-.9a1.4,1.4,0,0,0,0,2.8,1.4,1.4,0,0,0,0-2.8Zm10.7-89.8a1.3,1.3,0,0,0-1.3,1.3,1.3,1.3,0,0,0,1.3,1.4,1.4,1.4,0,0,0,1.4-1.4A1.3,1.3,0,0,0,268.2,199.3ZM231.9,336a1.4,1.4,0,0,0-1.4,1.4,1.4,1.4,0,0,0,2.8,0A1.4,1.4,0,0,0,231.9,336Zm51.2-81.8a1.4,1.4,0,0,0,0,2.8,1.4,1.4,0,0,0,0-2.8Zm107.5,82.9a1.4,1.4,0,0,0-1.4,1.4,1.4,1.4,0,0,0,1.4,1.4,1.3,1.3,0,0,0,1.3-1.4A1.4,1.4,0,0,0,390.6,337.1Zm-38.4,4.1a1.3,1.3,0,0,0-1.4,1.3,1.4,1.4,0,0,0,1.4,1.4,1.3,1.3,0,0,0,1.3-1.4A1.3,1.3,0,0,0,352.2,341.2Zm-12-28.5a1.4,1.4,0,1,0,1.4,1.4A1.4,1.4,0,0,0,340.2,312.7Zm-28.6,72a1.4,1.4,0,0,0-1.4,1.4,1.4,1.4,0,0,0,1.4,1.4,1.5,1.5,0,0,0,1.4-1.4A1.4,1.4,0,0,0,311.6,384.7Zm90.6-85.1a1.4,1.4,0,1,0,1.4,1.4A1.4,1.4,0,0,0,402.2,299.6Zm18,16.4a1.4,1.4,0,1,0,1.4,1.4A1.4,1.4,0,0,0,420.2,316Zm12.4-25.1a1.4,1.4,0,1,0,1.4,1.4A1.4,1.4,0,0,0,432.6,290.9ZM345,356.2a1.4,1.4,0,0,0-1.4,1.3,1.4,1.4,0,0,0,1.4,1.4,1.4,1.4,0,0,0,1.4-1.4A1.3,1.3,0,0,0,345,356.2Zm34.3-50.8a1.3,1.3,0,0,0-1.3,1.4,1.3,1.3,0,0,0,1.3,1.3,1.3,1.3,0,0,0,1.4-1.3A1.4,1.4,0,0,0,379.3,305.4Zm-49.5,59.5a1.4,1.4,0,0,0-1.4,1.4,1.4,1.4,0,0,0,1.4,1.4,1.3,1.3,0,0,0,1.3-1.4A1.4,1.4,0,0,0,329.8,364.9Zm-87.7-84.7a1.4,1.4,0,0,0-1.4,1.4,1.4,1.4,0,0,0,1.4,1.4,1.4,1.4,0,0,0,1.4-1.4A1.5,1.5,0,0,0,242.1,280.2Zm37.2,105.2a1.4,1.4,0,0,0,0,2.8,1.4,1.4,0,0,0,0-2.8Zm-8.8-31.5a1.4,1.4,0,0,0-1.4,1.4,1.4,1.4,0,0,0,1.4,1.4,1.4,1.4,0,0,0,1.4-1.4A1.5,1.5,0,0,0,270.5,353.9Zm8.3,5.1a1.4,1.4,0,0,0-1.4,1.4,1.4,1.4,0,0,0,2.8,0A1.4,1.4,0,0,0,278.8,359Zm2.6-16.7a1.4,1.4,0,0,0-1.4,1.4,1.4,1.4,0,0,0,1.4,1.3,1.3,1.3,0,0,0,1.4-1.3A1.4,1.4,0,0,0,281.4,342.3Zm22.4,1.7a1.4,1.4,0,0,0-1.4,1.4,1.4,1.4,0,0,0,1.4,1.4,1.3,1.3,0,0,0,1.3-1.4A1.4,1.4,0,0,0,303.8,344Zm53.8,9.5a1.4,1.4,0,0,0-1.4,1.4,1.4,1.4,0,0,0,1.4,1.4,1.3,1.3,0,0,0,1.3-1.4A1.4,1.4,0,0,0,357.6,353.5Zm56.9-14.8a1.5,1.5,0,0,0-1.4,1.4,1.4,1.4,0,0,0,1.4,1.4,1.4,1.4,0,0,0,1.4-1.4A1.4,1.4,0,0,0,414.5,338.7ZM220,263.8a1.4,1.4,0,0,0-1.4,1.4,1.4,1.4,0,0,0,2.8,0A1.4,1.4,0,0,0,220,263.8Zm111.3-27.2a1.4,1.4,0,0,0,0,2.8,1.4,1.4,0,0,0,0-2.8Zm-36.5-34a1.4,1.4,0,0,0-1.4,1.4,1.4,1.4,0,0,0,1.4,1.3,1.3,1.3,0,0,0,1.4-1.3A1.4,1.4,0,0,0,294.8,202.6Zm-24.1,24a1.4,1.4,0,0,0-1.4,1.4,1.3,1.3,0,0,0,1.4,1.3,1.4,1.4,0,0,0,1.4-1.3A1.4,1.4,0,0,0,270.7,226.6Zm1,13.1a1.4,1.4,0,1,0,1.4,1.4A1.4,1.4,0,0,0,271.7,239.7ZM390,208a1.4,1.4,0,1,0,0,2.8,1.4,1.4,0,0,0,0-2.8Zm-60,73.2a1.4,1.4,0,0,0,0,2.8,1.4,1.4,0,0,0,0-2.8Zm-25.6,24.3a1.4,1.4,0,1,0,0,2.8,1.4,1.4,0,1,0,0-2.8Zm-29.9-1.9a1.4,1.4,0,0,0-1.4,1.3,1.4,1.4,0,0,0,1.4,1.4,1.4,1.4,0,0,0,1.4-1.4A1.3,1.3,0,0,0,274.5,303.6Zm37.9-20.7a1.3,1.3,0,0,0-1.4,1.3,1.4,1.4,0,0,0,1.4,1.4,1.3,1.3,0,0,0,1.3-1.4A1.3,1.3,0,0,0,312.4,282.9Zm46.4-38.8a1.4,1.4,0,1,0,1.4,1.4A1.4,1.4,0,0,0,358.8,244.1Zm30.6-31.9a1.4,1.4,0,1,0,0,2.8,1.4,1.4,0,1,0,0-2.8Zm13.7,28.3a1.4,1.4,0,0,0,0,2.8,1.4,1.4,0,0,0,0-2.8Zm11.7,56.2a1.4,1.4,0,0,0-1.4,1.4,1.4,1.4,0,0,0,1.4,1.4,1.3,1.3,0,0,0,1.3-1.4A1.4,1.4,0,0,0,414.8,296.7Zm11.2-50a1.4,1.4,0,1,0,0,2.8,1.4,1.4,0,0,0,0-2.8Zm-5,138a1.4,1.4,0,0,0-1.4,1.4,1.4,1.4,0,0,0,2.8,0A1.4,1.4,0,0,0,421,384.7Zm67.2-102.1a1.4,1.4,0,1,0,1.4,1.4A1.4,1.4,0,0,0,488.2,282.6ZM560,300.9a1.5,1.5,0,0,0-1.4,1.4,1.4,1.4,0,0,0,1.4,1.4,1.4,1.4,0,0,0,1.4-1.4A1.4,1.4,0,0,0,560,300.9Zm17.4,23.7a1.4,1.4,0,0,0,0,2.8,1.4,1.4,0,0,0,0-2.8Zm-41.1-22.7a1.4,1.4,0,0,0-1.4,1.4,1.3,1.3,0,0,0,1.4,1.3,1.4,1.4,0,0,0,1.4-1.3A1.4,1.4,0,0,0,536.3,301.9Zm62.9,12.3a1.4,1.4,0,1,0,1.4,1.4A1.4,1.4,0,0,0,599.2,314.2Zm-83.6,56.7a1.3,1.3,0,0,0-1.4,1.3,1.4,1.4,0,0,0,1.4,1.4,1.3,1.3,0,0,0,1.3-1.4A1.3,1.3,0,0,0,515.6,370.9Zm-65.2,25.7A1.4,1.4,0,0,0,449,398a1.4,1.4,0,1,0,2.8,0A1.4,1.4,0,0,0,450.4,396.6Zm39.8,57.1a1.4,1.4,0,0,0-1.4,1.4,1.4,1.4,0,1,0,2.8,0A1.4,1.4,0,0,0,490.2,453.7Zm-42.8-.9a1.4,1.4,0,1,0,0,2.8,1.4,1.4,0,0,0,0-2.8ZM437.1,478a1.4,1.4,0,0,0-1.4,1.4,1.4,1.4,0,0,0,1.4,1.4,1.4,1.4,0,0,0,1.4-1.4A1.5,1.5,0,0,0,437.1,478ZM391,384.8a1.4,1.4,0,0,0,0,2.8,1.4,1.4,0,1,0,0-2.8ZM271.1,497.7a1.4,1.4,0,0,0-1.4,1.4,1.4,1.4,0,0,0,1.4,1.4,1.5,1.5,0,0,0,1.4-1.4A1.4,1.4,0,0,0,271.1,497.7ZM261.2,446a1.4,1.4,0,1,0,0,2.8,1.4,1.4,0,1,0,0-2.8ZM211,497.1a1.4,1.4,0,0,0-1.4,1.4,1.4,1.4,0,0,0,1.4,1.4,1.4,1.4,0,0,0,1.4-1.4A1.5,1.5,0,0,0,211,497.1Zm57.2-78.3a1.5,1.5,0,0,0-1.4,1.4,1.4,1.4,0,0,0,1.4,1.4,1.4,1.4,0,0,0,1.4-1.4A1.4,1.4,0,0,0,268.2,418.8Zm32.3-139.3a1.4,1.4,0,1,0,1.4,1.4A1.4,1.4,0,0,0,300.5,279.5ZM40.6,381.8a1.5,1.5,0,0,0-1.4,1.4,1.4,1.4,0,0,0,1.4,1.4,1.4,1.4,0,0,0,1.4-1.4A1.4,1.4,0,0,0,40.6,381.8Zm78.5-23.7a1.4,1.4,0,1,0,1.4,1.4A1.4,1.4,0,0,0,119.1,358.1ZM79.2,425.4a1.4,1.4,0,0,0-1.4,1.4,1.4,1.4,0,1,0,2.8,0A1.4,1.4,0,0,0,79.2,425.4Zm21.9,18.1a1.4,1.4,0,0,0-1.4,1.4,1.5,1.5,0,0,0,1.4,1.4,1.4,1.4,0,0,0,1.4-1.4A1.4,1.4,0,0,0,101.1,443.5ZM94.6,305.2a1.4,1.4,0,0,0,0,2.8,1.4,1.4,0,0,0,0-2.8ZM65.7,226.7a1.4,1.4,0,0,0-1.4,1.4,1.3,1.3,0,0,0,1.4,1.3,1.4,1.4,0,0,0,1.4-1.3A1.4,1.4,0,0,0,65.7,226.7Zm53.9,63.8a1.4,1.4,0,1,0,1.4,1.4A1.4,1.4,0,0,0,119.6,290.5Zm9.7-60.1a1.4,1.4,0,0,0-1.4,1.4,1.4,1.4,0,1,0,2.8,0A1.4,1.4,0,0,0,129.3,230.4Zm-14.7-41a1.4,1.4,0,1,0,1.4,1.4A1.4,1.4,0,0,0,114.6,189.4ZM163,152.3a1.4,1.4,0,0,0-1.4,1.4,1.4,1.4,0,0,0,2.8,0A1.4,1.4,0,0,0,163,152.3Zm2.4,3.8a1.4,1.4,0,0,0-1.4,1.4,1.3,1.3,0,0,0,1.4,1.3,1.3,1.3,0,0,0,1.3-1.3A1.3,1.3,0,0,0,165.4,156.1Zm-23.3-39.2a1.4,1.4,0,0,0-1.4,1.4,1.4,1.4,0,0,0,2.8,0A1.4,1.4,0,0,0,142.1,116.9Zm93,116.1a1.4,1.4,0,0,0-1.4,1.4,1.4,1.4,0,0,0,1.4,1.4,1.5,1.5,0,0,0,1.4-1.4A1.4,1.4,0,0,0,235.1,233Zm73.8-86.2a1.3,1.3,0,0,0-1.4,1.3,1.4,1.4,0,0,0,1.4,1.4,1.4,1.4,0,0,0,1.4-1.4A1.4,1.4,0,0,0,308.9,146.8Zm16.8-37.2a1.4,1.4,0,0,0-1.4,1.4,1.4,1.4,0,0,0,2.8,0A1.4,1.4,0,0,0,325.7,109.6Zm4.8,5.5a1.4,1.4,0,0,0-1.4,1.4,1.3,1.3,0,0,0,1.4,1.3,1.4,1.4,0,0,0,1.4-1.3A1.4,1.4,0,0,0,330.5,115.1ZM381.1,195a1.3,1.3,0,0,0-1.4,1.3,1.4,1.4,0,0,0,1.4,1.4,1.4,1.4,0,0,0,1.4-1.4A1.4,1.4,0,0,0,381.1,195Zm63.4-82.5a1.4,1.4,0,1,0,0,2.8,1.4,1.4,0,0,0,0-2.8Zm-21.1,73.1a1.4,1.4,0,1,0,0,2.8,1.4,1.4,0,1,0,0-2.8Zm54.6-14a1.4,1.4,0,0,0-1.4,1.4,1.4,1.4,0,0,0,1.4,1.3,1.3,1.3,0,0,0,1.4-1.3A1.4,1.4,0,0,0,478,171.6Zm36.9,20.8a1.4,1.4,0,0,0-1.4,1.4,1.4,1.4,0,0,0,1.4,1.4,1.4,1.4,0,0,0,1.4-1.4A1.5,1.5,0,0,0,514.9,192.4Zm-51.2,61.1a1.4,1.4,0,0,0-1.4,1.4,1.3,1.3,0,0,0,1.4,1.3,1.4,1.4,0,0,0,1.4-1.3A1.4,1.4,0,0,0,463.7,253.5Zm71.6,2.9a1.4,1.4,0,0,0,0,2.8,1.4,1.4,0,1,0,0-2.8ZM354.3,194a1.4,1.4,0,0,0,0,2.8,1.4,1.4,0,0,0,0-2.8ZM249.2,275.7a1.4,1.4,0,1,0,1.4,1.4A1.4,1.4,0,0,0,249.2,275.7Zm-52-12.8a1.5,1.5,0,0,0-1.4,1.4,1.4,1.4,0,0,0,1.4,1.4,1.4,1.4,0,0,0,1.4-1.4A1.4,1.4,0,0,0,197.2,262.9ZM225.4,380a1.4,1.4,0,0,0-1.4,1.4,1.5,1.5,0,0,0,1.4,1.4,1.4,1.4,0,0,0,1.4-1.4A1.4,1.4,0,0,0,225.4,380ZM168.5,223.2a1.4,1.4,0,0,0,0,2.8,1.4,1.4,0,0,0,0-2.8Zm11.8,112.9a1.4,1.4,0,0,0-1.4,1.4,1.4,1.4,0,0,0,1.4,1.4,1.5,1.5,0,0,0,1.4-1.4A1.4,1.4,0,0,0,180.3,336.1Zm81.3,45.4a1.4,1.4,0,1,0,1.4,1.4A1.4,1.4,0,0,0,261.6,381.5Zm110.2,29.9a1.4,1.4,0,0,0,0,2.8,1.4,1.4,0,0,0,0-2.8Zm34.9-164.1a1.4,1.4,0,0,0,0,2.8,1.4,1.4,0,1,0,0-2.8ZM313,181a1.4,1.4,0,1,0,0,2.8,1.4,1.4,0,0,0,0-2.8Zm103.7,59.2a1.3,1.3,0,0,0-1.3,1.3,1.3,1.3,0,0,0,1.3,1.4,1.4,1.4,0,0,0,1.4-1.4A1.3,1.3,0,0,0,416.7,240.2Zm-24.4,82.2a1.4,1.4,0,0,0,0,2.8,1.4,1.4,0,0,0,0-2.8Zm-83.4-11.1a1.4,1.4,0,0,0-1.4,1.4,1.5,1.5,0,0,0,1.4,1.4,1.4,1.4,0,0,0,1.4-1.4A1.4,1.4,0,0,0,308.9,311.3Zm-41.7-38a1.4,1.4,0,1,0,1.4,1.4A1.4,1.4,0,0,0,267.2,273.3Zm11.4-12.2a1.4,1.4,0,0,0-1.4,1.4,1.4,1.4,0,0,0,1.4,1.4,1.3,1.3,0,0,0,1.3-1.4A1.4,1.4,0,0,0,278.6,261.1ZM344,328.3a1.4,1.4,0,0,0-1.4,1.4,1.4,1.4,0,0,0,2.8,0A1.4,1.4,0,0,0,344,328.3Zm-41.2,21.6a1.4,1.4,0,0,0-1.4,1.4,1.4,1.4,0,1,0,2.8,0A1.4,1.4,0,0,0,302.8,349.9Zm26.7,11.5a1.4,1.4,0,0,0-1.4,1.4,1.4,1.4,0,0,0,1.4,1.4,1.4,1.4,0,0,0,1.4-1.4A1.5,1.5,0,0,0,329.5,361.4Zm52.8-32.8a1.4,1.4,0,0,0,0,2.8,1.4,1.4,0,0,0,0-2.8Z"></path>
  
	<g id="eletr">
    <path id="eleOr" class="cls-4" d="M427.4,427.4a4.6,4.6,0,0,1-4.6,4.5,4.6,4.6,0,1,1,0-9.1A4.6,4.6,0,0,1,427.4,427.4ZM250.7,241.7a4.6,4.6,0,1,0,4.6,4.6A4.6,4.6,0,0,0,250.7,241.7Zm94.6-78.9a4.6,4.6,0,1,0,4.5,4.6A4.6,4.6,0,0,0,345.3,162.8ZM320.7,331.5a4.6,4.6,0,1,0,4.6,4.5A4.6,4.6,0,0,0,320.7,331.5Zm35.9,129.8a4.6,4.6,0,1,0,4.5,4.6A4.6,4.6,0,0,0,356.6,461.3Zm70.9-183.1a4.6,4.6,0,1,0,4.5,4.6A4.5,4.5,0,0,0,427.5,278.2ZM193.8,302.4a4.6,4.6,0,1,0,4.6,4.6A4.6,4.6,0,0,0,193.8,302.4Zm0-127a4.6,4.6,0,1,0,4.6,4.5A4.5,4.5,0,0,0,193.8,175.4ZM300.1,397.9a4.6,4.6,0,1,0,4.6,4.5A4.6,4.6,0,0,0,300.1,397.9Zm127-47.8a4.6,4.6,0,1,0,4.6,4.6A4.7,4.7,0,0,0,427.1,350.1Zm91.3-42a4.6,4.6,0,1,0,4.6,4.6A4.6,4.6,0,0,0,518.4,308.1ZM158.5,105.3a4.6,4.6,0,1,0,4.6,4.6A4.6,4.6,0,0,0,158.5,105.3Zm317.1,243a4.6,4.6,0,1,0,0,9.1,4.6,4.6,0,1,0,0-9.1Zm53.1-119.1a4.6,4.6,0,1,0,4.6,4.6A4.7,4.7,0,0,0,528.7,229.2Z"></path>
    <path id="eleVer" class="cls-4" d="M451.6,311.6a4.6,4.6,0,1,0,4.5,4.6A4.6,4.6,0,0,0,451.6,311.6ZM309,231.9a4.6,4.6,0,1,0,4.6,4.6A4.6,4.6,0,0,0,309,231.9ZM121,172.2a4.6,4.6,0,1,0,4.6,4.6A4.7,4.7,0,0,0,121,172.2Zm333.4,64.3A4.6,4.6,0,1,0,459,241,4.5,4.5,0,0,0,454.4,236.5ZM140.1,373.4a4.6,4.6,0,1,0,4.5,4.6A4.6,4.6,0,0,0,140.1,373.4Zm314.8,17.1a4.6,4.6,0,1,0,4.6,4.6A4.6,4.6,0,0,0,454.9,390.5Zm55.5-220.4a4.6,4.6,0,1,0,4.6,4.6A4.5,4.5,0,0,0,510.4,170.1ZM266.3,351.3a4.6,4.6,0,1,0,4.6,4.6A4.6,4.6,0,0,0,266.3,351.3ZM284.7,476a4.6,4.6,0,1,0,4.5,4.6A4.5,4.5,0,0,0,284.7,476Zm73.2-88.8a4.6,4.6,0,1,0,4.6,4.5A4.5,4.5,0,0,0,357.9,387.2Z"></path>
    <path id="eleSt" class="cls-4" d="M377.2,311.8a4.6,4.6,0,1,0,4.6,4.5A4.5,4.5,0,0,0,377.2,311.8ZM163.1,436.3a4.6,4.6,0,1,0,4.6,4.6A4.7,4.7,0,0,0,163.1,436.3Zm92.2,78.2a4.6,4.6,0,1,0,4.6,4.5A4.5,4.5,0,0,0,255.3,514.5ZM491.6,394.2a4.6,4.6,0,1,0,4.6,4.6A4.7,4.7,0,0,0,491.6,394.2ZM328.9,373.4a4.6,4.6,0,1,0,4.6,4.6A4.7,4.7,0,0,0,328.9,373.4ZM405,90.1a4.5,4.5,0,0,0-4.5,4.6,4.6,4.6,0,1,0,4.5-4.6Zm146.6,86.7a4.6,4.6,0,1,0,4.6,4.6A4.6,4.6,0,0,0,551.6,176.8ZM376.2,229.3a4.6,4.6,0,1,0,0,9.2,4.6,4.6,0,1,0,0-9.2ZM216.5,88.2a4.6,4.6,0,1,0,4.6,4.6A4.7,4.7,0,0,0,216.5,88.2Zm31,29.2a4.6,4.6,0,1,0,4.6,4.6A4.5,4.5,0,0,0,247.5,117.4ZM110.4,310.9a4.6,4.6,0,1,0,4.6,4.6A4.6,4.6,0,0,0,110.4,310.9ZM232,205.9a4.6,4.6,0,1,0,4.6,4.6A4.6,4.6,0,0,0,232,205.9Zm63.5,52.3a4.6,4.6,0,1,0,4.6,4.5A4.5,4.5,0,0,0,295.5,258.2Zm199.4,8.5a4.6,4.6,0,1,0,4.6,4.6A4.7,4.7,0,0,0,494.9,266.7Zm35.7,86.2a4.6,4.6,0,1,0,4.5,4.5A4.5,4.5,0,0,0,530.6,352.9Z"></path>
  </g>
	
	

	<g id="invo">
		
  <g id="molecola">
    <g id="o7" class="cubo">
      <polygon class="cls-7" points="395 190.1 381.7 197.9 368.3 190.1 368.3 174.7 381.7 167 395 174.7 395 190.1"></polygon>
      <polygon class="cls-8" points="381.7 172.1 372.7 177.3 381.7 182.4 390.6 177.3 381.7 172.1"></polygon>
      <polygon class="cls-9" points="372.7 177.3 372.7 187.6 381.7 192.7 381.7 182.4 372.7 177.3"></polygon>
      <polygon class="cls-10" points="390.6 177.3 390.6 187.6 381.7 192.7 381.7 182.4 390.6 177.3"></polygon>
    </g>
    <g id="o7-2" data-name="o7" class="cubo2">
      <polygon class="cls-7" points="330.2 227.6 316.9 235.3 303.5 227.6 303.5 212.1 316.9 204.4 330.2 212.1 330.2 227.6"></polygon>
      <polygon class="cls-8" points="316.9 209.5 307.9 214.7 316.9 219.8 325.8 214.7 316.9 209.5"></polygon>
      <polygon class="cls-9" points="307.9 214.7 307.9 225 316.9 230.1 316.9 219.8 307.9 214.7"></polygon>
      <polygon class="cls-10" points="325.8 214.7 325.8 225 316.9 230.1 316.9 219.8 325.8 214.7"></polygon>
    </g>
    <g id="o7-3" data-name="o7" class="cubo">
      <polygon class="cls-7" points="330.2 302.4 316.9 310.1 303.5 302.4 303.5 286.9 316.9 279.2 330.2 286.9 330.2 302.4"></polygon>
      <polygon class="cls-8" points="316.9 284.3 307.9 289.5 316.9 294.7 325.8 289.5 316.9 284.3"></polygon>
      <polygon class="cls-9" points="307.9 289.5 307.9 299.8 316.9 305 316.9 294.7 307.9 289.5"></polygon>
      <polygon class="cls-10" points="325.8 289.5 325.8 299.8 316.9 305 316.9 294.7 325.8 289.5"></polygon>
    </g>
    <g id="o7-4" data-name="o7" class="cubo2">
      <polygon class="cls-7" points="265.5 339.8 252.1 347.5 238.7 339.8 238.7 324.3 252.1 316.6 265.5 324.3 265.5 339.8"></polygon>
      <polygon class="cls-8" points="252.1 321.8 243.1 326.9 252.1 332.1 261 326.9 252.1 321.8"></polygon>
      <polygon class="cls-9" points="243.1 326.9 243.1 337.2 252.1 342.4 252.1 332.1 243.1 326.9"></polygon>
      <polygon class="cls-10" points="261 326.9 261 337.2 252.1 342.4 252.1 332.1 261 326.9"></polygon>
    </g>
    <g id="o7-5" data-name="o7" class="cubo">
      <polygon class="cls-7" points="200.7 302.4 187.3 310.1 173.9 302.4 173.9 286.9 187.3 279.2 200.7 286.9 200.7 302.4"></polygon>
      <polygon class="cls-8" points="187.3 284.3 178.3 289.5 187.3 294.7 196.2 289.5 187.3 284.3"></polygon>
      <polygon class="cls-9" points="178.3 289.5 178.3 299.8 187.3 305 187.3 294.7 178.3 289.5"></polygon>
      <polygon class="cls-10" points="196.2 289.5 196.2 299.8 187.3 305 187.3 294.7 196.2 289.5"></polygon>
    </g>
    <g id="o7-6" data-name="o7" class="cubo">
      <polygon class="cls-7" points="135.9 339.8 122.5 347.5 109.1 339.8 109.1 324.3 122.5 316.6 135.9 324.3 135.9 339.8"></polygon>
      <polygon class="cls-16" points="122.5 321.8 113.5 326.9 122.5 332.1 131.4 326.9 122.5 321.8"></polygon>
      <polygon class="cls-17" points="113.5 326.9 113.5 337.2 122.5 342.4 122.5 332.1 113.5 326.9"></polygon>
      <polygon class="cls-18" points="131.4 326.9 131.4 337.2 122.5 342.4 122.5 332.1 131.4 326.9"></polygon>
    </g>
    <g id="o7-7" data-name="o7" class="cubo">
      <polygon class="cls-7" points="395 339.8 381.7 347.5 368.3 339.8 368.3 324.3 381.7 316.6 395 324.3 395 339.8"></polygon>
      <polygon class="cls-8" points="381.7 321.8 372.7 326.9 381.7 332.1 390.6 326.9 381.7 321.8"></polygon>
      <polygon class="cls-9" points="372.7 326.9 372.7 337.2 381.7 342.4 381.7 332.1 372.7 326.9"></polygon>
      <polygon class="cls-10" points="390.6 326.9 390.6 337.2 381.7 342.4 381.7 332.1 390.6 326.9"></polygon>
    </g>
    <g id="o7-8" data-name="o7" class="cubo2">
      <polygon class="cls-7" points="459.8 302.4 446.5 310.1 433.1 302.4 433.1 286.9 446.5 279.2 459.8 286.9 459.8 302.4"></polygon>
      <polygon class="cls-8" points="446.5 284.3 437.5 289.5 446.5 294.6 455.4 289.5 446.5 284.3"></polygon>
      <polygon class="cls-9" points="437.5 289.5 437.5 299.8 446.5 305 446.5 294.6 437.5 289.5"></polygon>
      <polygon class="cls-10" points="455.4 289.5 455.4 299.8 446.5 305 446.5 294.6 455.4 289.5"></polygon>
    </g>
    <g id="o7-9" data-name="o7" class="cubo">
      <polygon class="cls-7" points="524.6 339.8 511.3 347.5 497.9 339.8 497.9 324.3 511.3 316.6 524.6 324.3 524.6 339.8"></polygon>
      <polygon class="cls-19" points="511.3 321.8 502.3 326.9 511.3 332.1 520.2 326.9 511.3 321.8"></polygon>
      <polygon class="cls-20" points="502.3 326.9 502.3 337.2 511.3 342.4 511.3 332.1 502.3 326.9"></polygon>
      <polygon class="cls-21" points="520.2 326.9 520.2 337.2 511.3 342.4 511.3 332.1 520.2 326.9"></polygon>
    </g>
    <g id="o7-10" data-name="o7" class="cubo2">
      <polygon class="cls-7" points="459.8 227.6 446.5 235.3 433.1 227.6 433.1 212.1 446.5 204.4 459.8 212.1 459.8 227.6"></polygon>
      <polygon class="cls-8" points="446.5 209.5 437.5 214.7 446.5 219.8 455.4 214.7 446.5 209.5"></polygon>
      <polygon class="cls-9" points="437.5 214.7 437.5 225 446.5 230.1 446.5 219.8 437.5 214.7"></polygon>
      <polygon class="cls-10" points="455.4 214.7 455.4 225 446.5 230.1 446.5 219.8 455.4 214.7"></polygon>
    </g>
    <g id="o7-11" data-name="o7" class="cubo">
      <polygon class="cls-7" points="524.6 190.1 511.3 197.9 497.9 190.1 497.9 174.7 511.3 167 524.6 174.7 524.6 190.1"></polygon>
      <polygon class="cls-19" points="511.3 172.1 502.3 177.3 511.3 182.4 520.2 177.3 511.3 172.1"></polygon>
      <polygon class="cls-20" points="502.3 177.3 502.3 187.6 511.3 192.7 511.3 182.4 502.3 177.3"></polygon>
      <polygon class="cls-21" points="520.2 177.3 520.2 187.6 511.3 192.7 511.3 182.4 520.2 177.3"></polygon>
    </g>
    <g>
      <line class="cls-11" x1="357.6" y1="190.7" x2="336" y2="203.1"></line>
      <path class="cls-7" d="M355.8,187.4a3.7,3.7,0,1,1,3.7,6.5,3.7,3.7,0,0,1-3.7-6.5Z"></path>
      <path class="cls-7" d="M334.2,199.9a3.7,3.7,0,0,0-1.4,5.1,3.7,3.7,0,0,0,6.5-3.7A3.7,3.7,0,0,0,334.2,199.9Z"></path>
    </g>
    <g>
      <line class="cls-11" x1="362.5" y1="199.1" x2="340.9" y2="211.5"></line>
      <path class="cls-7" d="M360.6,195.8a3.7,3.7,0,0,1,5.1,1.4,3.6,3.6,0,0,1-1.3,5.1,3.8,3.8,0,0,1-5.2-1.4A3.7,3.7,0,0,1,360.6,195.8Z"></path>
      <path class="cls-7" d="M339,208.3a3.7,3.7,0,0,0-1.4,5.1,3.9,3.9,0,0,0,5.2,1.4,3.8,3.8,0,0,0-3.8-6.5Z"></path>
    </g>
    <g>
      <line class="cls-11" x1="424.9" y1="307.1" x2="403.3" y2="319.6"></line>
      <path class="cls-7" d="M423,303.9a3.6,3.6,0,0,1,5.1,1.3,3.8,3.8,0,0,1-1.4,5.2,3.7,3.7,0,0,1-3.7-6.5Z"></path>
      <path class="cls-7" d="M401.4,316.3a3.9,3.9,0,0,0-1.4,5.2,3.7,3.7,0,0,0,5.1,1.4,3.8,3.8,0,0,0,1.4-5.2A3.7,3.7,0,0,0,401.4,316.3Z"></path>
    </g>
    <g>
      <line class="cls-11" x1="295.3" y1="307.1" x2="273.7" y2="319.6"></line>
      <circle class="cls-7" cx="295.3" cy="307.1" r="3.8" transform="translate(-49 56.1) rotate(-10)"></circle>
      <path class="cls-7" d="M271.8,316.3a3.9,3.9,0,0,0-1.4,5.2,3.7,3.7,0,0,0,5.1,1.4,3.8,3.8,0,0,0,1.4-5.2A3.7,3.7,0,0,0,271.8,316.3Z"></path>
    </g>
    <g>
      <line class="cls-11" x1="165.7" y1="307.1" x2="144.1" y2="319.6"></line>
      <path class="cls-7" d="M163.8,303.9a3.6,3.6,0,0,1,5.1,1.3,3.8,3.8,0,0,1-1.4,5.2,3.7,3.7,0,0,1-3.7-6.5Z"></path>
      <path class="cls-7" d="M142.2,316.3a3.9,3.9,0,0,0-1.4,5.2,3.7,3.7,0,0,0,5.1,1.4,3.8,3.8,0,0,0,1.4-5.2A3.7,3.7,0,0,0,142.2,316.3Z"></path>
    </g>
    <g>
      <line class="cls-11" x1="489.7" y1="194.9" x2="468.1" y2="207.4"></line>
      <path class="cls-7" d="M487.8,191.6a3.7,3.7,0,0,1,3.7,6.5,3.6,3.6,0,0,1-5.1-1.3A3.9,3.9,0,0,1,487.8,191.6Z"></path>
      <path class="cls-7" d="M466.2,204.1a3.7,3.7,0,0,0-1.4,5.1,3.7,3.7,0,0,0,5.1,1.4,3.7,3.7,0,1,0-3.7-6.5Z"></path>
    </g>
    <g>
      <line class="cls-11" x1="316.9" y1="244.8" x2="316.9" y2="269.7"></line>
      <path class="cls-7" d="M313.1,244.8a3.8,3.8,0,1,1,7.5,0,3.8,3.8,0,0,1-7.5,0Z"></path>
      <path class="cls-7" d="M313.1,269.7a3.8,3.8,0,1,0,7.5,0,3.8,3.8,0,0,0-7.5,0Z"></path>
    </g>
    <g>
      <line class="cls-11" x1="446.5" y1="244.8" x2="446.5" y2="269.7"></line>
      <path class="cls-7" d="M442.7,244.8a3.8,3.8,0,1,1,7.5,0,3.8,3.8,0,0,1-7.5,0Z"></path>
      <path class="cls-7" d="M442.7,269.7a3.8,3.8,0,1,0,3.8-3.8A3.8,3.8,0,0,0,442.7,269.7Z"></path>
    </g>
    <g>
      <line class="cls-11" x1="208.9" y1="307.1" x2="230.6" y2="319.5"></line>
      <path class="cls-7" d="M207,310.4a3.7,3.7,0,0,1-1.4-5.1,3.7,3.7,0,0,1,6.5,3.7A3.7,3.7,0,0,1,207,310.4Z"></path>
      <path class="cls-7" d="M228.8,322.8a3.7,3.7,0,0,0,5.1-1.4,3.9,3.9,0,0,0-1.4-5.2,3.7,3.7,0,0,0-5.1,1.4A3.8,3.8,0,0,0,228.8,322.8Z"></path>
    </g>
    <g>
      <line class="cls-11" x1="336" y1="311.4" x2="357.7" y2="323.8"></line>
      <path class="cls-7" d="M334.1,314.7a3.9,3.9,0,0,1-1.4-5.2,3.8,3.8,0,1,1,1.4,5.2Z"></path>
      <path class="cls-7" d="M355.9,327a3.7,3.7,0,0,0,5.1-1.4,3.7,3.7,0,0,0-6.5-3.7A3.7,3.7,0,0,0,355.9,327Z"></path>
    </g>
    <g>
      <line class="cls-11" x1="340.8" y1="303" x2="362.5" y2="315.3"></line>
      <path class="cls-7" d="M338.9,306.2a3.7,3.7,0,0,1,3.7-6.5,3.7,3.7,0,0,1,1.4,5.1A3.7,3.7,0,0,1,338.9,306.2Z"></path>
      <path class="cls-7" d="M360.7,318.6a3.7,3.7,0,0,0,3.7-6.5,3.7,3.7,0,0,0-3.7,6.5Z"></path>
    </g>
    <g>
      <line class="cls-11" x1="403.2" y1="195" x2="424.9" y2="207.3"></line>
      <circle class="cls-7" cx="403.2" cy="195" r="3.8" transform="translate(37.4 453.4) rotate(-61.1)"></circle>
      <path class="cls-7" d="M423.1,210.6a3.7,3.7,0,1,0,3.7-6.5,3.7,3.7,0,1,0-3.7,6.5Z"></path>
    </g>
    <g>
      <line class="cls-11" x1="467.9" y1="307.2" x2="489.7" y2="319.6"></line>
      <circle class="cls-7" cx="467.9" cy="307.2" r="3.8" transform="translate(-27.4 568) rotate(-61.1)"></circle>
      <path class="cls-7" d="M487.8,322.8a3.9,3.9,0,0,0,5.2-1.4,3.7,3.7,0,0,0-1.5-5.1,3.7,3.7,0,0,0-3.7,6.5Z"></path>
    </g>
  </g>

	</g>
	
	
	
	<g id="cuore">
	
	<g id="poly">
	<polyline class="bia-stroke" id="q5" points="198.2 62.1 221.7 176.8 99.6 124.1 94 224.5 145.9 167.4 74.7 355.9 190.6 467.1 151 341.1 234.8 350.1 252.2 144 318.1 132 379.7 168.5 314.6 224.7 315.2 300.5 267.6 459.8 317.5 487.9 321.5 540.3 391.3 456.9 400.8 341.1 450.8 364.5 441.1 469.2 537.4 396.2 486.4 308.4 481.3 186.3 588.1 246.4 538.6 112.7 434 60.7 453.4 147.3">
				<animate attributeName="points" dur="8s" fill="freeze" repeatCount="indefinite" begin="0s" calcMode="spline" keyTimes="0; 0.33; 0.66; 1;" keySplines="0.5 0 0.5 1; 0.5 0 0.5 1; 0.5 0 0.5 1 " values="
								 198.2 62.1 221.7 176.8 99.6 124.1 94 224.5 145.9 167.4 74.7 355.9 190.6 467.1 151 341.1 234.8 350.1 252.2 144 318.1 132 379.7 168.5 314.6 224.7 315.2 300.5 267.6 459.8 317.5 487.9 321.5 540.3 391.3 456.9 400.8 341.1 450.8 364.5 441.1 469.2 537.4 396.2 486.4 308.4 481.3 186.3 588.1 246.4 538.6 112.7 434 60.7 453.4 147.3;
								 
								 171.2 68.1 209.3 165.7 86.2 123.4 110 230.5 156.2 172.8 69.4 377.7 190.6 478.1 139 333.8 236.6 366.1 258.2 133 303 137.7 397.7 173.5 291.2 232.9 315.4 288.4 264.2 446.9 327.8 480.9 335.5 549.3 393.4 443.9 391.9 333.7 466.3 358.7 459.1 469.2 533.4 388.2 477.4 303.4 495.3 186.3 579.1 241.4 551.6 111.7 404 52.7 444.5 140.9;
								 
								 184.3 78.7 206.8 189.7 94 109.6 96.2 244.3 144.6 180.2 83.6 374.5 166 471.9 156.2 328.1 216.3 353.9 235 135.7 327.9 143.4 379.7 168.5 314.6 224.7 331.6 297 278.2 450.2 326.6 495.3 303 555.6 380.6 447.9 405.4 333.7 459.1 373.2 444.9 478.1 554.3 388.2 486.4 294.8 486.4 197 594.5 230.5 547.6 100.6 425.2 38.4 451.2 155.2;
								 
								 198.2 62.1 221.7 176.8 99.6 124.1 94 224.5 145.9 167.4 74.7 355.9 190.6 467.1 151 341.1 234.8 350.1 252.2 144 318.1 132 379.7 168.5 314.6 224.7 315.2 300.5 267.6 459.8 317.5 487.9 321.5 540.3 391.3 456.9 400.8 341.1 450.8 364.5 441.1 469.2 537.4 396.2 486.4 308.4 481.3 186.3 588.1 246.4 538.6 112.7 434 60.7 453.4 147.3;"></animate>
				</polyline>
	
	
	<polyline class="bia-stroke" id="q4" points="198.2 62.1 99.6 124.1 43.4 247.4 94 224.5 74.7 355.9 151 341.1 221.7 176.8 314.8 300.5 234.8 350.1 190.6 467.1 321.5 540.3 267.6 459.8 391.3 456.9 317.5 487.9 400.8 341.2 379.7 168.5 538.6 112.7 481.3 186.3 453.4 147.3 318.1 132 434 60.7 588.1 246.4 537.4 396.2 491.4 382.4 450.8 364.5 486.4 308.7">
				<animate attributeName="points" dur="8s" fill="freeze" repeatCount="indefinite" begin="0s" calcMode="spline" keyTimes="0; 0.33; 0.66; 1;" keySplines="0.5 0 0.5 1; 0.5 0 0.5 1; 0.5 0 0.5 1 " values="
								 198.2 62.1 99.6 124.1 43.4 247.4 94 224.5 74.7 355.9 151 341.1 221.7 176.8 314.8 300.5 234.8 350.1 190.6 467.1 321.5 540.3 267.6 459.8 391.3 456.9 317.5 487.9 400.8 341.2 379.7 168.5 538.6 112.7 481.3 186.3 453.4 147.3 318.1 132 434 60.7 588.1 246.4 537.4 396.2 491.4 382.4 450.8 364.5 486.4 308.7;
								 
								 171.2 68.1 86.2 123.4 55.7 259.3 110 230.5 69.4 377.7 139 333.8 209.3 165.7 315 288.4 236.6 366.1 190.6 478.1 335.5 549.3 264.2 446.9 393.4 443.9 327.8 480.9 391.9 333.8 397.7 173.5 551.6 111.7 495.3 186.3 444.5 140.9 303 137.7 404 52.7 579.1 241.4 533.4 388.2 500.1 378.9 466.3 358.7 477.4 303.7;
								 
								 184.3 78.7 94 109.6 43.4 265.7 96.2 244.3 83.6 374.5 156.2 328.1 206.8 189.7 331.2 297 216.3 353.9 166 471.9 303 555.6 278.2 450.2 380.6 447.9 326.6 495.3 405.4 333.8 379.7 168.5 547.6 100.6 486.4 197 451.2 155.2 327.9 143.4 425.2 38.4 594.5 230.5 554.3 388.2 500.1 390.9 459.1 373.2 486.4 295.1;
								 
								 198.2 62.1 99.6 124.1 43.4 247.4 94 224.5 74.7 355.9 151 341.1 221.7 176.8 314.8 300.5 234.8 350.1 190.6 467.1 321.5 540.3 267.6 459.8 391.3 456.9 317.5 487.9 400.8 341.2 379.7 168.5 538.6 112.7 481.3 186.3 453.4 147.3 318.1 132 434 60.7 588.1 246.4 537.4 396.2 491.4 382.4 450.8 364.5 486.4 308.7;"></animate>
				</polyline>
	
	<polyline class="bia-stroke" id="q3" points="198.2 62.1 145.9 167.4 43.4 247.4 74.7 355.9 267.6 459.8 190.6 467.1 317.5 487.9 234.8 350.1 94 224.5 151 341.1 315.2 300.5 391.3 456.9 450.8 364.5 318.1 132 221.7 176.8 379.7 168.5 486.4 308.7 588.1 246.4 491.4 382.4 503.4 255 538.6 112.7 453.4 147.3">
				<animate attributeName="points" dur="8s" fill="freeze" repeatCount="indefinite" begin="0s" calcMode="spline" keyTimes="0; 0.33; 0.66; 1;" keySplines="0.5 0 0.5 1; 0.5 0 0.5 1; 0.5 0 0.5 1 " values="
								 198.2 62.1 145.9 167.4 43.4 247.4 74.7 355.9 267.6 459.8 190.6 467.1 317.5 487.9 234.8 350.1 94 224.5 151 341.1 315.2 300.5 391.3 456.9 450.8 364.5 318.1 132 221.7 176.8 379.7 168.5 486.4 308.7 588.1 246.4 491.4 382.4 503.4 255 538.6 112.7 453.4 147.3;
								 
								 171.2 68.1 156.2 172.8 55.7 259.3 69.4 377.7 264.2 446.9 190.6 478.1 327.8 480.9 236.6 366.1 110 230.5 139 333.8 315.4 288.4 393.4 443.9 466.3 358.7 303 137.7 209.3 165.7 397.7 173.5 477.4 303.7 579.1 241.4 500.1 378.9 496.4 250 551.6 111.7 444.5 140.9;
								 
								 184.3 78.7 144.6 180.2 43.4 265.7 83.6 374.5 278.2 450.2 166 471.9 326.6 495.3 216.3 353.9 96.2 244.3 156.2 328.1 331.6 297 380.6 447.9 459.1 373.2 327.9 143.4 206.8 189.7 379.7 168.5 486.4 295.1 594.5 230.5 500.1 390.9 486.4 250 547.6 100.6 451.2 155.2;
								 
								 198.2 62.1 145.9 167.4 43.4 247.4 74.7 355.9 267.6 459.8 190.6 467.1 317.5 487.9 234.8 350.1 94 224.5 151 341.1 315.2 300.5 391.3 456.9 450.8 364.5 318.1 132 221.7 176.8 379.7 168.5 486.4 308.7 588.1 246.4 491.4 382.4 503.4 255 538.6 112.7 453.4 147.3;"></animate>
				</polyline>
	
	<path class="bia-stroke" id="q2" d="M145.9,167.4,252.2,144l-54-81.9L318.1,132l-3.5,92.7m-92.9-47.9L94,224.5l285.7-56L234.8,350.1l166-8.9L503.4,255l84.7-8.6M190.6,467.1l77-7.3L151,341.1m386.4,55.1L391.3,456.9l49.8,12.3L321.5,540.3">
				<animate attributeName="d" dur="8s" fill="freeze" repeatCount="indefinite" begin="0s" calcMode="spline" keyTimes="0; 0.33; 0.66; 1;" keySplines="0.5 0 0.5 1; 0.5 0 0.5 1; 0.5 0 0.5 1 " values="
								 M145.9,167.4,252.2,144l-54-81.9L318.1,132l-3.5,92.7m-92.9-47.9L94,224.5l285.7-56L234.8,350.1l166-8.9L503.4,255l84.7-8.6M190.6,467.1l77-7.3L151,341.1m386.4,55.1L391.3,456.9l49.8,12.3L321.5,540.3;
								 
								 M156.2,172.8l102-39.8-87-64.9L303,137.7l-11.8,95.2m-81.9-67.2L110,230.5l287.7-57L236.6,366.1l155.3-32.3L496.4,250l82.7-8.6M190.6,478.1l73.6-31.2L139,333.8m394.4,54.4-140,55.7,65.7,25.3L335.5,549.3;
								 
								 M144.6,180.2,235,135.7l-50.7-57,143.6,64.7-13.3,81.3m-107.8-35L96.2,244.3l283.5-75.8L216.3,353.9l189.1-20.1,81-83.8,108.1-19.5M166,471.9l112.2-21.7-122-122.1m398.1,60.1L380.6,447.9l64.3,30.2L303,555.6;
								 
								 M145.9,167.4,252.2,144l-54-81.9L318.1,132l-3.5,92.7m-92.9-47.9L94,224.5l285.7-56L234.8,350.1l166-8.9L503.4,255l84.7-8.6M190.6,467.1l77-7.3L151,341.1m386.4,55.1L391.3,456.9l49.8,12.3L321.5,540.3;"></animate>
				</path>
	
	<path class="bia-stroke" id="q1" d="M486.4,308.7l-171.2-8.2,64.5-132,101.6,17.8L434,60.7M252.2,144l62.4,80.7M491.4,382.4l-50.3,86.8M434,60.7,379.7,168.5,503.4,255">
				<animate attributeName="d" dur="8s" fill="freeze" repeatCount="indefinite" begin="0s" calcMode="spline" keyTimes="0; 0.33; 0.66; 1;" keySplines="0.5 0 0.5 1; 0.5 0 0.5 1; 0.5 0 0.5 1 " values="
								 M486.4,308.7l-171.2-8.2,64.5-132,101.6,17.8L434,60.7M252.2,144l62.4,80.7M491.4,382.4l-50.3,86.8M434,60.7,379.7,168.5,503.4,255;
								 
								 M477.4,303.7l-162-15.3,82.3-114.9,97.6,12.8L404,52.7M258.2,133l33,99.9m208.9,146-41,90.3M404,52.7l-6.3,120.8L496.4,250;
								 
								 M486.4,295.1,331.6,297l48.1-128.5L486.4,197,425.2,38.4M235,135.7l79.6,89M500.1,390.9l-55.2,87.2M425.2,38.4,379.7,168.5,486.4,250;
								 
								 M486.4,308.7l-171.2-8.2,64.5-132,101.6,17.8L434,60.7M252.2,144l62.4,80.7M491.4,382.4l-50.3,86.8M434,60.7,379.7,168.5,503.4,255;"></animate>
				</path>
	</g>
    
	<g id="sfere">
		
	<path class="bia-fill" id="s1">
    <animate attributeName="d" dur="8s" fill="freeze" repeatCount="indefinite" begin="0s" calcMode="spline" keyTimes="0; 0.33; 0.66; 1;" keySplines="0.5 0 0.5 1; 0.5 0 0.5 1; 0.5 0 0.5 1 " values="
								 M48.1,247.4a4.7,4.7,0,1,1-4.7-4.7A4.7,4.7,0,0,1,48.1,247.4Z;
								 M60.4,259.3a4.7,4.7,0,1,1-4.7-4.7A4.7,4.7,0,0,1,60.4,259.3Z;
								 M48.1,265.7a4.7,4.7,0,1,1-4.7-4.7A4.7,4.7,0,0,1,48.1,265.7Z;
								 M48.1,247.4a4.7,4.7,0,1,1-4.7-4.7A4.7,4.7,0,0,1,48.1,247.4Z;"></animate>
  	</path>	
		
	<path class="bia-fill" id="s2">
    <animate attributeName="d" dur="8s" fill="freeze" repeatCount="indefinite" begin="0s" calcMode="spline" keyTimes="0; 0.33; 0.66; 1;" keySplines="0.5 0 0.5 1; 0.5 0 0.5 1; 0.5 0 0.5 1 " values="
								 M98.7,224.7A4.7,4.7,0,1,1,94,220,4.7,4.7,0,0,1,98.7,224.7Z;
								 M114.7,230.5a4.7,4.7,0,1,1-4.7-4.7A4.7,4.7,0,0,1,114.7,230.5Z;
								 M100.9,244.3a4.7,4.7,0,1,1-4.7-4.7A4.7,4.7,0,0,1,100.9,244.3Z;
								 M98.7,224.7A4.7,4.7,0,1,1,94,220,4.7,4.7,0,0,1,98.7,224.7Z;"></animate>
  	</path>	
		
	<path class="bia-fill" id="s3">
    <animate attributeName="d" dur="8s" fill="freeze" repeatCount="indefinite" begin="0s" calcMode="spline" keyTimes="0; 0.33; 0.66; 1;" keySplines="0.5 0 0.5 1; 0.5 0 0.5 1; 0.5 0 0.5 1 " values="
								 M79.4,355.9a4.7,4.7,0,1,1-4.7-4.7A4.7,4.7,0,0,1,79.4,355.9Z;
								 M74.1,377.7a4.7,4.7,0,1,1-4.7-4.7A4.7,4.7,0,0,1,74.1,377.7Z;
								 M88.3,374.5a4.7,4.7,0,1,1-4.7-4.7A4.7,4.7,0,0,1,88.3,374.5Z;
								 M79.4,355.9a4.7,4.7,0,1,1-4.7-4.7A4.7,4.7,0,0,1,79.4,355.9Z;"></animate>
  	</path>
		
	<path class="bia-fill" id="s4">
    <animate attributeName="d" dur="8s" fill="freeze" repeatCount="indefinite" begin="0s" calcMode="spline" keyTimes="0; 0.33; 0.66; 1;" keySplines="0.5 0 0.5 1; 0.5 0 0.5 1; 0.5 0 0.5 1 " values="
								 M155.7,341.1a4.7,4.7,0,1,1-4.7-4.7A4.7,4.7,0,0,1,155.7,341.1Z;
								 M143.7,333.8a4.7,4.7,0,1,1-4.7-4.7A4.7,4.7,0,0,1,143.7,333.8Z;
								 M160.9,328.1a4.7,4.7,0,1,1-4.7-4.7A4.7,4.7,0,0,1,160.9,328.1Z;
								 M155.7,341.1a4.7,4.7,0,1,1-4.7-4.7A4.7,4.7,0,0,1,155.7,341.1Z;"></animate>
  	</path>
		
	<path class="bia-fill" id="s5">
    <animate attributeName="d" dur="8s" fill="freeze" repeatCount="indefinite" begin="0s" calcMode="spline" keyTimes="0; 0.33; 0.66; 1;" keySplines="0.5 0 0.5 1; 0.5 0 0.5 1; 0.5 0 0.5 1 " values="
								 M319.3,224.7a4.7,4.7,0,1,1-4.7-4.7A4.7,4.7,0,0,1,319.3,224.7Z;
								 M295.9,232.9a4.7,4.7,0,1,1-4.7-4.7A4.7,4.7,0,0,1,295.9,232.9Z;
								 M319.3,224.7a4.7,4.7,0,1,1-4.7-4.7A4.7,4.7,0,0,1,319.3,224.7Z;
								 M319.3,224.7a4.7,4.7,0,1,1-4.7-4.7A4.7,4.7,0,0,1,319.3,224.7Z;"></animate>
  	</path>
		
	<path class="bia-fill" id="s6">
    <animate attributeName="d" dur="8s" fill="freeze" repeatCount="indefinite" begin="0s" calcMode="spline" keyTimes="0; 0.33; 0.66; 1;" keySplines="0.5 0 0.5 1; 0.5 0 0.5 1; 0.5 0 0.5 1 " values="M319.9,300.5a4.7,4.7,0,1,1-4.7-4.7A4.7,4.7,0,0,1,319.9,300.5Z;
								 M320.1,288.4a4.7,4.7,0,1,1-4.7-4.7A4.7,4.7,0,0,1,320.1,288.4Z;
								 M336.3,297a4.7,4.7,0,1,1-4.7-4.7A4.7,4.7,0,0,1,336.3,297Z;
								 M319.9,300.5a4.7,4.7,0,1,1-4.7-4.7A4.7,4.7,0,0,1,319.9,300.5Z;								 
								 "></animate>
  	</path>
		

	
		<path class="bia-fill" id="s8">
    <animate attributeName="d" dur="8s" fill="freeze" repeatCount="indefinite" begin="0s" calcMode="spline" keyTimes="0; 0.33; 0.66; 1;" keySplines="0.5 0 0.5 1; 0.5 0 0.5 1; 0.5 0 0.5 1 " values="M195.3,467.1a4.7,4.7,0,1,1-4.7-4.7A4.7,4.7,0,0,1,195.3,467.1Z;
								 M195.3,478.1a4.7,4.7,0,1,1-4.7-4.7A4.7,4.7,0,0,1,195.3,478.1Z;
								 M170.7,471.9a4.7,4.7,0,1,1-4.7-4.7A4.7,4.7,0,0,1,170.7,471.9Z;
								 M195.3,467.1a4.7,4.7,0,1,1-4.7-4.7A4.7,4.7,0,0,1,195.3,467.1Z;
								 "></animate>
  	</path>
		
	<path class="bia-fill" id="s9">
    <animate attributeName="d" dur="8s" fill="freeze" repeatCount="indefinite" begin="0s" calcMode="spline" keyTimes="0; 0.33; 0.66; 1;" keySplines="0.5 0 0.5 1; 0.5 0 0.5 1; 0.5 0 0.5 1 " values="M272.3,459.9a4.7,4.7,0,1,1-4.7-4.7A4.7,4.7,0,0,1,272.3,459.9Z;
								 M268.9,447.3a4.7,4.7,0,1,1-4.7-4.7A4.7,4.7,0,0,1,268.9,447.3Z;
								 M282.9,450.2a4.7,4.7,0,1,1-4.7-4.7A4.7,4.7,0,0,1,282.9,450.2Z;
								 M272.3,459.9a4.7,4.7,0,1,1-4.7-4.7A4.7,4.7,0,0,1,272.3,459.9Z;
								 "></animate>
  	</path>
		
		<path class="bia-fill" id="s10">
    <animate attributeName="d" dur="8s" fill="freeze" repeatCount="indefinite" begin="0s" calcMode="spline" keyTimes="0; 0.33; 0.66; 1;" keySplines="0.5 0 0.5 1; 0.5 0 0.5 1; 0.5 0 0.5 1 " values="M322.2,487.9a4.7,4.7,0,1,1-4.7-4.7A4.7,4.7,0,0,1,322.2,487.9Z;
								 M332.5,480.9a4.7,4.7,0,1,1-4.7-4.7A4.7,4.7,0,0,1,332.5,480.9Z;
								 M331.3,495.3a4.7,4.7,0,1,1-4.7-4.7A4.7,4.7,0,0,1,331.3,495.3Z;
								 M322.2,487.9a4.7,4.7,0,1,1-4.7-4.7A4.7,4.7,0,0,1,322.2,487.9Z;								 
								 "></animate>
  	</path>
		
	<path class="bia-fill" id="s11">
    <animate attributeName="d" dur="8s" fill="freeze" repeatCount="indefinite" begin="0s" calcMode="spline" keyTimes="0; 0.33; 0.66; 1;" keySplines="0.5 0 0.5 1; 0.5 0 0.5 1; 0.5 0 0.5 1 " values="M326.2,540.3a4.7,4.7,0,1,1-4.7-4.7A4.7,4.7,0,0,1,326.2,540.3Z;
								 M340.2,549.3a4.7,4.7,0,1,1-4.7-4.7A4.7,4.7,0,0,1,340.2,549.3Z;
								 M307.7,555.6a4.8,4.8,0,1,1-4.7-4.7A4.8,4.8,0,0,1,307.7,555.6Z;
								 M326.2,540.3a4.7,4.7,0,1,1-4.7-4.7A4.7,4.7,0,0,1,326.2,540.3Z;
								 "></animate>
  	</path>
		
	<path class="bia-fill" id="s12">
    <animate attributeName="d" dur="8s" fill="freeze" repeatCount="indefinite" begin="0s" calcMode="spline" keyTimes="0; 0.33; 0.66; 1;" keySplines="0.5 0 0.5 1; 0.5 0 0.5 1; 0.5 0 0.5 1 " values="M396,456.9a4.7,4.7,0,1,1-4.7-4.7A4.7,4.7,0,0,1,396,456.9Z;
								 M398.1,443.9a4.7,4.7,0,1,1-4.7-4.7A4.7,4.7,0,0,1,398.1,443.9Z;
								 M385.3,447.9a4.7,4.7,0,1,1-4.7-4.7A4.7,4.7,0,0,1,385.3,447.9Z;
								 M396,456.9a4.7,4.7,0,1,1-4.7-4.7A4.7,4.7,0,0,1,396,456.9Z;
								 "></animate>
  	</path>
		
	<path class="bia-fill" id="s13">
    <animate attributeName="d" dur="8s" fill="freeze" repeatCount="indefinite" begin="0s" calcMode="spline" keyTimes="0; 0.33; 0.66; 1;" keySplines="0.5 0 0.5 1; 0.5 0 0.5 1; 0.5 0 0.5 1 " values="M445.8,469.2a4.7,4.7,0,1,1-4.7-4.7A4.7,4.7,0,0,1,445.8,469.2Z;
								 M463.8,469.2a4.7,4.7,0,1,1-4.7-4.7A4.7,4.7,0,0,1,463.8,469.2Z;
								 M449.6,478.1a4.7,4.7,0,1,1-4.7-4.7A4.7,4.7,0,0,1,449.6,478.1Z;
								 M445.8,469.2a4.7,4.7,0,1,1-4.7-4.7A4.7,4.7,0,0,1,445.8,469.2Z;
								 "></animate>
  	</path>
		
		<path class="bia-fill" id="s14">
    <animate attributeName="d" dur="8s" fill="freeze" repeatCount="indefinite" begin="0s" calcMode="spline" keyTimes="0; 0.33; 0.66; 1;" keySplines="0.5 0 0.5 1; 0.5 0 0.5 1; 0.5 0 0.5 1 " values="M542.1,396.2a4.7,4.7,0,1,1-4.7-4.7A4.7,4.7,0,0,1,542.1,396.2Z;
								 M538.1,388.2a4.7,4.7,0,1,1-4.7-4.7A4.7,4.7,0,0,1,538.1,388.2Z;
								 M559,388.2a4.7,4.7,0,1,1-4.7-4.7A4.7,4.7,0,0,1,559,388.2Z;
								 M542.1,396.2a4.7,4.7,0,1,1-4.7-4.7A4.7,4.7,0,0,1,542.1,396.2Z;
								 "></animate>
  	</path>
		
	<path class="bia-fill" id="s15">
    <animate attributeName="d" dur="8s" fill="freeze" repeatCount="indefinite" begin="0s" calcMode="spline" keyTimes="0; 0.33; 0.66; 1;" keySplines="0.5 0 0.5 1; 0.5 0 0.5 1; 0.5 0 0.5 1 " values="M496.1,382.4a4.7,4.7,0,1,1-4.7-4.7A4.7,4.7,0,0,1,496.1,382.4Z;
								 M504.8,378.9a4.7,4.7,0,1,1-4.7-4.7A4.7,4.7,0,0,1,504.8,378.9Z;
								 M504.8,390.9a4.7,4.7,0,1,1-4.7-4.7A4.7,4.7,0,0,1,504.8,390.9Z;
								 M496.1,382.4a4.7,4.7,0,1,1-4.7-4.7A4.7,4.7,0,0,1,496.1,382.4Z;
								 "></animate>
  	</path>
		

		
		<path class="bia-fill" id="s17">
    <animate attributeName="d" dur="8s" fill="freeze" repeatCount="indefinite" begin="0s" calcMode="spline" keyTimes="0; 0.33; 0.66; 1;" keySplines="0.5 0 0.5 1; 0.5 0 0.5 1; 0.5 0 0.5 1 " values="M405.5,341.1a4.7,4.7,0,1,1-4.7-4.7A4.7,4.7,0,0,1,405.5,341.1Z;
								 M396.6,333.8a4.7,4.7,0,1,1-4.7-4.7A4.7,4.7,0,0,1,396.6,333.8Z;
								 M411.1,333.7a4.7,4.7,0,1,1-4.7-4.7A4.7,4.7,0,0,1,411.1,333.7Z;
								 M405.5,341.1a4.7,4.7,0,1,1-4.7-4.7A4.7,4.7,0,0,1,405.5,341.1Z;
								 "></animate>
  	</path>
		
		<path class="bia-fill" id="s18">
    <animate attributeName="d" dur="8s" fill="freeze" repeatCount="indefinite" begin="0s" calcMode="spline" keyTimes="0; 0.33; 0.66; 1;" keySplines="0.5 0 0.5 1; 0.5 0 0.5 1; 0.5 0 0.5 1 " values="M491.1,308.7a4.7,4.7,0,1,1-4.7-4.7A4.7,4.7,0,0,1,491.1,308.7Z;
								 M481.7,303.7A4.7,4.7,0,1,1,477,299,4.7,4.7,0,0,1,481.7,303.7Z;
								 M491.1,294.8a4.7,4.7,0,1,1-4.7-4.7A4.7,4.7,0,0,1,491.1,294.8Z;
								 M491.1,308.7a4.7,4.7,0,1,1-4.7-4.7A4.7,4.7,0,0,1,491.1,308.7Z;
								 "></animate>
  	</path>
		
		<path class="bia-fill" id="s19">
    <animate attributeName="d" dur="8s" fill="freeze" repeatCount="indefinite" begin="0s" calcMode="spline" keyTimes="0; 0.33; 0.66; 1;" keySplines="0.5 0 0.5 1; 0.5 0 0.5 1; 0.5 0 0.5 1 " values="M508.1,255a4.7,4.7,0,1,1-4.7-4.7A4.7,4.7,0,0,1,508.1,255Z;
								 M501.1,250a4.7,4.7,0,1,1-4.7-4.7A4.7,4.7,0,0,1,501.1,250Z;
								 M491.1,250a4.7,4.7,0,1,1-4.7-4.7A4.7,4.7,0,0,1,491.1,250Z
								 M508.1,255a4.7,4.7,0,1,1-4.7-4.7A4.7,4.7,0,0,1,508.1,255Z;
								 "></animate>
  	</path>
		
		<path class="bia-fill" id="s20">
    <animate attributeName="d" dur="8s" fill="freeze" repeatCount="indefinite" begin="0s" calcMode="spline" keyTimes="0; 0.33; 0.66; 1;" keySplines="0.5 0 0.5 1; 0.5 0 0.5 1; 0.5 0 0.5 1 " values="M592.8,246.4a4.7,4.7,0,1,1-4.7-4.7A4.7,4.7,0,0,1,592.8,246.4Z;
								 M583.8,241.4a4.7,4.7,0,1,1-4.7-4.7A4.7,4.7,0,0,1,583.8,241.4Z;
								 M599.2,230.5a4.7,4.7,0,1,1-4.7-4.7A4.7,4.7,0,0,1,599.2,230.5Z;
								 M592.8,246.4a4.7,4.7,0,1,1-4.7-4.7A4.7,4.7,0,0,1,592.8,246.4Z;
								 "></animate>
  	</path>
		
		<path class="bia-fill" id="s21">
    <animate attributeName="d" dur="8s" fill="freeze" repeatCount="indefinite" begin="0s" calcMode="spline" keyTimes="0; 0.33; 0.66; 1;" keySplines="0.5 0 0.5 1; 0.5 0 0.5 1; 0.5 0 0.5 1 " values="M486,186.3a4.7,4.7,0,1,1-4.7-4.7A4.7,4.7,0,0,1,486,186.3Z;
								 M500,186.3a4.7,4.7,0,1,1-4.7-4.7A4.7,4.7,0,0,1,500,186.3Z;
								 M491.1,197a4.7,4.7,0,1,1-4.7-4.7A4.7,4.7,0,0,1,491.1,197Z;
								 M486,186.3a4.7,4.7,0,1,1-4.7-4.7A4.7,4.7,0,0,1,486,186.3Z;
								 "></animate>
  	</path>
		

		
		<path class="bia-fill" id="s23">
    <animate attributeName="d" dur="8s" fill="freeze" repeatCount="indefinite" begin="0s" calcMode="spline" keyTimes="0; 0.33; 0.66; 1;" keySplines="0.5 0 0.5 1; 0.5 0 0.5 1; 0.5 0 0.5 1 " values="M543.3,112.7a4.7,4.7,0,1,1-4.7-4.7A4.7,4.7,0,0,1,543.3,112.7Z;
								 M556.3,111.7a4.7,4.7,0,1,1-4.7-4.7A4.7,4.7,0,0,1,556.3,111.7Z;
								 M552.2,100.7a4.7,4.7,0,1,1-4.7-4.7A4.7,4.7,0,0,1,552.2,100.7Z;
								 M543.3,112.7a4.7,4.7,0,1,1-4.7-4.7A4.7,4.7,0,0,1,543.3,112.7Z;
								 "></animate>
  	</path>
		
	<path class="bia-fill" id="s24">
    <animate attributeName="d" dur="8s" fill="freeze" repeatCount="indefinite" begin="0s" calcMode="spline" keyTimes="0; 0.33; 0.66; 1;" keySplines="0.5 0 0.5 1; 0.5 0 0.5 1; 0.5 0 0.5 1 " values="M438.9,60.7a4.7,4.7,0,1,1-4.7-4.7A4.7,4.7,0,0,1,438.9,60.7Z;
								 M408.7,52.7A4.7,4.7,0,1,1,404,48,4.7,4.7,0,0,1,408.7,52.7Z;
								 M429.9,38.4a4.7,4.7,0,1,1-4.7-4.7A4.7,4.7,0,0,1,429.9,38.4Z;
								 M438.9,60.7a4.7,4.7,0,1,1-4.7-4.7A4.7,4.7,0,0,1,438.9,60.7Z;
								 "></animate>
  	</path>
		
		<path class="bia-fill" id="s25">
    <animate attributeName="d" dur="8s" fill="freeze" repeatCount="indefinite" begin="0s" calcMode="spline" keyTimes="0; 0.33; 0.66; 1;" keySplines="0.5 0 0.5 1; 0.5 0 0.5 1; 0.5 0 0.5 1 " values="M384.4,168.5a4.7,4.7,0,1,1-4.7-4.7A4.7,4.7,0,0,1,384.4,168.5Z;
								 M402.4,173.5a4.7,4.7,0,1,1-4.7-4.7A4.7,4.7,0,0,1,402.4,173.5Z;
								 M384.4,168.5a4.7,4.7,0,1,1-4.7-4.7A4.7,4.7,0,0,1,384.4,168.5Z;
								 M384.4,168.5a4.7,4.7,0,1,1-4.7-4.7A4.7,4.7,0,0,1,384.4,168.5Z;
								 "></animate>
  	</path>
		
		<path class="bia-fill" id="s26">
    <animate attributeName="d" dur="8s" fill="freeze" repeatCount="indefinite" begin="0s" calcMode="spline" keyTimes="0; 0.33; 0.66; 1;" keySplines="0.5 0 0.5 1; 0.5 0 0.5 1; 0.5 0 0.5 1 " values="M322.8,132a4.7,4.7,0,1,1-4.7-4.7A4.7,4.7,0,0,1,322.8,132Z;
								 M307.7,137.7A4.8,4.8,0,1,1,303,133,4.8,4.8,0,0,1,307.7,137.7Z;
								 M332.6,143.4a4.7,4.7,0,1,1-4.7-4.7A4.7,4.7,0,0,1,332.6,143.4Z;
								 M322.8,132a4.7,4.7,0,1,1-4.7-4.7A4.7,4.7,0,0,1,322.8,132Z;
								 "></animate>
  	</path>
		
		<path class="bia-fill" id="s27">
    <animate attributeName="d" dur="8s" fill="freeze" repeatCount="indefinite" begin="0s" calcMode="spline" keyTimes="0; 0.33; 0.66; 1;" keySplines="0.5 0 0.5 1; 0.5 0 0.5 1; 0.5 0 0.5 1 " values="M256.9,144a4.7,4.7,0,1,1-4.7-4.7A4.7,4.7,0,0,1,256.9,144Z;
								 M262.9,133a4.7,4.7,0,1,1-4.7-4.7A4.7,4.7,0,0,1,262.9,133Z;
								 M239.7,135.7A4.7,4.7,0,1,1,235,131,4.7,4.7,0,0,1,239.7,135.7Z;
								 M256.9,144a4.7,4.7,0,1,1-4.7-4.7A4.7,4.7,0,0,1,256.9,144Z;
								 "></animate>
  	</path>
		
		<path class="bia-fill" id="s28">
    <animate attributeName="d" dur="8s" fill="freeze" repeatCount="indefinite" begin="0s" calcMode="spline" keyTimes="0; 0.33; 0.66; 1;" keySplines="0.5 0 0.5 1; 0.5 0 0.5 1; 0.5 0 0.5 1 " values="M226.3,176.9a4.7,4.7,0,1,1-4.7-4.7A4.7,4.7,0,0,1,226.3,176.9Z;
								 M214,165.7a4.7,4.7,0,1,1-4.7-4.8A4.8,4.8,0,0,1,214,165.7Z;
								 M211.5,189.7a4.7,4.7,0,1,1-4.7-4.7A4.7,4.7,0,0,1,211.5,189.7Z;
								 M226.3,176.9a4.7,4.7,0,1,1-4.7-4.7A4.7,4.7,0,0,1,226.3,176.9Z;
								 "></animate>
  	</path>
		
			
		<path class="bia-fill" id="s30">
    <animate attributeName="d" dur="8s" fill="freeze" repeatCount="indefinite" begin="0s" calcMode="spline" keyTimes="0; 0.33; 0.66; 1;" keySplines="0.5 0 0.5 1; 0.5 0 0.5 1; 0.5 0 0.5 1 " values="M104.4,124.3a4.7,4.7,0,1,1-4.7-4.7A4.7,4.7,0,0,1,104.4,124.3Z;
								 M90.8,123.4a4.7,4.7,0,1,1-4.7-4.7A4.7,4.7,0,0,1,90.8,123.4Z;
								 M98.7,109.7A4.7,4.7,0,1,1,94,105,4.7,4.7,0,0,1,98.7,109.7Z;
								 M104.4,124.3a4.7,4.7,0,1,1-4.7-4.7A4.7,4.7,0,0,1,104.4,124.3Z;
								 "></animate>
  	</path>
		
		<path class="bia-fill" id="s31">
    <animate attributeName="d" dur="8s" fill="freeze" repeatCount="indefinite" begin="0s" calcMode="spline" keyTimes="0; 0.33; 0.66; 1;" keySplines="0.5 0 0.5 1; 0.5 0 0.5 1; 0.5 0 0.5 1 " values="M202.8,62.1a4.7,4.7,0,1,1-4.7-4.7A4.7,4.7,0,0,1,202.8,62.1Z;
								 M175.9,68.1a4.7,4.7,0,1,1-4.7-4.7A4.7,4.7,0,0,1,175.9,68.1Z;
								 M189,78.7a4.7,4.7,0,1,1-4.7-4.7A4.7,4.7,0,0,1,189,78.7Z;
								 M202.8,62.1a4.7,4.7,0,1,1-4.7-4.7A4.7,4.7,0,0,1,202.8,62.1Z;
								 "></animate>
  	</path>
		
		
		<circle id="sc29b" class="bia-fill" cx="" cy="" r="4.7">
			<animate attributeName="cx" dur="8s" fill="freeze" repeatCount="indefinite" begin="0s" calcMode="spline" keyTimes="0; 0.33; 0.66; 1;" keySplines="0.5 0 0.5 1; 0.5 0 0.5 1; 0.5 0 0.5 1 " values=" 145.9; 156.2; 144.6; 145.9;"></animate>
			<animate attributeName="cy" dur="8s" fill="freeze" repeatCount="indefinite" begin="0s" calcMode="spline" keyTimes="0; 0.33; 0.66; 1;" keySplines="0.5 0 0.5 1; 0.5 0 0.5 1; 0.5 0 0.5 1 " values=" 167.6; 172.9; 180.2; 167.6;"></animate>
		</circle>
		
		<circle id="sc22b" class="bia-fill" cx="" cy="" r="4.7">
			<animate attributeName="cx" dur="8s" fill="freeze" repeatCount="indefinite" begin="0s" calcMode="spline" keyTimes="0; 0.33; 0.66; 1;" keySplines="0.5 0 0.5 1; 0.5 0 0.5 1; 0.5 0 0.5 1 " values=" 453.4; 444.5; 451.2; 453.4;"></animate>
			<animate attributeName="cy" dur="8s" fill="freeze" repeatCount="indefinite" begin="0s" calcMode="spline" keyTimes="0; 0.33; 0.66; 1;" keySplines="0.5 0 0.5 1; 0.5 0 0.5 1; 0.5 0 0.5 1 " values=" 147.3; 140.9; 155.2; 147.3;"></animate>
		</circle>
		
		<circle id="sc6b" class="bia-fill" cx="" cy="" r="4.7">
			<animate attributeName="cx" dur="8s" fill="freeze" repeatCount="indefinite" begin="0s" calcMode="spline" keyTimes="0; 0.33; 0.66; 1;" keySplines="0.5 0 0.5 1; 0.5 0 0.5 1; 0.5 0 0.5 1 " values="450.8; 466.2; 459.1; 450.8;"></animate>
			<animate attributeName="cy" dur="8s" fill="freeze" repeatCount="indefinite" begin="0s" calcMode="spline" keyTimes="0; 0.33; 0.66; 1;" keySplines="0.5 0 0.5 1; 0.5 0 0.5 1; 0.5 0 0.5 1 " values="364.5; 358.8; 373.2; 364.5;"></animate>
		</circle>
		
		<circle id="sc6b" class="bia-fill" cx="" cy="" r="4.7">
			<animate attributeName="cx" dur="8s" fill="freeze" repeatCount="indefinite" begin="0s" calcMode="spline" keyTimes="0; 0.33; 0.66; 1;" keySplines="0.5 0 0.5 1; 0.5 0 0.5 1; 0.5 0 0.5 1 " values="234.8; 236.6; 216.3; 234.8;"></animate>
			<animate attributeName="cy" dur="8s" fill="freeze" repeatCount="indefinite" begin="0s" calcMode="spline" keyTimes="0; 0.33; 0.66; 1;" keySplines="0.5 0 0.5 1; 0.5 0 0.5 1; 0.5 0 0.5 1 " values="350.1; 366.1; 353.9; 350.1;"></animate>
		</circle>
		
		
	</g>

	</g>
	
</svg>
