<svg id="journey" xmlns="http://www.w3.org/2000/svg" xmlns:xlink="http://www.w3.org/1999/xlink" width="600" height="600" viewBox="0 0 600 600">
  <defs>
    <style>
		#fondo {#visibility:hidden;}
		
		/* Animazioni */
		#road {
			transform-origin: center;
			animation: go 2s 0s infinite  steps(3, end);
		}
		@keyframes go {
		100%	{
			stroke-dashoffset: -16;
  			}
  		}
		
		
      .cls-1 {
        fill: #666;
      }

      .cls-2, .cls-3, .cls-5, .cls-6, .cls-7, .cls-8 {
        fill: none;
        stroke: #fff;
        stroke-miterlimit: 10;
      }

      .cls-2 {
        stroke-width: 1.5px;
      }

      .cls-3 {
        stroke-width: 0.75px;
      }

      .cls-4 {
        fill: #fff;
      }

      .cls-6 {
        stroke-width: 0.5px;
      }

      .cls-7 {
        stroke-width: 7px;
		stroke-dasharray: 6,10;
      }

      .cls-8 {
        stroke-width: 2px;
      }

      .cls-9 {
        fill: #909390;
      }

      .cls-10 {
        fill: #f28923;
      }

      .cls-11 {
        fill: #c77020;
      }

      .cls-12 {
        fill: #575554;
      }

      .cls-13 {
        fill: #1d1d1d;
      }

      .cls-14 {
        fill: #f59c26;
      }

      .cls-15 {
        fill: #f1a42d;
      }

      .cls-16 {
        fill: #555;
      }

      .cls-17 {
        fill: #f38823;
      }

      .cls-18 {
        fill: #c4651b;
      }
		.cls-19 {
        stroke-width: 0.5px;
		stroke: #fff;
		stroke-dasharray: 6,10;
		fill: none;
      }
    </style>

  </defs>
	
	
	
  <rect id="fondo" class="cls-1" width="600" height="600" transform="translate(600 600) rotate(180)"></rect>
	
	<g id="griglia" class="cls-19">
    <rect x="-5" y="-5" width="610" height="610"></rect>
    <line x1="-5" y1="503.33" x2="605" y2="503.33"></line>
    <line x1="-5" y1="401.67" x2="605" y2="401.67"></line>
    <line x1="-5" y1="300" x2="605" y2="300"></line>
    <line x1="-5" y1="198.33" x2="605" y2="198.33"></line>
    <line x1="-5" y1="96.67" x2="605" y2="96.67"></line>
    <line x1="503.33" y1="-5" x2="503.33" y2="605"></line>
    <line x1="401.67" y1="-5" x2="401.67" y2="605"></line>
    <line x1="300" y1="-5" x2="300" y2="605"></line>
    <line x1="198.33" y1="-5" x2="198.33" y2="605"></line>
    <line x1="96.67" y1="-5" x2="96.67" y2="605"></line>
  </g>
	
  <g id="top">
    <g>
      <path class="cls-2" d="M408.79,200.29c-4.3,9.32-13.35,16.73-16.81,25.94-4.05,10.78,3.43,21.31,8.71,30,12.16,20,16.8,38.07,15.54,62.08a602.13,602.13,0,0,0,.42,65.67c2,37.43-12.81,83.64-14,96.45-1.11,11.57,2.57,21.15,5.2,32.21,5.93,24.88,4.48,44.27,32.43,41.66,9.36-.87,18.72-7.36,28-7s17.66,9.86,26.11,14.3c13.63,7.15,48.3,8.55,46.43-16.84-1.08-14.8-10.71-32.15,9-61.28,12-17.85,16.59-38.49,27.33-57.06,11.28-19.51,15.44-39,7.46-61.67-3.9-11.07-7.15-19.82-5.46-31.81,1.49-10.48,6.79-21.08,4-32-3.33-13-14-11.86-22.39-18.78-7.91-6.5-13.13-16.89-18.1-26.14-10.88-20.22-21.69-35.44-25.57-59-10.73-65.1-14.18-63.15-5.48-130,2.56-19.75,8.57-51.42-15.6-51.64-18.44-.16-27-7.9-32.23,38.86C459.59,90.7,425.55,103.45,418.35,171,417.07,183,413.75,189.72,408.79,200.29Z"></path>
      <path class="cls-3" d="M546,273.92c-9.22-18.24-24.31-34.25-29.36-54.6C501.18,157,503.73,150.74,496.31,96.79c-2.85-20.75,13.32-39.5,7.59-60-2.84-10.18-13.06-15.11-21.68-10.56s-9.69,17.51-10.77,27.24c-2.63,23.63-16.23,32.73-25,52.66-8.27,18.75-15,36.87-14.36,58.25.72,25-6.34,36.27-19.18,54.74-14.91,21.44-3.09,34.38,4.11,56.59,6.44,19.87,2.53,41.39,2.24,61.69-.29,20.59,4.11,41.61,2.84,62.08-1.3,21-6.81,42.59-11.61,62.74-5.32,22.32-.5,38.54,4.33,60.67,5.8,26.58,19.71,30,40.8,20.24,9.31-4.31,15.56-9.32,25.29-2.85,7.93,5.27,14.35,14.89,23.06,18.67,27.21,11.84,11.44-32.1,12.11-45.07,1.05-20.35,23.79-30.83,34.24-45,5.91-8,8.17-17.19,11.32-26.86,3.33-10.22,8.6-17.89,13.26-27.18,10.81-21.56,3.08-37.24-1.83-59.41-4.72-21.28,6.56-41.74-9.6-58.05C556.32,290.18,550.8,283.37,546,273.92Z"></path>
      <path class="cls-3" d="M439.45,168.49c.27-14.56,19.34-104.42,41.27-79.12,9.08,10.48,13.86,36.54,16,50.36,2.85,18.51,7.1,34.91,11.25,53.08,3.8,16.64,1.24,37.06,10.56,51.64,4.64,7.28,11.52,12.39,16.29,19.67s7.89,15.59,12.2,23.15c10,17.57,18.93,26.76,19.49,48.57.45,17.73,6.38,35.31,6.14,52.74-.26,17.91-10.62,32.8-15.69,49-6.58,21-14.24,26.76-30.19,38.07-13.75,9.75-20.16,26.23-19.17,44.76.36,6.86,5.3,21.55-3.21,23-5.88,1-15.39-11.48-20.64-14.28-16.6-8.85-27.11,11.3-43.42,12.29-19.25,1.17-21.59-21.38-25.79-38.05-9.17-36.47,10.39-68.44,12.36-104.45,1-17.5-2.42-35.6-3.15-53.15-.74-18,1.93-35.71,1.79-53.66-.15-17.65-14.95-34.57-11-51.63,3.86-16.74,17.45-28.19,21.4-45.89A135.22,135.22,0,0,0,439.45,168.49Z"></path>
      <path class="cls-2" d="M549.07,300.84c-8.91-13.3-13.94-30-26.38-39.6-5.85-4.51-13.49-7-16.56-14.74-2.8-7.09-.53-16.63-.19-23.91.82-17.75-3.61-31.46-8.83-48.08-5-16-5.4-31.37-12.68-46.57-6-12.51-14.78-39.28-25.81-14.89-3.28,7.27-2.62,15.46-4,23.32-1.39,8.11-4.85,15.25-6.75,23.16-3.91,16.29-5.44,33.38-9.57,49.71-3.58,14.16-13.45,30.83-12.27,45.85.64,8.2,5.11,15.58,5.81,23.94.68,8.17-1.16,15.81-2.33,23.72C422.44,350.5,438.78,387,422,447.8c-4.43,16.08-9.61,29-5.87,46.4,2.93,13.65,7.45,37.4,22,40,15.46,2.75,23.84-15.5,37.21-19.13,7.26-2,14.35,0,20.53-5.74,8.12-7.49,9.45-25.7,22-40.75,5.85-7,11.54-6.57,18.77-10.47,12.91-7,15.84-26.4,20.83-40.29,5.62-15.65,7.14-30.38,6-47.42-1.07-15.6.46-33.5-3.64-48.62C557.71,313.84,553.49,307.38,549.07,300.84Z"></path>
      <path class="cls-3" d="M495.76,246.29c-.52,20.28,16.87,17.55,27.48,26.49,9.68,8.17,17.16,25.19,24.24,36.3,14.19,22.26,12.6,61.17,9,87-1.87,13.55-7.53,29.14-13.74,40.77-7.59,14.2-22.2,8.11-30.14,22.85-6.7,12.44-9.66,30.71-21.63,38.27-5.82,3.68-12.83,2.36-18.69,5.33s-9.27,9.76-14,14.6c-26.35,26.77-44.25-23-39-48.45,6-29.47,18.15-54.11,16.49-85.81s-6.24-59.15.48-90.33c6.3-29.18,2.71-58.12,8.74-87.13,2.87-13.83,13.92-84.43,33.48-65.26,9.41,9.22,10.72,28.3,15.3,40.8,5.51,15,8.42,27,5.54,43C497.94,231.92,496,238.78,495.76,246.29Z"></path>
      <path class="cls-3" d="M524.42,295.6c9.08,8,19.8,19.88,24.16,32,4.67,13,2,28,2.27,41.53.3,14.44.52,26.88-5.36,39.85-7.14,15.74-12.73,21.32-26,28.73-18.17,10.17-14.8,41.42-29.32,49.82-6.47,3.74-11.57-.4-18,.5-13.21,1.85-11.48,22.31-23.29,28-13.65,6.56-21.22-11.57-24.57-23.88-7-25.64,11.12-53.77,15-79,4.28-28.09-3.23-54.64-4.27-82.66-.53-14.11,2.67-26.85,6.56-39.95s11.35-24.79,10.82-39.05c-.55-14.83-3.79-26.34-.91-41.33,2.42-12.63,3.73-28,8.27-39.74,13.52-35,36.8,26.38,34.94,43.53-1.52,14-9.15,25.09-8.48,40,.77,17.09,12.85,20.61,23.82,29.06C515.05,286.89,519.4,291.71,524.42,295.6Z"></path>
      <path class="cls-2" d="M477.1,188.44c-3.77-11.53-10-7.57-11,2.17-.65,6.26.62,17.86,3.8,23.36,4.47,7.76,11.55,7,13.74-2.64C485.43,203.59,479.66,195.42,477.1,188.44Z"></path>
      <path class="cls-2" d="M520.28,321c21.63-6.56,21.67,33.55,22.75,47,3.65,45.64-29.67,58-38.46,70.94-5.71,8.45-5.65,18.52-9.21,27.92-5,13.23-10.62,10.6-21.35,9-11.83-1.8-13.88,4.6-18.49,15.64-3.65,8.74-8.46,19.89-18.36,12.4-6.67-5-10-18.72-9.69-27.09.37-10.27,6.07-18.75,9.27-27.93s5.08-19.26,6.7-29.1c10.14-61.47-13.35-80.48.24-121a89.17,89.17,0,0,1,15.47-28.46c9.84-12.06,12.7-2.42,20.54,7.59C489.81,290.77,499,330.72,520.28,321Z"></path>
      <path class="cls-3" d="M528.46,363.64c12.9,34.2-27.72,54.38-37.9,82.57-3.26,9-4.36,15.21-13.73,16.47-7.94,1.07-13.77-2.41-20.3,4.59-4.28,4.58-5.95,18.77-11.61,20.89-8.63,3.23-9.54-11.13-8.34-17.57,3.05-16.36,10.29-30.58,12.42-47.84,2-16,6.1-33.81,4.09-50.17-2.09-17-11.17-31.71-10.49-49.34.47-12.26,7.28-39.18,20.51-40.65,15.49-1.72,20.31,32.51,29.92,42.26C507.34,339.35,521.37,341.84,528.46,363.64Z"></path>
      <path class="cls-3" d="M489,342.83c17.2-4.8,25.74,22.22,24.53,36.72-1.65,19.75-10.42,30.58-22.91,42.36-6.9,6.51-22.87,39.45-33.59,19.61-5.9-10.93-.34-40.7,5.1-50.35,4.55-8.07,12-13,16.11-21.73C482,361.59,482,347.61,489,342.83Z"></path>
      <path class="cls-3" d="M473.08,320.64c-1.29,5.74-10,23.67-15.76,24.27-9.54,1-10.59-19-9.59-26,1.11-7.77,6.43-23.65,15-23.66C472.71,295.25,474.71,312.47,473.08,320.64Z"></path>
      <path class="cls-2" d="M484.6,376.21c14.07-28.62,26,17,10,29.8-5.81,4.64-22.61,10.4-23-1.51C471.34,396.83,481.3,382.77,484.6,376.21Z"></path>
    </g>
    <g>
      <path class="cls-3" d="M305.49,270.26c-3.47,5.15-4.49,11.6-7.64,16.93s-8,8.9-11.17,14.16c-5,8.22-10.14,27-6.06,37,7.36,18.14,17.47-7.22,19.63-15.39,1.56-5.91,2-13,5-18.25,3.3-5.59,9.27-7,13-11.82C326.89,281.6,315.16,254.31,305.49,270.26Z"></path>
      <path class="cls-2" d="M303.48,354.72c-11.13,19.88-36.08,19.69-35-8.21.71-18.73,6.71-41.31,15.13-57.09,8.19-15.35,19.73-39.36,37.79-39.52,16.73-.15,16.46,36.91,12.84,50.87S319.29,311.38,313,322.16C307.34,331.7,308.32,344.67,303.48,354.72Z"></path>
      <path class="cls-3" d="M267.17,361c1.69,33.05,31.83,37.32,48,13.53,7.05-10.37,8.4-24.73,17.83-33,11-9.72,13.77-14,16.34-30.75,2.26-14.76,11.91-67.32-3.28-75.25-21.32-11.13-46.19,27.4-55.15,42.86C278.24,300.19,265.61,333.78,267.17,361Z"></path>
      <path class="cls-3" d="M346.43,221.93c18.94-4.13,14,47.05,12.72,58.43-2.56,22.64-4,44.63-2.37,67.55,1.74,23.91,14.89,75.16,7.68,99.71-1.91,6.48-9.84,25.84-17,25.79-14.64-.12-21.29-48.84-19.95-60.43,1.3-11.27,10.31-20,10.59-31.42.47-19.37-11.82-3.57-16.51,3.72-8.72,13.56-39.29,27.09-51.78,10.85s-7.31-47.21-3-65.23c9.73-40.79,28.28-89.5,65.7-104C337.11,225.14,341.71,223.24,346.43,221.93Z"></path>
      <path class="cls-2" d="M366.24,282.08c2.49-15.28-.15-28.74-.85-44.09s1.49-35.7-17.48-28c-10.92,4.43-26.66,9.24-36.13,16.46-11.11,8.48-16.23,23.06-22.88,35.59-6.91,13-14,24.57-18.57,39.07-9.39,29.76-13.94,56-9.67,87.79,2.39,17.86,4.8,29.41,22.48,27.69,13.43-1.31,28-5.82,35.29,11,5.91,13.62,6.53,28.74,13,42.59a125.75,125.75,0,0,1,11.79,43c1,11.7-5.1,88.56,17.46,79.68,8.64-3.4,17.17-29.46,18-38.82,1.7-18.39-11.35-24.31-16.27-39.64-6.19-19.26,2.67-26.16,9.55-41.17,5.82-12.67,2.22-29.74,3.7-43.7,1.63-15.34,7.54-29.17,10-43.86,2.6-15.61-13.69-23-19.3-36.62C358.1,329,364.24,294.41,366.24,282.08Z"></path>
    </g>
    <g>
      <path class="cls-2" d="M358.18,39.13C367.29,51.7,371,77.66,372.86,92.91c2,16.7,17.2,39.56-2.79,49-8.47,4-18.45,4.52-27.09,8.27s-15.23,10.8-24.36,12.89c-18.1,4.14-35.91,5.92-53.64,13-24.16,9.67-15.86,25.5-13.12,46,2.24,16.67,5.65,38.9.74,55.16-9.51,31.47-42.83,66.8-69.71,84.57-15.38,10.17-33.7,14.92-50.51,22.36-18.24,8.07-35.22.29-54-2.12-21.17-2.71-33-9.13-49.47-21.78-6.34-4.87-19.74-6.88-24-13.52-5.81-9.1,5.2-16.53,10.41-23,11.84-14.6,13.81-33.89,23.73-49.73,9.77-15.6,17.66-32.68,28.8-47.37,7-9.17,12.65-10.12,22.48-14.56,8.44-3.82,14.32-11.65,21.71-17.07,15.6-11.43,29.24-21,41.06-36.66,34.52-45.75,71.72-19.89,95.07-48.19,12.66-15.35,22.92-26.5,39.26-38.35C302.23,61.12,316.59,48.52,333,40.33,340.66,36.5,351.37,30.7,358.18,39.13Z"></path>
      <path class="cls-3" d="M362,72.24c4.62,14.57,10.15,37.38,3.9,52.2-9.27,22-70.54,37.54-94.22,43.89-17.69,4.75-38.39,6-34.33,29.25,6.12,34.92,20.58,68.13.31,101.32-18.28,29.93-48.52,56.7-81.24,69.3-17.88,6.88-30.58,16.08-49.94,10.46-16.83-4.9-34.08-.93-51.19-5.33-11.11-2.86-37.63-21.74-37.61-34.64,0-6.75,9.36-17,11.78-23.66,6.56-18,.75-23.29,32.38-72.1,4.84-7.46,10.26-14.73,18.9-17.73,10.07-3.51,15-3,22.76-11.41,12-13,26.58-22,40.91-32.36,6.77-4.92,15.81-8.28,22.08-13.46,6.65-5.49,10.28-14.07,17.4-19.64,29.38-23,35-5.38,49-13.49,15.39-8.87,22.88-27.53,34.31-40.14,11.71-12.91,73-68.93,88.19-47.46C359.92,53.6,359.83,64.85,362,72.24Z"></path>
      <path class="cls-3" d="M253.46,164.92c-31.24-1.92,6.17-49.12,12.5-58,13.49-19,32.77-34.56,51.93-47.76C325.83,53.64,341,43,349.58,52c6.19,6.45,7.75,25.83,9.94,34.52,12.79,50.77-38.66,57.71-67.08,69.69C280.32,161.28,266.78,165.51,253.46,164.92Z"></path>
      <path class="cls-3" d="M55.31,264.24c4.58-8.84,8.61-19.93,16.87-26.12,9-6.76,20.33-3.52,29.3-10.8,8.31-6.74,12.93-15.89,22.4-21.59a248.21,248.21,0,0,1,28-14c12.25-5.35,48.31-21.15,60.32-14.7,15.85,8.51,21.58,40.74,25,56.38,4.73,21.92,9.29,40.24-1.76,61.31-9.11,17.36-25.79,35.7-41.88,46.87-17.3,12-36.29,20.45-55.65,28.42-12.73,5.24-17.47,1.66-29.68-1.55-10.11-2.66-21.49.21-31.79.63-21.93.89-44-3.27-44.71-30.19-.48-18.19,8-44.76,16.05-60.91C50.1,273.32,52.86,268.85,55.31,264.24Z"></path>
      <path class="cls-2" d="M42.64,354.7C33.8,340,43,313.48,47.4,298.29c19.87-68.75,32.65-51.78,50.4-60.73,8.71-4.39,14.43-12.77,22.48-18s17.95-6.81,26.47-11.34c8.81-4.68,15.85-10.33,26.1-11.73,19.24-2.64,39.6-.22,48.52,18.71,7.32,15.55,16.45,37.86,15.42,55.14-2.37,39.78-39.76,65.83-72,82-8.92,4.47-20.53,9.69-30.29,11.7-10.85,2.24-19.26-5.34-30.18-4.95C87.89,359.64,53.31,372.2,42.64,354.7Z"></path>
      <path class="cls-2" d="M303.46,75.34C319,63.22,341,44,348.35,72.36c5.23,20.18,12.88,39.45-5.84,55.09-14.62,12.22-39.35,19.58-57.15,26-31.51,11.41-40.55-1.79-26.13-26.27A194.33,194.33,0,0,1,303.46,75.34Z"></path>
      <path class="cls-3" d="M300.92,140.15c-10.67,4.84-41.51,18-36.73-6C267,120.27,281.46,104.47,290.5,94c7.91-9.16,26.45-28.87,40.12-27.48C344,67.89,347.08,98.36,344,108.69,338.07,128.32,317.37,132.89,300.92,140.15Z"></path>
      <path class="cls-3" d="M230.27,271.15c2.8-29.55-38.9-75.77-69.43-59.47-7.94,4.24-13.44,9.87-22.39,12.41s-16,3.63-24,8.74c-7.36,4.71-13.72,10.16-22,13.38-8.82,3.45-15.87,4.15-21.74,12.41-10.25,14.45-38.62,85.43-16.61,96.46,13.1,6.57,37.1-1.74,50.43-4.16,10.18-1.85,15.36,2.31,24.89,3.85,8.19,1.33,17.37-2.24,25.08-4.86C191.66,337.27,225.12,312.55,230.27,271.15Z"></path>
      <path class="cls-3" d="M303.22,132.27c11.31-4.47,20.17-9.91,25.2-21.47,11.6-26.64-2.48-48.25-31.08-16.5C279.11,114.55,258.83,149.78,303.22,132.27Z"></path>
      <path class="cls-3" d="M177.3,333.54c24.58-10.23,55.16-43.18,43.69-73-4.58-11.9-21.73-25.6-32-32.88-18.23-12.89-24.8,2-41.82,6.15-7.47,1.81-15.14-.48-22.7,1.62s-13.51,6.91-20.06,10.79c-14.92,8.83-27.17,12.34-34.61,29.28C63.87,289,58.25,304.52,56,319.07c-3,19.46-.36,29.7,20.85,29.28,18.06-.35,32.5-9.88,50.33-5.64C145.64,347.09,160.3,340.71,177.3,333.54Z"></path>
      <path class="cls-2" d="M299.93,102c-3.15,3.78-10.73,14.47-7,19.56,4.6,6.26,15-1,18.58-5.15C323.35,102.36,314.61,83.9,299.93,102Z"></path>
      <path class="cls-2" d="M198.43,251.17c15.11,9,17,16.6,13.2,33.46-5.32,23.88-13.15,42.45-56.61,48.23-13.51,1.79-26.73-4.06-40.07-1.66-13.78,2.47-24.37,11.6-39.37,8.88-16.54-3-13.53-19.75-10.28-32.63,10.22-40.56,17.1-43.77,48.42-60.21,15.6-8.19,28.11.82,43.91-4.4C177.21,236.38,182.22,239.84,198.43,251.17Z"></path>
      <path class="cls-3" d="M157,257.09c-13.06,3.55-21-7.81-33.15-6.32-10.1,1.24-22.54,10.55-30.3,16.76C82.12,276.64,61,317.64,78.38,328.67c10.89,6.9,23.05-3.23,32.87-6.46C122,318.68,134,318.38,145,319.92c24.06,3.39,48.51,1.72,56.75-25.31,4.15-13.58,6.36-25.48-6.95-33.17C182.15,254.12,171,253.14,157,257.09Z"></path>
      <path class="cls-3" d="M162.66,273c8.71,1.44,17.37-5.27,25.94-1.09,8.85,4.32,8.28,14.27,5.19,22.44-8.12,21.49-26.59,14.42-44.43,12.95-8.77-.72-16.3,1-25,1.65-6.52.47-20.34,4.1-26.21,2.34-20.17-6,.77-35.5,9.58-42.26,9.88-7.58,15.26-7.43,25.9-2.49C143.34,271.08,152.25,271.33,162.66,273Z"></path>
    </g>
    <g>
      <path class="cls-2" d="M96.6,411.63c-7.42-3.87-16.32-4.12-24.53-3.81-6.6.25-13.32.82-18.84,3.3s-9.66,7.28-8.93,12.76c1.22,9,14.15,15.45,17.19,24.39,2,6-.81,12.09,1.28,18.09,2.8,8.06,13.45,13.48,17.54,21.29,4.07,14.1-4.21,30.28,9.76,42.83,5.48,4.92,12.32,8.75,17.85,13.68,9.82,8.78,18.84,18.26,28.19,27.36,4.52,4.4,9.49,9.06,16,10.79,7.75,2.06,15.63-.78,20.57-5.24s7.62-10.34,10.69-15.9,6.83-11.13,13.18-14.25c10.74-5.28,25.68-2.3,38.25-4.58,18.56-3.38,29.84-18.18,32.19-33.77s-2.57-32-7.45-48c-2.8-9.18-5.72-18.6-12.22-26.79C237.13,421,219.68,413,202.54,407.48c-8.09-2.59-16.68-4.81-24.74-3.88-12,1.39-20.05,9.26-28.78,15.5s-21.48,11.2-33,6.18C108.54,422,103.79,415.38,96.6,411.63Z"></path>
      <path class="cls-3" d="M147.17,433.34c-8.2,4.75-18.08,9.8-28.39,6.69-5.71-1.73-10.23-5.66-15.25-8.69a51.74,51.74,0,0,0-22.08-7.16c-4.74-.4-10.13.21-12.24,3.51-2,3.08-.2,7.23,2.28,10.5s5.72,6.28,7.14,9.88c3.1,7.87-3.47,15.81-.2,23.64,2.89,6.92,12.29,11,16.51,17.55,5,7.7,1.56,16.48,3.62,24.79,2.21,8.9,10.39,16.37,18.17,23.25l18.45,16.29c4.11,3.64,8.32,9.28,13,12.31,12.57,8.19,22.3-2.85,25.69-11.12,2-4.9,3.7-10.12,7.82-13.85,7.6-6.88,20.92-6.8,32.84-6.5s25.33-.19,32.1-7.66c5.6-6.18,4.76-15.25,2.63-23.44-4.81-18.41-14.94-36-25-53.4-5.64-9.78-12.1-20.3-23.51-25.64-9.06-4.24-19.77-4.34-28.91-2.07S154.83,428.89,147.17,433.34Z"></path>
      <path class="cls-3" d="M95.7,434.92C91,434,85.43,436,85.58,439.86c.14,3.67,5,6.53,6.46,10.14,1.81,4.48-2,8.62-1.7,13.18.43,5.66,6.9,10.19,10.74,15.28,5.4,7.16,5.6,15.6,8.17,23.5,5.3,16.24,20.53,29.85,35.13,42.57,3,2.65,6.52,5.49,10.71,5.93,7.55.78,11-6.2,14.14-11.41,6.4-10.47,19.9-17.31,34.9-17.69,10.61-.26,23.31,2.08,30.1-4,6-5.33,3.8-14.47-.08-21.92-8.16-15.66-13.38-31.35-23.05-46.75-5.5-8.75-15.25-17.51-26.68-17.89-11.2-.37-18.78,7.2-27.84,11.61-13.57,6.59-32.74,5.88-47.81-1.78C104.52,438.52,100.42,435.8,95.7,434.92Z"></path>
      <path class="cls-2" d="M112.34,470.64c-2.51,3-1.1,7.56,1.63,11s6.57,6.29,9.51,9.64c5.77,6.59,7.61,14.59,11.8,21.81s12.85,14.45,21.93,13.59c12.42-1.18,14.62-15.7,26.09-19.08,7.73-2.27,17.52,1.23,25.26-1a14.42,14.42,0,0,0,10.34-13.3c.34-5.79-2-11.74-4.63-17.45a187.44,187.44,0,0,0-10.52-19.58c-4.73-7.68-14.69-19-26-14.24-3.49,1.47-5.41,3.87-9.24,5.23-5.59,2-10.44,3.14-14.89,6.72-6.56,5.27-12.5,11.95-22,13.13C124.83,468,116,466.2,112.34,470.64Z"></path>
      <path class="cls-3" d="M160.82,509.71a15,15,0,0,1-17-8.06c-2.1-4.14-2.16-8.1-5.89-11.85-2.84-2.85-7.86-4.44-9.21-8.16-1.48-4.06,3.19-7.32,8-8.12s10.11-.26,14.48-1.82c5.72-2,8.43-7.12,11.14-11.69s6.51-9.36,12.88-10.05c5.26-.57,10.95,2,14.91,5.41s6.52,7.73,9,11.92c2.24,3.75,4.51,7.6,5.18,11.59s-.53,8.23-4.27,10.38c-7.12,4.09-17.82-.1-24.53,5C169.34,498.92,170.23,507.69,160.82,509.71Z"></path>
      <path class="cls-3" d="M168.49,485.25c5-3,13.62-1.17,17.77-4.94,3.45-3.13,2-8.45-.32-12.77-1.55-3-4.57-6.44-8.21-6a5.11,5.11,0,0,0-4,3.28c-.68,1.56-.9,3.28-1.73,4.78-1.7,3.06-5.64,4.68-9.44,6s-7.87,2.54-10.26,5.23c-6.13,6.88,5.13,15.24,11.94,8.47C165.57,487.89,166.73,486.31,168.49,485.25Z"></path>
    </g>
    <g>
      <path class="cls-2" d="M133.18,61.94c-16.43,13.32,8.85,21.31,20.23,10.9C168.89,58.69,144.06,52.9,133.18,61.94Z"></path>
      <path class="cls-3" d="M117.48,86.83c-10-27,33.16-54.83,52.47-32.77C189.43,76.31,124.61,104.33,117.48,86.83Z"></path>
      <path class="cls-3" d="M109.25,64.11c-5,9.21-10.28,35.2-.07,42.19,11.2,7.67,31.42-8.07,41-13.25,11.39-6.19,30.81-13.08,33-27.81,2.48-16.73-16.59-25.17-30.45-24.67C136.51,41.16,117.94,50.26,109.25,64.11Z"></path>
      <path class="cls-2" d="M121.77,117.83c18.84-8.31,41.64-22.34,57.84-35,22-17.28,9.17-43.54-16.28-47.75-20-3.32-47.61,8.28-60,24.22C96.18,68.39,96,79.32,91.6,89.57,86.51,101.48,76.92,105.45,69,114.65c-13.92,16.2,3.16,15.08,15.38,11.21S110,123.16,121.77,117.83Z"></path>
      <path class="cls-3" d="M106.65,132.85c-16.09,4.26-71.6,28.41-58.58-11.34,4.45-13.59,19-18.22,27.78-28.18,9.29-10.52,10-25.06,19.42-35.5,16.43-18.18,47.52-32.93,72.34-28.32,30.92,5.74,43.14,37.39,16.72,57.2-12.12,9.09-25.84,14.92-37.67,24.71C134.38,121.59,122.12,128.55,106.65,132.85Z"></path>
      <path class="cls-3" d="M173.05,99.8c28.79-16.29,50.4-44.28,15.91-68.42-25.9-18.13-60.29-3.85-84.07,11.22C89.67,52.24,81.73,60.39,73.81,76.5,66.34,91.72,52.5,98.24,42.94,111.55c-7.85,10.94-11.22,31.38-.29,42,11.14,10.85,30.2-1.44,42.79-4.93,16.72-4.64,32.68-7.3,47.72-16.59C148,122.9,157.78,108.48,173.05,99.8Z"></path>
      <path class="cls-2" d="M37.74,104.94c-12.59,13.73-15.19,31.31-11,49.33,8.74,37.8,24,18.49,35.57,12.51,27.54-14.27,48.07,4.15,92.63-43.55,18.28-19.57,73.39-42.57,59.28-77.72-14.73-36.7-63.7-32.3-92.7-19.44C62.75,52.11,71.63,65,58.62,83.42,52.87,91.59,44.62,97.74,37.74,104.94Z"></path>
    </g>
    <path class="cls-2" d="M341.17,184.81c-2.84.6-5.8,1.14-8.12,2.88s-3.7,5.11-2.24,7.61c1.21,2,3.78,2.77,6.1,3.27a177.31,177.31,0,0,0,30.37,3.76c6.23.23,12.77,0,18.25-2.92a38.87,38.87,0,0,0,7.64-6l11.43-10.57c1.44-1.33,2.94-2.77,3.38-4.68.72-3.06-1.57-6-3.94-8.05a38.27,38.27,0,0,0-11.58-6.87c-2.71-1-3.5-1.36-5.79.42-1.83,1.42-3.72,2.78-5.64,4.09a112.83,112.83,0,0,1-24.73,12.67A110.74,110.74,0,0,1,341.17,184.81Z"></path>
    <path class="cls-3" d="M372.35,184.38a15.15,15.15,0,0,0-3.73,1.69,3.71,3.71,0,0,0-1.65,3.52,4.7,4.7,0,0,0,2.58,2.82,19.07,19.07,0,0,0,25-5.68c1.86-2.66,3-6.25,1.47-9.11-1.79-3.32-8.24-6.06-11-2.88C381.44,179,377.65,182.41,372.35,184.38Z"></path>
    <path class="cls-2" d="M238.77,554.3c-5.11,1.42-11.12,3.8-12,9-.63,3.62,1.72,7.24,4.81,9.22s6.81,2.69,10.42,3.35l72.17,13.19c4.74.86,10.38,1.47,13.7-2,3.69-3.87,2.16-10.14.4-15.19l-13.8-39.48c-1.47-4.23-3.06-8.63-6.33-11.69A14.38,14.38,0,0,0,290,520c-7.74,6.17-1.67,17.51-9.39,22.51-5,3.22-13.95,4-19.72,5.63Z"></path>
    <path class="cls-3" d="M281.85,552.52c-4.39.87-9,1.81-12.49,4.56s-5.65,7.89-3.54,11.84a66.28,66.28,0,0,0,20.94,7.83c8.5,1.62,18.53,1,24.06-5.64A15.28,15.28,0,0,0,312.76,555C306.4,542,292.26,550.47,281.85,552.52Z"></path>
    <path class="cls-3" d="M307.31,565.71a13.6,13.6,0,0,1-8.33,6.67,9.73,9.73,0,0,1-5.7.18,5.31,5.31,0,0,1-3.7-4.06,5.74,5.74,0,0,1,2-4.76A17.72,17.72,0,0,1,296.1,561a15.66,15.66,0,0,0,4.5-2.86,18,18,0,0,1,2.76-2.82c2.53-1.59,3.87.67,4.55,2.75A10.41,10.41,0,0,1,307.31,565.71Z"></path>
    <path class="cls-2" d="M76.74,180.19c-11.92,4.37-24,8.85-34.17,16.54S24.46,215.91,24.1,228.61c-.08,2.74.35,5.79,2.45,7.54,2.32,1.95,5.78,1.58,8.66.67,6.83-2.15,12.67-6.61,18-11.42s10.22-10.06,16-14.27c11.46-8.34,26.27-12.6,34.87-23.87a14.78,14.78,0,0,0,2.78-5.29c1.64-6.71-5.53-10-11.22-8.78-2.75.61-5.44,2.07-8.07,3Z"></path>
    <path class="cls-3" d="M30.81,220.64c-.28,1.77-.31,3.75.8,5.16A5.73,5.73,0,0,0,36,227.64c5.06.13,9.5-3.16,13.48-6.29l21.18-16.66a12.46,12.46,0,0,0,3-3,4.27,4.27,0,0,0,.45-4.09c-.77-1.56-2.64-2.2-4.35-2.53a29.84,29.84,0,0,0-20.31,3.41c-2.62,1.49-4.38,3.68-6.79,5.37-2.82,2-5.39,3.77-7.49,6.56A23.34,23.34,0,0,0,30.81,220.64Z"></path>
    <path class="cls-2" d="M70.76,541.63c5.74,4.83,13.3,9.49,13.61,17,.3,7.29-7,12.85-14.12,14.31-13.53,2.78-27.9-4.77-35.34-16.41s-8.61-26.51-5.53-40c2.08-9.06,11.69-37.71,19.11-20.44C55.7,512.86,55.43,528.73,70.76,541.63Z"></path>
    <path class="cls-3" d="M45.07,556.23a27,27,0,0,0,10.78,11c4.64,2.39,10.39,2.9,15.09.63a7.55,7.55,0,0,0,4.1-4.06c.93-2.68-.56-5.69-2.68-7.58s-4.82-3-7.25-4.46a27.48,27.48,0,0,1-11.92-15.31c-.62-2-1-4.14-1.81-6.1a8.58,8.58,0,0,0-4-4.73c-1.6-.75-4.43-.79-5.37,1s-1.1,4.5-1.34,6.46a38.42,38.42,0,0,0,1.12,15A36.64,36.64,0,0,0,45.07,556.23Z"></path>
    <path class="cls-3" d="M59.09,566.3a11,11,0,0,0,6.13,1.48,4.9,4.9,0,0,0,3.94-7.84,12,12,0,0,0-3-3.1A33.81,33.81,0,0,0,60,553.1c-1.89-.9-4.35-2.14-6.48-1.32-3.51,1.34-1.57,7.66-.12,9.78A15.12,15.12,0,0,0,59.09,566.3Z"></path>
    
	  
	 
	  
	  
	  
	  
    <g id="cime">
      <g>
        <line class="cls-5" x1="169.12" y1="283.05" x2="169.12" y2="298"></line>
        <line class="cls-5" x1="161.65" y1="290.53" x2="176.6" y2="290.53"></line>
      </g>
      <g>
        <line class="cls-5" x1="178.12" y1="466.05" x2="178.12" y2="481"></line>
        <line class="cls-5" x1="170.65" y1="473.53" x2="185.6" y2="473.53"></line>
      </g>
      <g>
        <line class="cls-5" x1="290.12" y1="311.05" x2="290.12" y2="326"></line>
        <line class="cls-5" x1="282.65" y1="318.53" x2="297.6" y2="318.53"></line>
      </g>
      <g>
        <line class="cls-5" x1="492.12" y1="378.05" x2="492.12" y2="393"></line>
        <line class="cls-5" x1="484.65" y1="385.53" x2="499.6" y2="385.53"></line>
      </g>
      <g>
        <line class="cls-5" x1="143.12" y1="60.05" x2="143.12" y2="75"></line>
        <line class="cls-5" x1="135.65" y1="67.53" x2="150.6" y2="67.53"></line>
      </g>
    </g>
  </g>
  <g id="decor">
    <polygon class="cls-6" points="539.5 256.5 539.5 216.5 395.5 216.5 395.5 148.5 347 148.5 347 38 -4 38 -4 233 165.5 233 165.5 299.5 277.5 299.5 277.5 325.5 314.5 325.5 314.5 348.5 568.5 348.5 568.5 256.5 539.5 256.5"></polygon>
    <polygon class="cls-6" points="491.5 395.5 348.5 395.5 348.5 419.5 -4.5 419.5 -4.5 570.5 385.5 570.5 385.5 458.5 491.5 458.5 491.5 395.5"></polygon>
    <circle class="cls-6" cx="120" cy="448" r="234.5"></circle>
    <circle class="cls-6" cx="327.5" cy="527.5" r="111"></circle>
  </g>
  <path id="road" class="cls-7" d="M227,90.23,279.27,50c18.28-14.07,37.2-28.46,59.49-34.4s49-1.34,62.9,17.09c9.73,13,11.52,30.06,12.28,46.24,1,21.64.23,45.13-13.06,62.25-14.59,18.81-40,24.65-63.12,30.13s-48.52,13.56-60.25,34.27c-9.71,17.13-7.35,38.17-9.23,57.76A128.67,128.67,0,0,1,241.54,330c-10.91,13.88-25.45,27.24-26.15,44.88-.68,16.89,12,31.46,25.94,41s30,16.28,42.16,28,19.6,31.1,11,45.66"></path>
  <g id="cap">
    <g id="jou5">
		
      <line id="l5" class="cls-8" x1="298" y1="483.5" x2="143" y2="483.5">
		<animate attributeName="y2" dur="10s" fill="freeze" repeatCount="indefinite" begin="-3s" calcMode="spline" keyTimes="0; 0.5; 1;" keySplines="0.5 0 0.5 1; 0.5 0 0.5 1" values="476; 491; 476; "></animate>
		</line>
      <circle id="dot5" class="cls-4" cx="143" cy="483.5" r="4">
		<animate attributeName="cy" dur="10s" fill="freeze" repeatCount="indefinite" begin="-3s" calcMode="spline" keyTimes="0; 0.5; 1;" keySplines="0.5 0 0.5 1; 0.5 0 0.5 1" values="476; 491; 476; "></animate>		
		</circle>
		
      <g id="j5">
		  
		  <animateTransform attributeName="transform" type="translate" dur="10s" fill="freeze" repeatCount="indefinite" begin="-3s" calcMode="spline" keyTimes="0; 0.5; 1;" keySplines="0.5 0 0.5 1; 0.5 0 0.5 1" values="0 -7.5; 0 7.5; 0 -7.5; "></animateTransform>
		  
        <path class="cls-4" d="M132.51,505.25a5.77,5.77,0,0,1-2.6,4.5L92.24,531.5a5.75,5.75,0,0,1-5.19,0L49.37,509.75a5.74,5.74,0,0,1-2.59-4.5v-43.5a5.76,5.76,0,0,1,2.59-4.5L87.05,435.5a5.75,5.75,0,0,1,5.19,0l37.67,21.75a5.76,5.76,0,0,1,2.6,4.5Z"></path>
        <polygon class="cls-9" points="75.3 450.38 68.12 454.52 75.3 458.67 82.48 454.52 75.3 450.38"></polygon>
        <polygon class="cls-10" points="68.12 454.52 68.12 495.75 75.3 499.89 75.3 458.67 68.12 454.52"></polygon>
        <polygon class="cls-11" points="82.48 454.52 82.48 495.84 75.3 499.98 75.3 458.67 82.48 454.52"></polygon>
        <g>
          <polygon class="cls-9" points="89.64 442.21 82.46 446.36 89.64 450.51 96.82 446.36 89.64 442.21"></polygon>
          <polygon class="cls-10" points="82.46 446.36 82.46 487.59 89.64 491.73 89.64 450.51 82.46 446.36"></polygon>
          <polygon class="cls-11" points="96.82 446.36 96.82 487.59 89.64 491.73 89.64 450.51 96.82 446.36"></polygon>
        </g>
        <g>
          <polygon class="cls-9" points="103.88 450.5 96.7 454.64 103.88 458.79 111.06 454.64 103.88 450.5"></polygon>
          <polygon class="cls-10" points="96.7 454.64 96.7 495.96 103.88 500.11 103.88 458.79 96.7 454.64"></polygon>
          <polygon class="cls-11" points="111.06 454.64 111.06 495.87 103.88 500.02 103.88 458.79 111.06 454.64"></polygon>
        </g>
        <g>
          <polygon class="cls-9" points="89.6 458.67 82.42 462.81 89.6 466.96 96.78 462.81 89.6 458.67"></polygon>
          <polygon class="cls-10" points="82.42 462.81 82.42 504.04 89.6 508.18 89.6 466.96 82.42 462.81"></polygon>
          <polygon class="cls-11" points="96.78 462.81 96.78 471.1 89.6 475.25 89.6 466.96 96.78 462.81"></polygon>
        </g>
        <g>
          <polygon class="cls-9" points="75.3 466.96 68.12 471.1 75.3 475.25 82.48 471.1 75.3 466.96"></polygon>
          <polygon class="cls-12" points="68.12 471.1 68.12 512.33 75.3 516.48 75.3 475.25 68.12 471.1"></polygon>
          <polygon class="cls-11" points="82.48 471.1 82.48 512.33 75.3 516.48 75.3 475.25 82.48 471.1"></polygon>
        </g>
        <g>
          <polygon class="cls-9" points="103.89 466.88 96.71 471.02 103.89 475.17 111.07 471.02 103.89 466.88"></polygon>
          <polygon class="cls-10" points="96.71 471.02 96.71 512.25 103.89 516.4 103.89 475.17 96.71 471.02"></polygon>
          <polygon class="cls-13" points="111.07 471.02 111.07 512.25 103.89 516.4 103.89 475.17 111.07 471.02"></polygon>
        </g>
        <g>
          <polygon class="cls-9" points="118.18 458.67 111 462.81 118.18 466.96 125.36 462.81 118.18 458.67"></polygon>
          <polygon class="cls-10" points="111 462.81 111 504.04 118.18 508.18 118.18 466.96 111 462.81"></polygon>
          <polygon class="cls-13" points="125.36 462.81 125.36 504.04 118.18 508.18 118.18 466.96 125.36 462.81"></polygon>
        </g>
        <g>
          <polygon class="cls-9" points="89.6 475.17 82.42 479.32 89.6 483.46 96.78 479.32 89.6 475.17"></polygon>
          <polygon class="cls-12" points="82.42 479.32 82.42 520.54 89.6 524.69 89.6 483.46 82.42 479.32"></polygon>
          <polygon class="cls-13" points="96.78 479.32 96.78 520.54 89.6 524.69 89.6 483.46 96.78 479.32"></polygon>
        </g>
        <g>
          <polygon class="cls-9" points="61.01 458.67 53.83 462.81 61.01 466.96 68.19 462.81 61.01 458.67"></polygon>
          <polygon class="cls-12" points="53.83 462.81 53.83 504.04 61.01 508.18 61.01 466.96 53.83 462.81"></polygon>
          <polygon class="cls-11" points="68.19 462.81 68.19 504.04 61.01 508.18 61.01 466.96 68.19 462.81"></polygon>
        </g>
      </g>
      <g>
        <circle class="cls-4" cx="298.09" cy="483.57" r="15.59"></circle>
        <circle class="cls-14" cx="298.09" cy="483.57" r="9.25"></circle>
      </g>
    </g>
    <g id="jou4">
      <line id="l4" class="cls-8" x1="216" y1="375" x2="357" y2="375">
		<animate attributeName="y2" dur="10s" fill="freeze" repeatCount="indefinite" begin="-2s" calcMode="spline" keyTimes="0; 0.5; 1;" keySplines="0.5 0 0.5 1; 0.5 0 0.5 1" values="367.5; 382.5; 367.5; "></animate>
		</line>
      <circle id="dot4" class="cls-4" cx="357" cy="375" r="4">
		<animate attributeName="cy" dur="10s" fill="freeze" repeatCount="indefinite" begin="-2s" calcMode="spline" keyTimes="0; 0.5; 1;" keySplines="0.5 0 0.5 1; 0.5 0 0.5 1" values="367.5; 382.5; 367.5; "></animate>
		</circle>
      <g>
        <circle class="cls-4" cx="215.09" cy="374.57" r="15.59"></circle>
        <circle class="cls-14" cx="215.09" cy="374.57" r="9.25"></circle>
      </g>
      <g id="j4">
		  <animateTransform attributeName="transform" type="translate" dur="10s" fill="freeze" repeatCount="indefinite" begin="-2s" calcMode="spline" keyTimes="0; 0.5; 1;" keySplines="0.5 0 0.5 1; 0.5 0 0.5 1" values="0 -7.5; 0 7.5; 0 -7.5; "></animateTransform>
        <path class="cls-4" d="M452.44,395.75a5.77,5.77,0,0,1-2.6,4.5L413,421.5a5.77,5.77,0,0,1-5.2,0L371,400.25a5.76,5.76,0,0,1-2.6-4.5v-42.5a5.77,5.77,0,0,1,2.6-4.5l36.8-21.25a5.77,5.77,0,0,1,5.2,0l36.8,21.25a5.76,5.76,0,0,1,2.6,4.5Z"></path>
        <g>
          <polygon class="cls-9" points="445.38 354.24 431.38 362.35 396.39 342.12 410.44 334.06 445.38 354.24"></polygon>
          <polygon class="cls-9" points="389.39 346.16 424.4 366.38 410.33 374.5 375.41 354.26 389.39 346.16"></polygon>
          <polygon class="cls-12" points="375.41 394.69 389.41 402.77 389.41 378.52 396.35 382.57 396.39 406.8 410.39 414.89 410.33 374.5 375.41 354.26 375.41 394.69"></polygon>
          <polygon class="cls-13" points="445.24 394.58 445.38 354.24 431.38 362.35 431.38 394.69 424.4 398.72 424.4 366.38 410.33 374.5 410.39 414.89 445.24 394.58"></polygon>
          <polygon class="cls-10" points="396.39 342.12 396.37 350.22 424.4 366.38 424.4 390.66 431.38 394.69 431.38 362.35 396.39 342.12"></polygon>
          <polygon class="cls-15" points="424.4 398.72 431.38 394.69 424.4 390.66 424.4 398.72"></polygon>
          <polygon class="cls-11" points="389.41 402.77 396.37 398.73 396.35 382.57 389.41 378.52 389.41 402.77"></polygon>
        </g>
      </g>
    </g>
    <g id="jou3">
      <line id="l3" class="cls-8" x1="278" y1="201.5" x2="195" y2="201.5">
		<animate attributeName="y2" dur="10s" fill="freeze" repeatCount="indefinite" begin="-1s" calcMode="spline" keyTimes="0; 0.5; 1;" keySplines="0.5 0 0.5 1; 0.5 0 0.5 1" values="194; 209; 194; "></animate>
		</line>
      <circle id="dot3" class="cls-4" cx="195" cy="201.5" r="4">
		<animate attributeName="cy" dur="10s" fill="freeze" repeatCount="indefinite" begin="-1s" calcMode="spline" keyTimes="0; 0.5; 1;" keySplines="0.5 0 0.5 1; 0.5 0 0.5 1" values="194; 209; 194; "></animate>
		</circle>
      <g id="j3">
		  <animateTransform attributeName="transform" type="translate" dur="10s" fill="freeze" repeatCount="indefinite" begin="-1s" calcMode="spline" keyTimes="0; 0.5; 1;" keySplines="0.5 0 0.5 1; 0.5 0 0.5 1" values="0 -7.5; 0 7.5; 0 -7.5; "></animateTransform>
        <path class="cls-4" d="M182.51,224.25a5.77,5.77,0,0,1-2.6,4.5L142.24,250.5a5.75,5.75,0,0,1-5.19,0L99.37,228.75a5.74,5.74,0,0,1-2.59-4.5v-43.5a5.76,5.76,0,0,1,2.59-4.5l37.68-21.75a5.75,5.75,0,0,1,5.19,0l37.67,21.75a5.76,5.76,0,0,1,2.6,4.5Z"></path>
        <polygon class="cls-9" points="139.59 161.2 103.84 181.82 139.66 202.5 175.3 181.85 139.59 161.2"></polygon>
        <polygon class="cls-11" points="139.64 169.43 139.64 194.24 118.19 181.85 139.64 169.43"></polygon>
        <polygon class="cls-10" points="139.64 169.43 161 181.85 139.64 194.24 139.64 169.43"></polygon>
        <polygon class="cls-12" points="103.84 181.82 103.83 223.11 139.57 243.74 139.66 202.5 103.84 181.82"></polygon>
        <polygon class="cls-13" points="175.3 181.85 175.3 223.11 139.57 243.74 139.66 202.5 175.3 181.85"></polygon>
        <polygon class="cls-11" points="132.42 206.61 110.97 194.24 110.97 218.94 132.42 206.61"></polygon>
        <polygon class="cls-15" points="132.42 231.32 132.42 206.61 110.97 218.94 132.42 231.32"></polygon>
        <polygon class="cls-10" points="168.14 194.24 146.7 206.61 168.23 218.99 168.14 194.24"></polygon>
        <polygon class="cls-15" points="146.7 231.37 168.23 218.99 146.7 206.61 146.7 231.37"></polygon>
      </g>
      <g>
        <circle class="cls-4" cx="278.09" cy="201.57" r="15.59"></circle>
        <circle class="cls-14" cx="278.09" cy="201.57" r="9.25"></circle>
      </g>
    </g>
    <g id="jou2">
      <line id="l2" class="cls-8" x1="414" y1="85" x2="481" y2="85">
		<animate attributeName="y2" dur="10s" fill="freeze" repeatCount="indefinite" calcMode="spline" keyTimes="0; 0.5; 1;" keySplines="0.5 0 0.5 1; 0.5 0 0.5 1" values="77.5; 92.5; 77.5; "></animate>
		</line>
      <circle id="dot2" class="cls-4" cx="481" cy="85" r="4">
		<animate attributeName="cy" dur="10s" fill="freeze" repeatCount="indefinite" calcMode="spline" keyTimes="0; 0.5; 1;" keySplines="0.5 0 0.5 1; 0.5 0 0.5 1" values="77.5; 92.5; 77.5; "></animate>
		</circle>
      <g id="j2">
		  <animateTransform attributeName="transform" type="translate" dur="10s" fill="freeze" repeatCount="indefinite" calcMode="spline" keyTimes="0; 0.5; 1;" keySplines="0.5 0 0.5 1; 0.5 0 0.5 1" values="0 -7.5; 0 7.5; 0 -7.5; "></animateTransform>
        <path class="cls-4" d="M578.51,106.25a5.77,5.77,0,0,1-2.6,4.5L538.24,132.5a5.75,5.75,0,0,1-5.19,0l-37.68-21.75a5.74,5.74,0,0,1-2.59-4.5V62.75a5.76,5.76,0,0,1,2.59-4.5L533.05,36.5a5.75,5.75,0,0,1,5.19,0l37.67,21.75a5.76,5.76,0,0,1,2.6,4.5Z"></path>
        <g>
          <polygon class="cls-15" points="535.59 59.67 499.84 80.29 535.66 100.98 571.3 80.33 535.59 59.67"></polygon>
          <polygon class="cls-15" points="535.59 76.19 499.84 96.81 535.66 117.49 571.3 96.84 535.59 76.19"></polygon>
          <polygon class="cls-9" points="535.59 43.2 499.84 63.82 535.66 84.5 571.3 63.85 535.59 43.2"></polygon>
          <polygon class="cls-16" points="499.84 63.82 499.83 72.1 535.64 92.74 535.66 84.5 499.84 63.82"></polygon>
          <polygon class="cls-16" points="499.84 80.29 535.66 100.98 535.66 109.26 499.83 88.61 499.84 80.29"></polygon>
          <polygon class="cls-16" points="499.84 96.81 499.84 105.11 535.57 125.7 535.66 117.49 499.84 96.81"></polygon>
          <polygon class="cls-13" points="571.3 63.85 571.36 72.1 535.64 92.74 535.66 84.5 571.3 63.85"></polygon>
          <polygon class="cls-13" points="571.3 80.33 571.36 88.61 535.66 109.26 535.66 100.98 571.3 80.33"></polygon>
          <polygon class="cls-13" points="571.3 96.84 571.36 105.11 535.57 125.7 535.66 117.49 571.3 96.84"></polygon>
        </g>
      </g>
      <g>
        <circle class="cls-4" cx="414.09" cy="84.57" r="15.59"></circle>
        <circle class="cls-14" cx="414.09" cy="84.57" r="9.25"></circle>
      </g>
    </g>
    <g id="j1">
      <polygon class="cls-4" points="248.41 101.72 226.92 114.13 205.43 101.72 205.43 76.91 226.92 64.51 248.41 76.91 248.41 101.72"></polygon>
      <polygon class="cls-14" points="226.92 72.78 212.6 81.05 226.92 89.32 241.25 81.05 226.92 72.78"></polygon>
      <polygon class="cls-17" points="212.6 81.05 212.6 97.59 226.92 105.86 226.92 89.32 212.6 81.05"></polygon>
      <polygon class="cls-18" points="241.25 81.05 241.25 97.59 226.92 105.86 226.92 89.32 241.25 81.05"></polygon>
    </g>
  </g>
</svg>